<svg width="25" height="24" viewBox="0 0 25 24" fill="none" xmlns="http://www.w3.org/2000/svg">
<path d="M8.15942 6.6075C8.50092 5.5315 9.36442 4.6415 10.4999 4.154V5.5C10.4999 5.63261 10.5526 5.75979 10.6464 5.85355C10.7401 5.94732 10.8673 6 10.9999 6C11.1325 6 11.2597 5.94732 11.3535 5.85355C11.4472 5.75979 11.4999 5.63261 11.4999 5.5V3.5C11.4999 3.36739 11.5526 3.24021 11.6464 3.14645C11.7401 3.05268 11.8673 3 11.9999 3H12.9999C13.1325 3 13.2597 3.05268 13.3535 3.14645C13.4472 3.24021 13.4999 3.36739 13.4999 3.5V5.5C13.4999 5.63261 13.5526 5.75979 13.6464 5.85355C13.7401 5.94732 13.8673 6 13.9999 6C14.1325 6 14.2597 5.94732 14.3535 5.85355C14.4472 5.75979 14.4999 5.63261 14.4999 5.5V4.154C15.6519 4.6485 16.5234 5.5565 16.8549 6.6535C16.7264 6.7575 16.5119 6.8835 16.1774 7.0055C15.4314 7.2775 14.1799 7.5 12.2369 7.5C10.8374 7.5 9.71292 7.282 8.95442 7.005C8.58792 6.8715 8.32442 6.7305 8.15942 6.6075Z" fill="#FFEBCD"/>
<path fill-rule="evenodd" clip-rule="evenodd" d="M16.52 7.94501C16.9625 7.78301 17.3115 7.58901 17.5595 7.36601C17.843 7.63751 18 7.93601 18 8.25001C18 8.84901 17.428 9.39351 16.495 9.79651C16.4983 9.86385 16.5 9.93168 16.5 10C16.4995 10.5336 16.3923 11.0616 16.1847 11.5531C15.977 12.0446 15.6731 12.4896 15.2909 12.8619C14.9087 13.2341 14.4559 13.5262 13.9591 13.7208C13.4623 13.9154 12.9316 14.0087 12.3982 13.9951C11.8648 13.9815 11.3396 13.8614 10.8533 13.6418C10.3671 13.4221 9.9297 13.1074 9.56692 12.7162C9.20414 12.3249 8.92329 11.8651 8.74092 11.3636C8.55855 10.8622 8.47834 10.3294 8.505 9.79651C7.572 9.39351 7 8.84901 7 8.25001C7 7.92501 7.168 7.61651 7.4705 7.33801L7.527 7.38301C7.799 7.59351 8.171 7.78401 8.612 7.94451C9.4975 8.26801 10.7415 8.50001 12.237 8.50001C14.241 8.50001 15.6215 8.27251 16.52 7.94501ZM9.503 10.137C9.53754 10.9087 9.86838 11.6373 10.4266 12.1711C10.9849 12.7049 11.7276 13.0029 12.5 13.0029C13.2724 13.0029 14.0151 12.7049 14.5734 12.1711C15.1316 11.6373 15.4625 10.9087 15.497 10.137C14.635 10.367 13.605 10.5 12.5 10.5C11.395 10.5 10.365 10.3665 9.503 10.137ZM3.5 21H14V15.25L13 16V17.9485C12.8362 17.9866 12.6682 18.0039 12.5 18C12.2625 18 12.1025 17.975 12 17.9485V16.111L9.6765 14.304C6.76 14.864 3.5 16.169 3.5 18V21ZM7 20H11V17.59L7.7375 18.134L8.6755 15.555C8.10732 15.7015 7.54792 15.8801 7 16.09V20ZM4.5 20H6V16.5395L5.963 16.559C5.431 16.841 5.042 17.1285 4.797 17.399C4.557 17.665 4.5 17.8615 4.5 18V20Z" fill="#FFEBCD"/>
<path d="M16.785 12.825C17.074 12.53 17.475 12.8275 17.387 13.231L17.374 13.29C17.329 13.4957 17.3307 13.7088 17.379 13.9137C17.4273 14.1186 17.5208 14.3101 17.6528 14.474C17.7848 14.638 17.9519 14.7703 18.1418 14.8612C18.3317 14.9521 18.5395 14.9993 18.75 14.9993C18.9605 14.9993 19.1683 14.9521 19.3582 14.8612C19.5481 14.7703 19.7152 14.638 19.8472 14.474C19.9792 14.3101 20.0727 14.1186 20.121 13.9137C20.1693 13.7088 20.171 13.4957 20.126 13.29L20.113 13.231C20.025 12.8275 20.426 12.5305 20.715 12.8255C21.2191 13.3389 21.5011 14.03 21.5 14.7495C21.5001 15.2158 21.3816 15.6745 21.1557 16.0824C20.9298 16.4904 20.6038 16.8342 20.2085 17.0815C20.069 17.1685 20 17.3355 20 17.5V20C20 20.2652 19.8946 20.5196 19.7071 20.7071C19.5196 20.8946 19.2652 21 19 21H18.5C18.2348 21 17.9804 20.8946 17.7929 20.7071C17.6054 20.5196 17.5 20.2652 17.5 20V17.5C17.5 17.3355 17.431 17.1685 17.2915 17.0815C16.8962 16.8342 16.5702 16.4904 16.3443 16.0824C16.1184 15.6745 15.9999 15.2158 16 14.7495C16 14.0005 16.2995 13.3205 16.785 12.825Z" fill="#FFEBCD"/>
</svg>
