<svg width="17" height="17" viewBox="0 0 17 17" fill="none" xmlns="http://www.w3.org/2000/svg">
<path d="M1.64258 8.30949C1.64258 11.9912 4.62758 14.9762 8.30924 14.9762C11.9909 14.9762 14.9759 11.9912 14.9759 8.30949C14.9759 4.62782 11.9909 1.64282 8.30924 1.64282C4.62758 1.64282 1.64258 4.62782 1.64258 8.30949ZM9.00369 4.97616C9.00369 5.16033 8.93052 5.33697 8.80029 5.4672C8.67006 5.59744 8.49342 5.6706 8.30924 5.6706C8.12507 5.6706 7.94843 5.59744 7.8182 5.4672C7.68796 5.33697 7.6148 5.16033 7.6148 4.97616C7.6148 4.79198 7.68796 4.61534 7.8182 4.48511C7.94843 4.35488 8.12507 4.28171 8.30924 4.28171C8.49342 4.28171 8.67006 4.35488 8.80029 4.48511C8.93052 4.61534 9.00369 4.79198 9.00369 4.97616ZM8.30924 6.64282C8.45659 6.64282 8.59789 6.70135 8.70208 6.80554C8.80627 6.90973 8.8648 7.05103 8.8648 7.19838V11.6428C8.8648 11.7902 8.80627 11.9315 8.70208 12.0357C8.59789 12.1398 8.45659 12.1984 8.30924 12.1984C8.1619 12.1984 8.02059 12.1398 7.91641 12.0357C7.81222 11.9315 7.75369 11.7902 7.75369 11.6428V7.19838C7.75369 7.05103 7.81222 6.90973 7.91641 6.80554C8.02059 6.70135 8.1619 6.64282 8.30924 6.64282Z" fill="#FFEBCD"/>
</svg>
