<svg width="25" height="24" viewBox="0 0 25 24" fill="none" xmlns="http://www.w3.org/2000/svg">
<path d="M17.75 8.39719V7.875C17.75 5.52375 14.2034 3.75 9.5 3.75C4.79656 3.75 1.25 5.52375 1.25 7.875V11.625C1.25 13.5834 3.71094 15.1397 7.25 15.6056V16.125C7.25 18.4762 10.7966 20.25 15.5 20.25C20.2034 20.25 23.75 18.4762 23.75 16.125V12.375C23.75 10.4344 21.3669 8.87625 17.75 8.39719ZM5.75 13.7691C3.91344 13.2562 2.75 12.4116 2.75 11.625V10.3059C3.515 10.8478 4.53969 11.2847 5.75 11.5781V13.7691ZM13.25 11.5781C14.4603 11.2847 15.485 10.8478 16.25 10.3059V11.625C16.25 12.4116 15.0866 13.2562 13.25 13.7691V11.5781ZM11.75 18.2691C9.91344 17.7562 8.75 16.9116 8.75 16.125V15.7341C8.99656 15.7434 9.24594 15.75 9.5 15.75C9.86375 15.75 10.2191 15.7378 10.5678 15.7172C10.9552 15.8559 11.3499 15.9735 11.75 16.0697V18.2691ZM11.75 14.0859C11.0051 14.196 10.253 14.2508 9.5 14.25C8.74698 14.2508 7.99493 14.196 7.25 14.0859V11.8556C7.99605 11.9528 8.74765 12.001 9.5 12C10.2523 12.001 11.004 11.9528 11.75 11.8556V14.0859ZM17.75 18.5859C16.258 18.8046 14.742 18.8046 13.25 18.5859V16.35C13.9958 16.4503 14.7475 16.5004 15.5 16.5C16.2523 16.501 17.004 16.4528 17.75 16.3556V18.5859ZM22.25 16.125C22.25 16.9116 21.0866 17.7562 19.25 18.2691V16.0781C20.4603 15.7847 21.485 15.3478 22.25 14.8059V16.125Z" fill="#FFEBCD"/>
</svg>
