<svg
    xmlns="http://www.w3.org/2000/svg"
    width="25px"
    height="25px"
    viewBox="0 0 25 25"
    version="1.1"
>
    <g id="surface1">
        <path
            stroke="none"
            fillRule="nonzero"
            fill="black"
            fillOpacity="1"
            d="M 12.496094 1.011719 C 12.492188 1.015625 12.347656 1.023438 12.175781 1.03125 C 11.714844 1.054688 10.984375 1.148438 10.53125 1.246094 C 10.339844 1.289062 10.046875 1.355469 9.941406 1.382812 C 9.492188 1.492188 8.632812 1.78125 8.273438 1.941406 C 7.976562 2.074219 7.65625 2.234375 7.445312 2.347656 C 7.320312 2.421875 7.199219 2.488281 7.171875 2.5 C 7.148438 2.511719 7.101562 2.542969 7.0625 2.566406 C 7.027344 2.589844 6.960938 2.632812 6.917969 2.65625 C 6.875 2.683594 6.734375 2.777344 6.605469 2.859375 C 6.375 3.007812 6.320312 3.050781 5.800781 3.433594 C 5.136719 3.921875 4.222656 4.824219 3.699219 5.507812 C 3.097656 6.289062 2.675781 6.953125 2.398438 7.535156 C 1.882812 8.628906 1.53125 9.71875 1.34375 10.808594 C 1.230469 11.460938 1.195312 11.832031 1.183594 12.539062 C 1.171875 13.410156 1.207031 13.921875 1.335938 14.679688 C 1.558594 15.960938 2.078125 17.40625 2.714844 18.496094 C 3.53125 19.890625 4.5625 21.066406 5.78125 21.996094 C 6.664062 22.667969 7.652344 23.222656 8.597656 23.585938 C 9.132812 23.789062 10.003906 24.03125 10.597656 24.144531 C 10.621094 24.148438 10.667969 24.160156 10.699219 24.164062 C 10.730469 24.171875 10.789062 24.179688 10.832031 24.1875 C 10.875 24.195312 10.925781 24.207031 10.941406 24.210938 C 10.960938 24.214844 11.019531 24.226562 11.078125 24.234375 C 11.132812 24.238281 11.191406 24.25 11.210938 24.253906 C 11.226562 24.257812 11.300781 24.269531 11.367188 24.277344 C 11.4375 24.285156 11.515625 24.296875 11.546875 24.300781 C 11.574219 24.304688 11.660156 24.316406 11.734375 24.320312 C 11.804688 24.328125 11.925781 24.335938 12 24.347656 C 12.589844 24.402344 13.464844 24.402344 14.03125 24.339844 C 14.320312 24.3125 14.46875 24.296875 14.570312 24.277344 C 14.601562 24.273438 14.667969 24.261719 14.722656 24.253906 C 14.960938 24.222656 15.558594 24.097656 15.871094 24.011719 C 15.980469 23.980469 16.09375 23.949219 16.117188 23.945312 C 16.183594 23.929688 16.824219 23.710938 17.015625 23.632812 C 17.707031 23.375 18.644531 22.878906 19.394531 22.386719 C 20.476562 21.675781 21.480469 20.730469 22.230469 19.71875 C 23.113281 18.523438 23.820312 17.058594 24.152344 15.734375 C 24.46875 14.464844 24.59375 12.886719 24.476562 11.699219 C 24.316406 10.121094 23.996094 8.925781 23.398438 7.683594 C 22.34375 5.484375 20.746094 3.730469 18.738281 2.578125 C 18.410156 2.390625 17.714844 2.054688 17.363281 1.914062 C 16.429688 1.542969 15.238281 1.226562 14.347656 1.113281 C 14.015625 1.070312 14.011719 1.070312 13.578125 1.035156 C 13.410156 1.019531 12.507812 1 12.496094 1.011719 Z M 13.804688 1.679688 C 14.128906 1.710938 14.304688 1.734375 14.679688 1.792969 C 14.722656 1.800781 14.792969 1.8125 14.835938 1.824219 C 14.878906 1.835938 14.949219 1.851562 14.996094 1.855469 C 15.0625 1.867188 15.515625 1.980469 15.703125 2.035156 C 15.871094 2.082031 16.160156 2.167969 16.257812 2.203125 C 16.746094 2.367188 16.910156 2.429688 17.089844 2.511719 C 17.140625 2.535156 17.222656 2.570312 17.269531 2.589844 C 17.488281 2.679688 17.558594 2.714844 17.914062 2.890625 C 19.296875 3.585938 20.609375 4.652344 21.488281 5.78125 C 21.695312 6.050781 22.097656 6.621094 22.269531 6.894531 C 22.847656 7.820312 23.339844 9 23.617188 10.140625 C 24.074219 12.003906 24.019531 14.015625 23.464844 15.8125 C 22.945312 17.496094 22.015625 19.109375 20.851562 20.351562 C 20.601562 20.617188 20.558594 20.660156 20.164062 21.015625 C 19.605469 21.519531 19.078125 21.878906 18.070312 22.445312 C 17.28125 22.890625 16.429688 23.207031 15.300781 23.472656 C 14.304688 23.710938 13.046875 23.804688 12.019531 23.722656 C 11.773438 23.703125 11.550781 23.683594 11.523438 23.675781 C 11.496094 23.671875 11.414062 23.660156 11.34375 23.65625 C 11.277344 23.644531 11.207031 23.636719 11.1875 23.632812 C 11.171875 23.628906 11.113281 23.617188 11.058594 23.609375 C 10.695312 23.558594 9.828125 23.332031 9.269531 23.140625 C 8.226562 22.785156 7.363281 22.34375 6.417969 21.6875 C 5.765625 21.230469 4.96875 20.5 4.425781 19.851562 C 3.03125 18.191406 2.082031 15.910156 1.855469 13.679688 C 1.839844 13.5 1.820312 13.074219 1.808594 12.734375 C 1.792969 11.925781 1.832031 11.546875 2.046875 10.507812 C 2.261719 9.453125 2.496094 8.777344 2.96875 7.816406 C 3.613281 6.511719 4.398438 5.460938 5.460938 4.492188 C 6.144531 3.863281 7.09375 3.226562 7.984375 2.796875 C 9.0625 2.277344 10.316406 1.902344 11.574219 1.734375 C 12.222656 1.644531 13.179688 1.625 13.804688 1.679688 Z M 13.804688 1.679688 "
        />
        <path
            stroke="none"
            fillRule="nonzero"
            fill="black"
            fillOpacity="1"
            d="M 11.054688 5.285156 C 9.882812 5.445312 8.640625 6.019531 7.871094 6.757812 C 7.683594 6.9375 7.5625 7.113281 7.5625 7.207031 C 7.5625 7.359375 7.617188 7.484375 7.78125 7.703125 C 8.097656 8.125 8.222656 8.359375 8.457031 8.941406 C 8.5625 9.195312 8.679688 9.546875 8.667969 9.554688 C 8.664062 9.554688 8.566406 9.613281 8.445312 9.6875 C 7.875 10.023438 7.667969 10.296875 7.847656 10.476562 C 7.980469 10.609375 8.121094 10.566406 8.675781 10.234375 C 9.8125 9.546875 11.476562 8.890625 13.164062 8.464844 C 13.699219 8.328125 13.726562 8.320312 13.816406 8.234375 C 14.015625 8.046875 13.882812 7.785156 13.589844 7.785156 C 13.523438 7.785156 13.292969 7.828125 13.078125 7.882812 C 12.777344 7.957031 12.683594 7.972656 12.671875 7.953125 C 12.640625 7.894531 12.5 7.296875 12.46875 7.074219 C 12.414062 6.6875 12.382812 6.210938 12.394531 5.917969 C 12.410156 5.609375 12.394531 5.535156 12.289062 5.394531 C 12.183594 5.253906 12.152344 5.25 11.695312 5.25 C 11.46875 5.253906 11.183594 5.265625 11.054688 5.285156 Z M 11.816406 6.265625 C 11.835938 6.917969 11.910156 7.421875 12.0625 7.960938 C 12.101562 8.089844 12.109375 8.144531 12.09375 8.152344 C 11.113281 8.457031 10.164062 8.816406 9.546875 9.109375 C 9.324219 9.214844 9.203125 9.265625 9.195312 9.246094 C 9.191406 9.230469 9.136719 9.082031 9.078125 8.914062 C 8.84375 8.289062 8.625 7.859375 8.332031 7.464844 L 8.183594 7.265625 L 8.234375 7.210938 C 8.335938 7.101562 8.605469 6.894531 8.875 6.71875 C 9.699219 6.179688 10.570312 5.894531 11.609375 5.820312 C 11.664062 5.816406 11.730469 5.8125 11.757812 5.808594 C 11.804688 5.804688 11.804688 5.8125 11.816406 6.265625 Z M 11.816406 6.265625 "
        />
        <path
            stroke="none"
            fillRule="nonzero"
            fill="black"
            fillOpacity="1"
            d="M 19.269531 7.070312 C 19.230469 7.09375 19.171875 7.167969 19.136719 7.230469 C 19.035156 7.414062 19.015625 7.417969 18.875 7.269531 C 18.726562 7.113281 18.621094 7.074219 18.480469 7.117188 C 18.28125 7.175781 18.175781 7.375 18.207031 7.605469 C 18.238281 7.828125 18.230469 7.875 18.132812 8.027344 C 18.058594 8.136719 18.039062 8.191406 18.039062 8.261719 C 18.039062 8.371094 18.070312 8.414062 18.207031 8.503906 C 18.371094 8.613281 18.394531 8.664062 18.421875 8.898438 C 18.445312 9.128906 18.425781 10.539062 18.398438 10.75 C 18.378906 10.878906 18.375 10.886719 18.21875 11.03125 C 18.089844 11.148438 18.054688 11.191406 18.046875 11.257812 C 18.027344 11.371094 18.089844 11.484375 18.226562 11.585938 C 18.417969 11.726562 18.421875 11.738281 18.4375 11.992188 C 18.449219 12.191406 18.457031 12.21875 18.503906 12.257812 C 18.632812 12.363281 18.746094 12.285156 18.925781 11.976562 C 19.113281 11.660156 19.160156 11.640625 19.152344 11.886719 C 19.148438 12.0625 19.191406 12.121094 19.316406 12.121094 C 19.414062 12.121094 19.515625 12.03125 19.664062 11.824219 C 19.765625 11.679688 19.785156 11.664062 19.929688 11.609375 C 20.378906 11.433594 20.6875 11.003906 20.683594 10.550781 C 20.683594 10.382812 20.628906 10.152344 20.539062 9.964844 C 20.441406 9.757812 20.4375 9.765625 20.695312 9.496094 C 21.070312 9.097656 21.230469 8.597656 21.109375 8.199219 C 20.980469 7.792969 20.5625 7.496094 20.027344 7.441406 C 19.859375 7.421875 19.878906 7.433594 19.632812 7.15625 C 19.550781 7.0625 19.523438 7.042969 19.441406 7.035156 C 19.367188 7.027344 19.320312 7.039062 19.269531 7.070312 Z M 19.972656 8.128906 C 20.109375 8.175781 20.1875 8.242188 20.253906 8.359375 C 20.3125 8.449219 20.316406 8.484375 20.316406 8.652344 C 20.316406 8.878906 20.289062 8.941406 20.105469 9.121094 C 19.832031 9.390625 19.40625 9.441406 19.195312 9.230469 C 19.089844 9.125 19.050781 8.988281 19.050781 8.707031 C 19.050781 8.523438 19.058594 8.46875 19.097656 8.394531 C 19.148438 8.292969 19.308594 8.179688 19.460938 8.132812 C 19.59375 8.089844 19.855469 8.085938 19.972656 8.128906 Z M 19.816406 10.066406 C 19.949219 10.136719 20.023438 10.226562 20.074219 10.367188 C 20.117188 10.488281 20.101562 10.601562 20.023438 10.75 C 19.902344 10.972656 19.6875 11.089844 19.429688 11.070312 C 19.257812 11.0625 19.136719 11 19.050781 10.878906 C 18.988281 10.789062 18.984375 10.773438 18.984375 10.566406 C 18.984375 10.382812 18.988281 10.339844 19.039062 10.246094 C 19.136719 10.058594 19.289062 9.980469 19.542969 9.992188 C 19.660156 10 19.722656 10.015625 19.816406 10.066406 Z M 19.816406 10.066406 "
        />
        <path
            stroke="none"
            fillRule="nonzero"
            fill="black"
            fillOpacity="1"
            d="M 15.878906 8.175781 C 15.839844 8.179688 15.664062 8.195312 15.492188 8.207031 C 14.125 8.3125 12.8125 8.609375 11.445312 9.121094 C 10.484375 9.476562 9.746094 9.800781 8.964844 10.199219 C 8.433594 10.472656 8.164062 10.644531 8.070312 10.773438 C 7.976562 10.894531 7.863281 11.144531 7.816406 11.320312 C 7.765625 11.515625 7.75 11.960938 7.78125 12.191406 C 7.832031 12.53125 7.976562 12.890625 8.164062 13.121094 L 8.226562 13.199219 L 8.089844 13.410156 C 7.824219 13.835938 7.574219 14.382812 7.449219 14.832031 C 7.371094 15.109375 7.296875 15.527344 7.296875 15.683594 C 7.296875 15.742188 7.289062 15.792969 7.28125 15.792969 C 7.269531 15.792969 7.21875 15.742188 7.167969 15.683594 C 7.042969 15.539062 6.742188 15.3125 6.550781 15.21875 C 6.3125 15.105469 6.121094 15.121094 5.988281 15.261719 C 5.757812 15.507812 5.742188 16.070312 5.953125 16.667969 C 6.070312 17.011719 6.078125 16.980469 5.890625 17.191406 C 5.472656 17.683594 5.261719 18.164062 5.234375 18.707031 L 5.226562 18.9375 L 5.296875 19.0625 C 5.425781 19.273438 5.609375 19.324219 5.9375 19.25 C 6.359375 19.148438 6.863281 18.777344 7.203125 18.320312 C 7.300781 18.1875 7.359375 18.15625 7.429688 18.195312 C 7.496094 18.230469 7.53125 18.320312 7.574219 18.582031 C 7.617188 18.863281 7.710938 19.253906 7.796875 19.523438 C 7.859375 19.722656 7.941406 19.835938 8.050781 19.882812 C 8.085938 19.898438 8.117188 19.921875 8.117188 19.929688 C 8.117188 19.957031 8.269531 19.957031 8.304688 19.929688 C 8.453125 19.8125 8.515625 19.738281 8.628906 19.570312 C 8.75 19.390625 8.984375 18.933594 8.984375 18.882812 C 8.984375 18.835938 9.035156 18.839844 9.113281 18.890625 C 9.363281 19.046875 9.890625 19.289062 10.277344 19.421875 C 10.839844 19.613281 11.542969 19.75 11.96875 19.75 C 12.058594 19.75 12.121094 19.761719 12.121094 19.773438 C 12.121094 19.785156 12.191406 19.796875 12.289062 19.796875 C 12.382812 19.796875 12.457031 19.785156 12.457031 19.773438 C 12.457031 19.761719 12.523438 19.75 12.609375 19.75 C 12.695312 19.75 12.882812 19.734375 13.027344 19.71875 C 13.929688 19.601562 14.679688 19.300781 15.425781 18.757812 C 15.480469 18.714844 15.542969 18.707031 15.824219 18.683594 C 16.183594 18.65625 16.339844 18.671875 16.597656 18.75 C 16.773438 18.804688 16.851562 18.804688 16.941406 18.75 C 17.109375 18.648438 17.128906 18.511719 17.054688 17.992188 C 16.984375 17.558594 16.976562 17.464844 16.949219 17.027344 C 16.929688 16.75 16.933594 16.683594 16.960938 16.644531 C 16.980469 16.613281 17.058594 16.574219 17.214844 16.527344 C 17.871094 16.324219 18.320312 15.9375 18.632812 15.3125 C 18.859375 14.863281 18.964844 14.277344 18.910156 13.800781 C 18.890625 13.628906 18.890625 13.617188 18.953125 13.511719 C 19.027344 13.371094 19.144531 13.003906 19.164062 12.851562 C 19.171875 12.753906 19.164062 12.714844 19.125 12.632812 C 19.09375 12.578125 19.042969 12.511719 19 12.488281 C 18.902344 12.421875 18.554688 12.355469 18.300781 12.355469 C 18.035156 12.355469 17.988281 12.382812 17.90625 12.585938 C 17.875 12.660156 17.828125 12.746094 17.800781 12.769531 C 17.75 12.816406 17.746094 12.820312 17.546875 12.796875 C 17.433594 12.78125 17.339844 12.765625 17.335938 12.761719 C 17.332031 12.757812 17.378906 12.601562 17.441406 12.414062 C 17.652344 11.757812 17.738281 11.335938 17.828125 10.585938 C 17.945312 9.59375 17.804688 8.722656 17.464844 8.359375 C 17.285156 8.167969 17.265625 8.164062 16.5625 8.167969 C 16.230469 8.167969 15.921875 8.175781 15.878906 8.175781 Z M 17.046875 8.792969 C 17.140625 8.882812 17.199219 9.070312 17.25 9.414062 C 17.335938 10.007812 17.21875 11.105469 16.980469 11.914062 C 16.933594 12.070312 16.894531 12.203125 16.894531 12.203125 C 16.894531 12.207031 16.835938 12.183594 16.769531 12.148438 C 16.660156 12.09375 16.625 12.089844 16.425781 12.089844 C 16.226562 12.089844 16.191406 12.09375 16.074219 12.152344 C 15.933594 12.222656 15.871094 12.296875 15.890625 12.367188 C 15.90625 12.417969 16 12.425781 16.1875 12.390625 C 16.320312 12.363281 16.503906 12.390625 16.664062 12.460938 C 16.828125 12.53125 16.789062 12.621094 16.589844 12.640625 C 16.523438 12.648438 16.316406 12.671875 16.125 12.6875 C 15.4375 12.757812 14.832031 12.867188 14.320312 13.015625 C 13.941406 13.121094 12.921875 13.484375 12.304688 13.726562 C 11.601562 14 11.472656 14.042969 11.265625 14.042969 C 11.113281 14.046875 11.070312 14.035156 10.957031 13.980469 C 10.8125 13.910156 10.566406 13.6875 10.441406 13.519531 C 10.316406 13.351562 10.214844 13.304688 9.871094 13.253906 C 9.324219 13.175781 8.964844 13.058594 8.761719 12.898438 C 8.640625 12.800781 8.488281 12.566406 8.429688 12.390625 C 8.320312 12.054688 8.320312 11.632812 8.429688 11.335938 C 8.519531 11.09375 8.59375 11.039062 9.453125 10.613281 C 10.859375 9.910156 12.480469 9.320312 13.742188 9.050781 C 14.574219 8.875 15.613281 8.757812 16.535156 8.734375 C 16.660156 8.730469 16.808594 8.726562 16.867188 8.722656 C 16.960938 8.71875 16.984375 8.726562 17.046875 8.792969 Z M 17.347656 13.324219 C 17.613281 13.386719 17.621094 13.398438 17.476562 13.453125 C 17.261719 13.53125 17 13.574219 16.800781 13.5625 C 16.695312 13.554688 16.609375 13.546875 16.605469 13.539062 C 16.597656 13.535156 16.625 13.46875 16.664062 13.390625 L 16.738281 13.25 L 16.949219 13.265625 C 17.0625 13.273438 17.246094 13.296875 17.347656 13.324219 Z M 16.085938 13.304688 C 16.074219 13.320312 16.039062 13.40625 16.015625 13.496094 L 15.960938 13.660156 L 16.011719 13.828125 C 16.214844 14.5 16.300781 14.941406 16.320312 15.425781 C 16.359375 16.480469 16.035156 17.351562 15.359375 18.027344 C 14.761719 18.625 14.046875 18.964844 13.050781 19.140625 L 12.964844 19.152344 L 13.066406 19.027344 C 13.617188 18.351562 13.816406 17.730469 13.785156 16.761719 C 13.773438 16.492188 13.757812 16.289062 13.726562 16.148438 C 13.632812 15.703125 13.453125 15.246094 13.25 14.925781 C 13.132812 14.75 12.863281 14.457031 12.695312 14.332031 L 12.585938 14.246094 L 12.660156 14.214844 C 12.796875 14.160156 13.574219 13.875 13.964844 13.742188 C 14.59375 13.527344 15.128906 13.402344 15.792969 13.3125 C 16.101562 13.273438 16.113281 13.273438 16.085938 13.304688 Z M 8.890625 13.625 C 9.089844 13.699219 9.425781 13.78125 9.699219 13.820312 L 9.929688 13.855469 L 10.121094 14.050781 C 10.226562 14.160156 10.355469 14.285156 10.410156 14.328125 C 10.546875 14.4375 10.773438 14.558594 10.917969 14.601562 C 11.164062 14.671875 11.585938 14.628906 11.921875 14.503906 L 12.039062 14.460938 L 12.207031 14.601562 C 12.558594 14.890625 12.738281 15.121094 12.925781 15.511719 C 13.132812 15.949219 13.21875 16.359375 13.21875 16.894531 C 13.214844 17.859375 12.96875 18.386719 12.199219 19.054688 C 12.023438 19.207031 12.078125 19.195312 11.644531 19.148438 C 11.273438 19.109375 10.5 18.929688 10.5 18.882812 C 10.5 18.875 10.550781 18.859375 10.617188 18.855469 C 10.679688 18.84375 10.8125 18.820312 10.910156 18.792969 C 11.300781 18.695312 11.445312 18.570312 11.445312 18.328125 C 11.445312 18.21875 11.429688 18.167969 11.339844 18.003906 C 11.285156 17.894531 11.179688 17.6875 11.105469 17.546875 C 10.914062 17.175781 10.761719 16.695312 10.640625 16.082031 C 10.488281 15.300781 10.445312 15.214844 10.25 15.242188 C 10.011719 15.273438 9.957031 15.523438 10.054688 16.125 C 10.152344 16.734375 10.328125 17.300781 10.570312 17.792969 C 10.742188 18.148438 10.746094 18.179688 10.605469 18.25 C 10.492188 18.308594 9.929688 18.324219 9.640625 18.273438 C 9.164062 18.191406 8.863281 18.046875 8.59375 17.765625 C 8.359375 17.523438 8.230469 17.335938 8.097656 17.058594 C 7.78125 16.394531 7.769531 15.675781 8.0625 14.796875 C 8.230469 14.296875 8.640625 13.523438 8.71875 13.558594 C 8.738281 13.566406 8.816406 13.597656 8.890625 13.625 Z M 18.277344 13.824219 C 18.332031 13.882812 18.335938 13.882812 18.320312 14.175781 C 18.308594 14.527344 18.257812 14.738281 18.117188 15.023438 C 17.929688 15.414062 17.664062 15.695312 17.335938 15.851562 C 17.0625 15.980469 17.027344 15.984375 16.964844 15.921875 C 16.914062 15.871094 16.910156 15.851562 16.898438 15.503906 C 16.878906 15.039062 16.800781 14.472656 16.710938 14.183594 C 16.703125 14.148438 16.722656 14.144531 16.917969 14.144531 C 17.269531 14.144531 17.703125 14.027344 18.019531 13.847656 C 18.097656 13.804688 18.175781 13.769531 18.191406 13.769531 C 18.203125 13.769531 18.246094 13.792969 18.277344 13.824219 Z M 6.710938 16.0625 C 6.855469 16.199219 7.011719 16.441406 7.203125 16.832031 C 7.441406 17.332031 7.441406 17.445312 7.199219 17.515625 C 7.039062 17.5625 6.988281 17.605469 6.835938 17.824219 C 6.636719 18.105469 6.46875 18.289062 6.273438 18.4375 C 6.0625 18.59375 6.003906 18.613281 5.925781 18.5625 C 5.855469 18.515625 5.855469 18.417969 5.925781 18.226562 C 6.023438 17.972656 6.15625 17.78125 6.507812 17.378906 C 6.59375 17.28125 6.671875 17.171875 6.679688 17.140625 C 6.703125 17.058594 6.660156 16.867188 6.59375 16.710938 C 6.523438 16.558594 6.449219 16.257812 6.449219 16.132812 C 6.449219 15.949219 6.554688 15.921875 6.710938 16.0625 Z M 16.433594 17.890625 C 16.4375 18.015625 16.359375 18.082031 16.214844 18.082031 C 16.148438 18.082031 16.101562 18.074219 16.109375 18.066406 C 16.113281 18.054688 16.179688 17.953125 16.257812 17.832031 L 16.402344 17.613281 L 16.417969 17.710938 C 16.425781 17.761719 16.433594 17.84375 16.433594 17.890625 Z M 8.46875 18.441406 L 8.589844 18.542969 L 8.511719 18.699219 C 8.417969 18.882812 8.363281 18.925781 8.285156 18.875 C 8.257812 18.855469 8.222656 18.808594 8.210938 18.769531 C 8.183594 18.691406 8.097656 18.191406 8.097656 18.132812 C 8.097656 18.113281 8.148438 18.148438 8.226562 18.21875 C 8.292969 18.285156 8.40625 18.386719 8.46875 18.441406 Z M 8.46875 18.441406 "
        />
        <path
            stroke="none"
            fillRule="nonzero"
            fill="black"
            fillOpacity="1"
            d="M 14.707031 12.222656 C 14.554688 12.265625 14.316406 12.382812 14.027344 12.570312 C 13.503906 12.902344 13.230469 13.003906 12.886719 12.980469 C 12.71875 12.96875 12.679688 12.972656 12.671875 13 C 12.636719 13.089844 12.863281 13.191406 13.101562 13.191406 C 13.335938 13.191406 13.578125 13.101562 13.980469 12.875 C 14.558594 12.550781 14.71875 12.492188 15.023438 12.5 C 15.320312 12.507812 15.371094 12.507812 15.40625 12.476562 C 15.476562 12.417969 15.417969 12.324219 15.261719 12.246094 C 15.15625 12.191406 14.859375 12.179688 14.707031 12.222656 Z M 14.707031 12.222656 "
        />
        <path
            stroke="none"
            fillRule="nonzero"
            fill="black"
            fillOpacity="1"
            d="M 10.390625 12.261719 C 10.066406 12.421875 10.070312 12.886719 10.398438 13.035156 C 10.617188 13.136719 10.863281 13.042969 10.96875 12.824219 C 11.136719 12.457031 10.75 12.082031 10.390625 12.261719 Z M 10.390625 12.261719 "
        />
    </g>
</svg>