<svg xmlns="http://www.w3.org/2000/svg"
     width="25px"
     height="25px"
     viewBox="0 0 25 25"
     version="1.1">
    <g id="surface1">
    <path
        stroke="none"
        fillRule="nonzero"
        fill="black"
        fillOpacity="1"
        d="M 12.496094 1.011719 C 12.492188 1.015625 12.347656 1.023438 12.175781 1.03125 C 11.714844 1.054688 10.984375 1.148438 10.53125 1.246094 C 10.339844 1.289062 10.046875 1.355469 9.941406 1.382812 C 9.492188 1.492188 8.632812 1.78125 8.273438 1.941406 C 7.976562 2.074219 7.65625 2.234375 7.445312 2.347656 C 7.320312 2.421875 7.199219 2.488281 7.171875 2.5 C 7.148438 2.511719 7.101562 2.542969 7.0625 2.566406 C 7.027344 2.589844 6.960938 2.632812 6.917969 2.65625 C 6.875 2.683594 6.734375 2.777344 6.605469 2.859375 C 6.375 3.007812 6.320312 3.050781 5.800781 3.433594 C 5.136719 3.921875 4.222656 4.824219 3.699219 5.507812 C 3.097656 6.289062 2.675781 6.953125 2.398438 7.535156 C 1.78125 8.851562 1.40625 10.121094 1.242188 11.5 C 1.183594 11.976562 1.164062 13.058594 1.199219 13.570312 C 1.304688 15.035156 1.707031 16.484375 2.394531 17.894531 C 2.769531 18.667969 3.417969 19.636719 4.058594 20.378906 C 4.367188 20.738281 4.972656 21.339844 5.304688 21.613281 C 6.335938 22.476562 7.476562 23.160156 8.597656 23.585938 C 9.132812 23.789062 10.003906 24.03125 10.597656 24.144531 C 10.621094 24.148438 10.667969 24.160156 10.699219 24.164062 C 10.730469 24.171875 10.789062 24.179688 10.832031 24.1875 C 10.875 24.195312 10.925781 24.207031 10.941406 24.210938 C 10.960938 24.214844 11.019531 24.226562 11.078125 24.234375 C 11.132812 24.238281 11.191406 24.25 11.210938 24.253906 C 11.226562 24.257812 11.300781 24.269531 11.367188 24.277344 C 11.4375 24.285156 11.515625 24.296875 11.546875 24.300781 C 11.574219 24.304688 11.660156 24.316406 11.734375 24.320312 C 11.804688 24.328125 11.925781 24.335938 12 24.347656 C 12.589844 24.402344 13.464844 24.402344 14.03125 24.339844 C 14.320312 24.3125 14.46875 24.296875 14.570312 24.277344 C 14.601562 24.273438 14.667969 24.261719 14.722656 24.253906 C 14.960938 24.222656 15.558594 24.097656 15.871094 24.011719 C 15.980469 23.980469 16.09375 23.949219 16.117188 23.945312 C 16.183594 23.929688 16.824219 23.710938 17.015625 23.632812 C 17.300781 23.527344 17.785156 23.304688 18.160156 23.113281 C 20.378906 21.960938 22.027344 20.363281 23.132812 18.292969 C 23.980469 16.707031 24.347656 15.402344 24.496094 13.46875 C 24.585938 12.351562 24.441406 10.875 24.128906 9.675781 C 23.59375 7.597656 22.332031 5.5 20.746094 4.050781 C 19.410156 2.832031 17.953125 2.023438 16.179688 1.511719 C 15.488281 1.3125 14.878906 1.179688 14.347656 1.113281 C 14.015625 1.070312 14.011719 1.070312 13.578125 1.035156 C 13.410156 1.019531 12.507812 1 12.496094 1.011719 Z M 13.804688 1.679688 C 14.128906 1.710938 14.304688 1.734375 14.679688 1.792969 C 14.722656 1.800781 14.792969 1.8125 14.835938 1.824219 C 14.878906 1.835938 14.949219 1.851562 14.996094 1.855469 C 15.0625 1.867188 15.515625 1.980469 15.703125 2.035156 C 15.871094 2.082031 16.160156 2.167969 16.257812 2.203125 C 16.746094 2.367188 16.910156 2.429688 17.089844 2.511719 C 17.140625 2.535156 17.222656 2.570312 17.269531 2.589844 C 17.488281 2.679688 17.558594 2.714844 17.914062 2.890625 C 19.296875 3.585938 20.609375 4.652344 21.488281 5.78125 C 21.695312 6.050781 22.097656 6.621094 22.269531 6.894531 C 22.847656 7.820312 23.339844 9 23.617188 10.140625 C 24.1875 12.449219 23.964844 14.910156 23 17.070312 L 22.945312 17.179688 L 22.898438 17.046875 C 22.8125 16.820312 22.714844 16.648438 22.574219 16.476562 C 22.503906 16.382812 22.433594 16.277344 22.429688 16.242188 C 22.414062 16.175781 22.417969 16.175781 22.511719 16.160156 C 22.566406 16.152344 22.660156 16.117188 22.726562 16.089844 C 22.871094 16.019531 22.929688 15.925781 22.929688 15.769531 C 22.929688 15.667969 22.921875 15.644531 22.859375 15.582031 C 22.816406 15.539062 22.746094 15.496094 22.699219 15.484375 C 22.527344 15.441406 22.003906 15.324219 21.523438 15.226562 C 20.757812 15.066406 20.546875 14.992188 20.445312 14.84375 C 20.332031 14.671875 20.101562 14.410156 19.953125 14.285156 C 19.675781 14.050781 19.269531 13.816406 18.867188 13.65625 C 18.660156 13.570312 18.648438 13.5625 18.496094 13.335938 C 18.3125 13.066406 17.925781 12.65625 17.578125 12.363281 C 17.511719 12.304688 17.507812 12.300781 17.53125 12.21875 C 17.542969 12.171875 17.550781 12.070312 17.542969 11.988281 C 17.535156 11.839844 17.496094 11.742188 17.398438 11.613281 C 17.351562 11.550781 17.34375 11.515625 17.335938 11.324219 C 17.316406 10.660156 16.964844 10.148438 16.460938 10.035156 C 16.320312 10 16.097656 10.003906 15.925781 10.039062 C 15.84375 10.058594 15.78125 10.070312 15.777344 10.066406 C 15.777344 10.066406 15.746094 10 15.710938 9.921875 C 15.53125 9.53125 15.125 9.351562 14.425781 9.355469 L 14.089844 9.355469 L 13.789062 9.480469 C 12.816406 9.882812 11.441406 10.457031 11.371094 10.496094 C 11.171875 10.597656 11.015625 10.855469 10.992188 11.109375 C 10.972656 11.335938 11.070312 11.710938 11.199219 11.894531 L 11.253906 11.976562 L 11.183594 12.015625 C 11.113281 12.058594 11.109375 12.058594 10.996094 12.019531 C 10.910156 11.992188 10.871094 11.964844 10.863281 11.933594 C 10.859375 11.910156 10.839844 11.804688 10.820312 11.699219 C 10.726562 11.199219 10.601562 10.820312 10.414062 10.429688 L 10.269531 10.132812 L 10.261719 9.742188 C 10.257812 9.328125 10.226562 9.070312 10.132812 8.734375 C 10.042969 8.40625 10.011719 8.375 9.550781 8.144531 C 9.019531 7.878906 8.589844 7.566406 8.203125 7.167969 C 7.691406 6.636719 7.367188 6.101562 7.121094 5.378906 C 7.058594 5.199219 6.996094 5.023438 6.976562 4.988281 C 6.898438 4.835938 6.710938 4.796875 6.347656 4.855469 C 6 4.910156 5.84375 4.917969 5.632812 4.894531 C 5.410156 4.863281 5.160156 4.804688 5.160156 4.78125 C 5.160156 4.773438 5.199219 4.734375 5.246094 4.691406 C 5.289062 4.652344 5.390625 4.558594 5.472656 4.484375 C 6.113281 3.886719 7.097656 3.226562 7.984375 2.796875 C 9.0625 2.277344 10.316406 1.902344 11.574219 1.734375 C 12.222656 1.644531 13.179688 1.625 13.804688 1.679688 Z M 4.71875 5.53125 C 4.976562 6.304688 5.6875 7.375 6.390625 8.046875 C 6.894531 8.523438 7.972656 9.335938 8.480469 9.617188 C 8.730469 9.753906 8.960938 10.078125 9.011719 10.355469 C 9.023438 10.429688 9.035156 10.90625 9.042969 11.421875 C 9.046875 12.109375 9.058594 12.394531 9.078125 12.5 C 9.109375 12.636719 9.109375 12.652344 9.066406 12.710938 C 9.046875 12.75 8.976562 12.886719 8.910156 13.023438 C 8.730469 13.394531 8.078125 14.523438 8.039062 14.523438 C 8.039062 14.523438 8 14.449219 7.957031 14.363281 C 7.914062 14.273438 7.820312 14.09375 7.746094 13.964844 C 7.582031 13.683594 7.449219 13.386719 7.34375 13.078125 L 7.265625 12.84375 L 7.25 12.167969 C 7.226562 11.238281 7.171875 10.949219 6.972656 10.753906 C 6.804688 10.585938 6.742188 10.574219 6.195312 10.609375 C 5.660156 10.644531 5.289062 10.628906 4.683594 10.5625 C 3.964844 10.484375 3.699219 10.410156 2.765625 10.039062 C 2.488281 9.929688 2.378906 9.898438 2.292969 9.898438 C 2.230469 9.898438 2.179688 9.894531 2.179688 9.890625 C 2.179688 9.867188 2.296875 9.46875 2.363281 9.273438 C 2.640625 8.414062 3.191406 7.296875 3.710938 6.515625 C 4.011719 6.078125 4.617188 5.296875 4.644531 5.324219 C 4.648438 5.332031 4.683594 5.421875 4.71875 5.53125 Z M 6.617188 5.71875 C 7.078125 6.992188 7.96875 7.984375 9.226562 8.640625 L 9.574219 8.820312 L 9.589844 8.917969 C 9.59375 8.976562 9.621094 9.113281 9.640625 9.230469 C 9.660156 9.363281 9.675781 9.570312 9.675781 9.785156 C 9.675781 10.210938 9.695312 10.296875 9.886719 10.683594 C 10.03125 10.980469 10.136719 11.308594 10.230469 11.726562 C 10.296875 12.046875 10.300781 12.042969 10.148438 12.078125 C 10.078125 12.09375 9.933594 12.136719 9.832031 12.179688 C 9.730469 12.222656 9.640625 12.25 9.636719 12.246094 C 9.628906 12.238281 9.625 11.816406 9.621094 11.304688 C 9.617188 10.714844 9.605469 10.324219 9.589844 10.234375 C 9.503906 9.777344 9.144531 9.304688 8.679688 9.046875 C 8.21875 8.789062 7.148438 7.96875 6.734375 7.554688 C 6.367188 7.191406 6.035156 6.769531 5.75 6.304688 C 5.585938 6.039062 5.300781 5.476562 5.324219 5.457031 C 5.328125 5.449219 5.417969 5.457031 5.519531 5.46875 C 5.75 5.5 6.007812 5.5 6.261719 5.460938 C 6.371094 5.445312 6.472656 5.429688 6.484375 5.429688 C 6.5 5.429688 6.558594 5.558594 6.617188 5.71875 Z M 14.804688 9.953125 C 14.996094 9.988281 15.117188 10.042969 15.164062 10.117188 C 15.195312 10.164062 15.195312 10.164062 15.125 10.164062 C 15.007812 10.164062 14.792969 10.230469 14.613281 10.316406 C 14.390625 10.429688 14.1875 10.617188 14.019531 10.875 C 14.015625 10.878906 13.949219 10.855469 13.867188 10.824219 C 13.648438 10.734375 13.496094 10.726562 13.296875 10.789062 C 12.972656 10.886719 12.539062 11.148438 12.269531 11.410156 C 12.152344 11.527344 12.085938 11.574219 11.941406 11.628906 L 11.757812 11.707031 L 11.71875 11.652344 C 11.597656 11.496094 11.53125 11.101562 11.609375 11.023438 C 11.628906 11.007812 12.175781 10.773438 12.824219 10.503906 C 13.472656 10.234375 14.046875 9.992188 14.101562 9.964844 C 14.226562 9.910156 14.546875 9.90625 14.804688 9.953125 Z M 2.527344 10.578125 C 2.886719 10.726562 3.546875 10.957031 3.738281 11.003906 C 3.96875 11.0625 4.246094 11.109375 4.683594 11.15625 C 5.039062 11.199219 6.097656 11.214844 6.398438 11.183594 L 6.558594 11.164062 L 6.582031 11.238281 C 6.636719 11.402344 6.65625 11.65625 6.660156 12.210938 C 6.671875 12.890625 6.695312 13.042969 6.855469 13.460938 C 7 13.820312 7.074219 13.976562 7.222656 14.238281 C 7.433594 14.601562 7.46875 14.683594 7.507812 14.890625 L 7.542969 15.082031 L 7.34375 15.289062 C 7.128906 15.511719 7.101562 15.578125 7.15625 15.695312 C 7.21875 15.832031 7.4375 15.859375 7.648438 15.757812 C 7.84375 15.660156 8.296875 15.179688 8.59375 14.757812 C 8.769531 14.5 9.203125 13.746094 9.398438 13.355469 C 9.585938 12.988281 9.632812 12.929688 9.871094 12.804688 C 10.019531 12.726562 10.363281 12.601562 10.378906 12.621094 C 10.390625 12.632812 10.25 12.796875 10.21875 12.808594 C 10.210938 12.8125 10.164062 12.855469 10.117188 12.898438 C 10.058594 12.957031 10.023438 13.027344 9.980469 13.167969 C 9.75 13.894531 9.753906 14.476562 10 15.582031 C 10.007812 15.613281 9.988281 15.636719 9.9375 15.667969 C 9.898438 15.695312 9.722656 15.878906 9.542969 16.082031 C 9.050781 16.640625 8.839844 16.847656 8.691406 16.914062 C 8.421875 17.039062 7.667969 17.195312 7.304688 17.203125 L 7.152344 17.203125 L 7.046875 17.046875 C 6.796875 16.679688 6.601562 16.210938 6.550781 15.863281 C 6.535156 15.746094 6.515625 15.515625 6.503906 15.359375 C 6.5 15.199219 6.484375 14.925781 6.472656 14.746094 C 6.460938 14.570312 6.441406 14.167969 6.429688 13.855469 C 6.402344 13.277344 6.367188 12.929688 6.304688 12.71875 C 6.285156 12.65625 6.21875 12.503906 6.160156 12.378906 C 5.996094 12.046875 5.832031 11.902344 5.503906 11.789062 C 5.351562 11.734375 5.15625 11.710938 4.503906 11.664062 C 3.519531 11.59375 3.078125 11.519531 2.476562 11.324219 C 2.25 11.25 1.933594 11.109375 1.933594 11.078125 C 1.933594 11.054688 2.023438 10.609375 2.039062 10.558594 C 2.046875 10.523438 2.105469 10.507812 2.265625 10.503906 C 2.304688 10.5 2.421875 10.535156 2.527344 10.578125 Z M 16.429688 10.632812 C 16.546875 10.691406 16.648438 10.824219 16.703125 11 C 16.753906 11.175781 16.78125 11.304688 16.753906 11.289062 C 16.742188 11.285156 16.523438 11.21875 16.269531 11.144531 C 15.824219 11.015625 15.4375 10.878906 15.4375 10.855469 C 15.4375 10.816406 15.714844 10.679688 15.878906 10.636719 C 16.128906 10.574219 16.304688 10.574219 16.429688 10.632812 Z M 13.6875 11.386719 C 13.742188 11.410156 13.789062 11.433594 13.789062 11.441406 C 13.789062 11.449219 13.773438 11.527344 13.753906 11.613281 C 13.730469 11.710938 13.714844 11.882812 13.714844 12.042969 C 13.714844 12.34375 13.746094 12.503906 13.859375 12.738281 C 13.933594 12.898438 13.929688 12.921875 13.792969 13.03125 C 13.671875 13.128906 13.609375 13.148438 13.339844 13.167969 C 13.082031 13.183594 13.121094 13.171875 12.667969 13.40625 C 12.480469 13.503906 12.179688 13.585938 11.949219 13.601562 L 11.753906 13.617188 L 11.710938 13.511719 C 11.636719 13.3125 11.546875 13.152344 11.476562 13.09375 C 11.335938 12.972656 11.148438 13 11.050781 13.148438 C 10.996094 13.246094 11.003906 13.355469 11.097656 13.5625 C 11.226562 13.863281 11.269531 14.097656 11.34375 14.992188 C 11.371094 15.347656 11.46875 15.9375 11.578125 16.414062 C 11.621094 16.601562 11.648438 16.757812 11.648438 16.761719 C 11.644531 16.765625 11.59375 16.789062 11.527344 16.824219 L 11.414062 16.878906 L 11.191406 16.542969 C 10.609375 15.648438 10.546875 15.503906 10.457031 14.851562 C 10.367188 14.21875 10.371094 14.027344 10.476562 13.566406 C 10.523438 13.359375 10.539062 13.34375 10.863281 12.992188 C 11.113281 12.730469 11.757812 12.332031 12.230469 12.144531 C 12.382812 12.085938 12.527344 11.984375 12.667969 11.84375 C 12.875 11.628906 13.363281 11.34375 13.515625 11.34375 C 13.554688 11.34375 13.632812 11.363281 13.6875 11.386719 Z M 15.410156 11.488281 C 15.484375 11.519531 15.753906 11.605469 16.007812 11.675781 C 16.65625 11.867188 16.933594 11.964844 16.957031 12.023438 C 16.984375 12.09375 16.832031 12.390625 16.753906 12.421875 C 16.714844 12.433594 16.523438 12.394531 16.214844 12.308594 C 16.109375 12.28125 15.953125 12.238281 15.863281 12.222656 C 15.613281 12.171875 15.265625 12.078125 15.167969 12.042969 C 15.113281 12.019531 15.078125 11.992188 15.078125 11.96875 C 15.078125 11.902344 15.246094 11.433594 15.265625 11.433594 C 15.269531 11.433594 15.332031 11.457031 15.410156 11.488281 Z M 2.128906 11.820312 C 2.761719 12.066406 3.394531 12.175781 4.660156 12.265625 C 5.171875 12.300781 5.386719 12.34375 5.5 12.433594 C 5.570312 12.488281 5.703125 12.753906 5.746094 12.929688 C 5.796875 13.117188 5.824219 13.421875 5.851562 14.011719 C 5.894531 15.101562 5.949219 15.894531 5.996094 16.125 C 6.035156 16.316406 6.179688 16.703125 6.3125 16.960938 C 6.414062 17.164062 6.628906 17.5 6.738281 17.621094 C 6.847656 17.746094 6.902344 17.765625 7.160156 17.78125 C 7.671875 17.816406 8.6875 17.601562 9.074219 17.378906 C 9.214844 17.296875 9.464844 17.046875 9.882812 16.582031 C 10.078125 16.359375 10.246094 16.179688 10.25 16.175781 C 10.257812 16.171875 10.289062 16.210938 10.316406 16.265625 C 10.390625 16.394531 11.050781 17.390625 11.109375 17.460938 C 11.164062 17.523438 11.273438 17.859375 11.339844 18.179688 C 11.367188 18.300781 11.414062 18.453125 11.445312 18.519531 C 11.515625 18.675781 11.773438 18.9375 12.109375 19.191406 C 12.3125 19.34375 12.652344 19.640625 12.625 19.640625 C 12.621094 19.640625 12.34375 19.679688 12.007812 19.730469 C 11.671875 19.773438 11.289062 19.828125 11.15625 19.839844 C 10.730469 19.882812 10.675781 19.898438 10.570312 20.007812 C 10.496094 20.078125 10.476562 20.117188 10.476562 20.175781 C 10.476562 20.21875 10.460938 20.425781 10.441406 20.640625 C 10.394531 21.195312 10.359375 22.378906 10.375 22.726562 C 10.386719 22.890625 10.40625 23.125 10.421875 23.25 C 10.4375 23.375 10.445312 23.480469 10.445312 23.480469 C 10.441406 23.484375 9.757812 23.304688 9.636719 23.261719 C 9.597656 23.25 9.558594 23.21875 9.550781 23.195312 C 9.527344 23.113281 9.566406 22.859375 9.65625 22.554688 C 9.757812 22.207031 9.785156 21.972656 9.742188 21.796875 C 9.660156 21.445312 9.433594 21.242188 9.210938 21.316406 C 9.035156 21.375 8.996094 21.554688 9.109375 21.773438 C 9.191406 21.941406 9.191406 22.054688 9.089844 22.390625 C 9.046875 22.535156 9 22.738281 8.984375 22.839844 C 8.96875 22.9375 8.945312 23.019531 8.933594 23.019531 C 8.910156 23.019531 8.363281 22.792969 8.136719 22.6875 L 7.988281 22.621094 L 7.972656 22.382812 C 7.929688 21.726562 8.011719 21.277344 8.335938 20.394531 C 8.410156 20.195312 8.496094 19.949219 8.519531 19.851562 C 8.578125 19.621094 8.601562 19.265625 8.566406 19.082031 C 8.472656 18.609375 8.136719 18.304688 7.878906 18.460938 C 7.785156 18.519531 7.753906 18.582031 7.765625 18.707031 C 7.777344 18.785156 7.800781 18.84375 7.871094 18.9375 C 8.082031 19.234375 8.054688 19.476562 7.707031 20.417969 C 7.480469 21.019531 7.382812 21.5 7.378906 22.015625 C 7.375 22.164062 7.371094 22.285156 7.367188 22.285156 C 7.363281 22.285156 7.300781 22.253906 7.226562 22.214844 L 7.09375 22.140625 L 7.09375 21.871094 C 7.09375 21.546875 7.109375 21.449219 7.25 20.953125 C 7.382812 20.480469 7.414062 20.296875 7.394531 20.105469 C 7.359375 19.773438 7.238281 19.539062 7.058594 19.457031 C 6.933594 19.402344 6.851562 19.417969 6.773438 19.507812 C 6.6875 19.609375 6.679688 19.703125 6.75 19.914062 C 6.832031 20.1875 6.824219 20.292969 6.695312 20.761719 C 6.566406 21.222656 6.515625 21.449219 6.515625 21.574219 C 6.515625 21.621094 6.511719 21.675781 6.503906 21.695312 C 6.488281 21.738281 6.46875 21.726562 6.140625 21.480469 C 4.351562 20.125 3.085938 18.304688 2.339844 15.992188 C 2.101562 15.25 1.917969 14.355469 1.84375 13.554688 C 1.816406 13.222656 1.804688 11.929688 1.832031 11.804688 C 1.851562 11.707031 1.824219 11.703125 2.128906 11.820312 Z M 14.492188 12.164062 C 14.496094 12.203125 14.535156 12.269531 14.570312 12.320312 C 14.667969 12.453125 14.804688 12.535156 15.121094 12.644531 C 15.140625 12.652344 15.140625 12.664062 15.121094 12.699219 C 15.09375 12.738281 15.070312 12.746094 14.902344 12.746094 C 14.765625 12.746094 14.6875 12.730469 14.621094 12.703125 C 14.492188 12.644531 14.382812 12.503906 14.335938 12.34375 C 14.296875 12.207031 14.300781 12.207031 14.347656 12.152344 C 14.417969 12.078125 14.472656 12.085938 14.492188 12.164062 Z M 17.570312 13.160156 C 17.792969 13.386719 17.9375 13.554688 18.023438 13.691406 C 18.234375 14.015625 18.304688 14.070312 18.652344 14.203125 C 18.875 14.285156 19.253906 14.488281 19.417969 14.613281 C 19.496094 14.671875 19.625 14.785156 19.707031 14.867188 L 19.851562 15.011719 L 19.796875 15.113281 C 19.765625 15.167969 19.730469 15.210938 19.714844 15.203125 C 19.585938 15.15625 19.273438 15.070312 18.972656 15.003906 C 18.308594 14.851562 18.308594 14.851562 18.089844 14.546875 C 17.921875 14.304688 17.832031 14.226562 17.367188 13.925781 C 16.917969 13.632812 16.871094 13.617188 16.734375 13.699219 C 16.691406 13.726562 16.640625 13.789062 16.609375 13.851562 C 16.488281 14.097656 16.40625 14.164062 16.058594 14.277344 C 15.703125 14.394531 15.566406 14.414062 15.101562 14.429688 C 14.519531 14.445312 14.167969 14.414062 13.691406 14.300781 C 13.152344 14.171875 12.957031 14.171875 12.445312 14.316406 C 12.335938 14.347656 12.171875 14.402344 12.078125 14.441406 C 11.894531 14.511719 11.878906 14.507812 11.878906 14.351562 C 11.878906 14.300781 11.871094 14.246094 11.863281 14.226562 C 11.851562 14.195312 11.871094 14.191406 11.964844 14.191406 C 12.261719 14.191406 12.777344 14.035156 13.082031 13.851562 C 13.230469 13.761719 13.25 13.757812 13.476562 13.742188 C 13.628906 13.730469 13.757812 13.710938 13.839844 13.679688 C 13.988281 13.625 14.1875 13.484375 14.308594 13.347656 L 14.390625 13.257812 L 14.519531 13.292969 C 14.59375 13.3125 14.734375 13.332031 14.851562 13.335938 C 15.054688 13.335938 15.058594 13.339844 15.101562 13.402344 C 15.277344 13.679688 15.644531 13.789062 15.933594 13.648438 C 16.152344 13.539062 16.28125 13.34375 16.300781 13.09375 C 16.308594 12.921875 16.277344 12.929688 16.570312 13 C 16.757812 13.042969 16.933594 13.015625 17.078125 12.910156 C 17.136719 12.871094 17.195312 12.839844 17.214844 12.835938 C 17.230469 12.832031 17.390625 12.980469 17.570312 13.160156 Z M 15.84375 12.980469 C 15.890625 13.027344 15.902344 13.0625 15.902344 13.132812 C 15.902344 13.203125 15.890625 13.242188 15.84375 13.289062 C 15.714844 13.417969 15.480469 13.320312 15.480469 13.132812 C 15.480469 12.949219 15.714844 12.851562 15.84375 12.980469 Z M 17.25 14.554688 C 17.460938 14.691406 17.507812 14.734375 17.601562 14.867188 C 17.730469 15.058594 17.925781 15.265625 18.050781 15.335938 C 18.183594 15.414062 18.296875 15.453125 18.730469 15.546875 C 19.316406 15.679688 19.507812 15.746094 19.695312 15.886719 C 19.78125 15.949219 19.882812 16.023438 19.917969 16.046875 C 19.957031 16.070312 20.019531 16.125 20.058594 16.171875 C 20.097656 16.21875 20.203125 16.308594 20.292969 16.371094 C 20.484375 16.511719 20.472656 16.5 20.460938 16.515625 C 20.441406 16.53125 19.320312 16.847656 18.894531 16.957031 C 18.675781 17.011719 18.050781 17.167969 17.503906 17.300781 C 16.5625 17.535156 15.519531 17.808594 15.21875 17.90625 C 15.132812 17.9375 15.0625 17.972656 15.035156 18.007812 C 14.984375 18.074219 14.828125 18.550781 14.714844 18.980469 C 14.671875 19.140625 14.621094 19.285156 14.601562 19.308594 C 14.578125 19.332031 14.511719 19.367188 14.449219 19.382812 C 14.351562 19.410156 13.484375 19.527344 13.378906 19.527344 C 13.355469 19.527344 13.359375 19.511719 13.402344 19.449219 C 13.515625 19.28125 13.503906 19.03125 13.378906 18.800781 C 13.335938 18.714844 13.277344 18.628906 13.25 18.601562 L 13.207031 18.554688 L 13.257812 18.484375 C 13.328125 18.390625 13.328125 18.222656 13.261719 18.070312 C 13.234375 18.007812 13.195312 17.863281 13.167969 17.746094 C 13.113281 17.492188 13.035156 17.328125 12.925781 17.238281 C 12.882812 17.199219 12.738281 17.117188 12.609375 17.054688 C 12.480469 16.996094 12.363281 16.9375 12.347656 16.929688 C 12.308594 16.910156 12.234375 16.667969 12.132812 16.210938 C 12.058594 15.890625 11.933594 15.148438 11.949219 15.136719 C 12.011719 15.09375 12.378906 14.949219 12.578125 14.890625 C 12.8125 14.816406 12.875 14.804688 13.078125 14.804688 C 13.269531 14.800781 13.355469 14.8125 13.546875 14.867188 C 13.945312 14.976562 14.097656 14.992188 14.757812 15.007812 C 15.476562 15.019531 15.710938 14.996094 16.144531 14.867188 C 16.5 14.761719 16.734375 14.640625 16.871094 14.503906 C 16.929688 14.441406 16.984375 14.390625 16.992188 14.390625 C 17 14.390625 17.113281 14.464844 17.25 14.554688 Z M 22.054688 16.773438 C 22.199219 16.886719 22.335938 17.167969 22.429688 17.539062 C 22.476562 17.71875 22.480469 17.761719 22.460938 17.949219 C 22.445312 18.097656 22.425781 18.195312 22.386719 18.273438 C 22.265625 18.527344 21.574219 19.53125 21.382812 19.742188 C 21.335938 19.792969 21.253906 19.832031 21.082031 19.890625 C 20.957031 19.929688 19.828125 20.3125 18.582031 20.738281 C 17.285156 21.179688 16.292969 21.503906 16.273438 21.496094 C 16.222656 21.476562 16.226562 21.433594 16.316406 21.253906 C 16.558594 20.746094 16.554688 20.011719 16.304688 19.378906 C 16.207031 19.132812 16.082031 18.933594 15.867188 18.679688 C 15.765625 18.554688 15.679688 18.449219 15.679688 18.4375 C 15.679688 18.371094 16.058594 18.261719 17.992188 17.785156 C 19.417969 17.433594 19.667969 17.367188 20.5625 17.101562 C 21.3125 16.878906 21.855469 16.726562 21.933594 16.726562 C 21.964844 16.726562 22.019531 16.75 22.054688 16.773438 Z M 15.5 19.15625 C 15.640625 19.328125 15.773438 19.59375 15.839844 19.828125 C 15.882812 19.980469 15.890625 20.058594 15.890625 20.363281 C 15.890625 20.679688 15.886719 20.734375 15.839844 20.863281 C 15.761719 21.078125 15.652344 21.242188 15.441406 21.464844 C 15.140625 21.78125 14.886719 21.953125 14.589844 22.03125 C 14.457031 22.070312 14.453125 22.070312 14.410156 22.027344 C 14.363281 21.980469 14.363281 21.96875 14.386719 21.847656 C 14.402344 21.773438 14.480469 21.527344 14.566406 21.304688 C 14.851562 20.535156 15.054688 19.898438 15.183594 19.386719 C 15.222656 19.21875 15.269531 19.0625 15.28125 19.046875 C 15.332031 18.988281 15.390625 19.015625 15.5 19.15625 Z M 14.308594 20.054688 C 14.363281 20.105469 14.355469 20.140625 14.234375 20.488281 C 13.914062 21.417969 13.804688 21.664062 13.710938 21.664062 C 13.679688 21.664062 12.765625 21.320312 12.46875 21.195312 C 12.042969 21.019531 11.679688 20.820312 11.429688 20.625 C 11.292969 20.523438 11.277344 20.488281 11.332031 20.441406 C 11.371094 20.40625 13.96875 20.027344 14.21875 20.019531 C 14.25 20.019531 14.292969 20.035156 14.308594 20.054688 Z M 20.472656 20.730469 C 20.46875 20.742188 20.328125 20.867188 20.167969 21.015625 C 19.671875 21.453125 19.363281 21.679688 18.695312 22.078125 C 18.183594 22.382812 17.96875 22.507812 17.714844 22.636719 C 16.847656 23.082031 15.46875 23.5 14.390625 23.644531 C 14.285156 23.65625 14.175781 23.671875 14.140625 23.675781 C 14.066406 23.6875 14.066406 23.714844 14.113281 23.265625 C 14.140625 22.96875 14.152344 22.910156 14.203125 22.839844 C 14.234375 22.792969 14.28125 22.738281 14.308594 22.71875 C 14.359375 22.6875 14.683594 22.605469 14.96875 22.550781 C 15.035156 22.539062 16.292969 22.121094 17.761719 21.621094 C 19.226562 21.121094 20.441406 20.710938 20.457031 20.710938 C 20.472656 20.710938 20.484375 20.714844 20.472656 20.730469 Z M 11.265625 21.230469 C 11.667969 21.496094 12.144531 21.71875 12.992188 22.03125 C 13.300781 22.144531 13.527344 22.238281 13.550781 22.265625 C 13.59375 22.316406 13.589844 22.464844 13.53125 23.136719 C 13.515625 23.34375 13.5 23.554688 13.5 23.609375 C 13.5 23.679688 13.488281 23.714844 13.464844 23.726562 C 13.359375 23.78125 11.847656 23.738281 11.519531 23.675781 C 11.488281 23.671875 11.410156 23.660156 11.339844 23.652344 C 11.273438 23.644531 11.183594 23.632812 11.140625 23.625 L 11.066406 23.609375 L 11.027344 23.355469 C 10.96875 22.976562 10.941406 22.535156 10.945312 22.007812 C 10.949219 21.402344 10.96875 21.132812 11.011719 21.109375 C 11.046875 21.085938 11.035156 21.078125 11.265625 21.230469 Z M 11.265625 21.230469 "
    />
    <path
        stroke="none"
        fillRule="nonzero"
        fill="black"
        fillOpacity="1"
        d="M 13.722656 2.433594 C 13.375 2.527344 13.089844 2.816406 13.015625 3.160156 C 12.957031 3.394531 13.003906 3.683594 13.128906 3.898438 C 13.324219 4.226562 13.742188 4.425781 14.117188 4.363281 C 14.789062 4.253906 15.15625 3.550781 14.859375 2.945312 C 14.65625 2.539062 14.160156 2.3125 13.722656 2.433594 Z M 14.40625 2.871094 C 14.636719 3.007812 14.53125 3.367188 14.257812 3.363281 C 14.144531 3.359375 14.089844 3.328125 14.035156 3.242188 C 13.882812 2.992188 14.15625 2.714844 14.40625 2.871094 Z M 14.40625 2.871094 "
    />
    <path
        stroke="none"
        fillRule="nonzero"
        fill="black"
        fillOpacity="1"
        d="M 13.003906 5.371094 C 12.78125 5.449219 12.667969 5.625 12.683594 5.859375 C 12.695312 6.050781 12.773438 6.171875 12.941406 6.253906 C 13.152344 6.359375 13.339844 6.328125 13.503906 6.160156 C 13.699219 5.957031 13.699219 5.691406 13.503906 5.492188 C 13.359375 5.347656 13.183594 5.308594 13.003906 5.371094 Z M 13.371094 5.652344 C 13.40625 5.726562 13.363281 5.804688 13.28125 5.804688 C 13.210938 5.804688 13.167969 5.769531 13.167969 5.703125 C 13.167969 5.640625 13.210938 5.605469 13.28125 5.605469 C 13.324219 5.605469 13.351562 5.621094 13.371094 5.652344 Z M 13.371094 5.652344 "
    />
    <path
        stroke="none"
        fillRule="nonzero"
        fill="black"
        fillOpacity="1"
        d="M 14.796875 6.082031 C 14.601562 6.144531 14.464844 6.277344 14.378906 6.484375 C 14.320312 6.617188 14.339844 6.878906 14.417969 7.007812 C 14.546875 7.230469 14.746094 7.347656 14.992188 7.347656 C 15.542969 7.351562 15.839844 6.6875 15.46875 6.277344 C 15.414062 6.214844 15.324219 6.144531 15.265625 6.117188 C 15.136719 6.054688 14.921875 6.039062 14.796875 6.082031 Z M 15.300781 6.417969 C 15.316406 6.433594 15.332031 6.484375 15.332031 6.527344 C 15.332031 6.621094 15.292969 6.664062 15.199219 6.6875 C 15.140625 6.695312 15.117188 6.6875 15.070312 6.644531 C 15.039062 6.609375 15.011719 6.558594 15.011719 6.527344 C 15.011719 6.496094 15.039062 6.445312 15.070312 6.414062 C 15.117188 6.367188 15.140625 6.359375 15.199219 6.371094 C 15.234375 6.378906 15.28125 6.398438 15.300781 6.417969 Z M 15.300781 6.417969 "
    />
    <path
        stroke="none"
        fillRule="nonzero"
        fill="black"
        fillOpacity="1"
        d="M 14.554688 7.976562 C 14.417969 8.023438 14.289062 8.179688 14.257812 8.328125 C 14.222656 8.492188 14.257812 8.625 14.371094 8.753906 C 14.578125 8.988281 14.949219 8.964844 15.136719 8.699219 C 15.195312 8.613281 15.203125 8.585938 15.203125 8.429688 C 15.203125 8.273438 15.195312 8.246094 15.136719 8.160156 C 15.007812 7.976562 14.757812 7.898438 14.554688 7.976562 Z M 14.933594 8.207031 C 14.96875 8.246094 14.972656 8.261719 14.949219 8.308594 C 14.929688 8.355469 14.910156 8.363281 14.851562 8.359375 C 14.765625 8.351562 14.730469 8.296875 14.765625 8.21875 C 14.796875 8.148438 14.878906 8.144531 14.933594 8.207031 Z M 14.933594 8.207031 "
    />
    <path
        stroke="none"
        fillRule="nonzero"
        fill="black"
        fillOpacity="1"
        d="M 17.050781 9.496094 C 16.816406 9.703125 16.949219 10.054688 17.261719 10.054688 C 17.496094 10.054688 17.636719 9.8125 17.535156 9.59375 C 17.480469 9.484375 17.386719 9.429688 17.246094 9.429688 C 17.144531 9.429688 17.113281 9.441406 17.050781 9.496094 Z M 17.359375 9.578125 C 17.378906 9.585938 17.394531 9.613281 17.394531 9.640625 C 17.394531 9.699219 17.347656 9.726562 17.292969 9.707031 C 17.253906 9.691406 17.25 9.59375 17.289062 9.578125 C 17.300781 9.574219 17.316406 9.566406 17.320312 9.566406 C 17.320312 9.5625 17.335938 9.570312 17.359375 9.578125 Z M 17.359375 9.578125 "
    />
    <path
        stroke="none"
        fillRule="nonzero"
        fill="black"
        fillOpacity="1"
        d="M 19.28125 17.566406 C 19.207031 17.609375 19.148438 17.71875 19.148438 17.808594 C 19.148438 17.894531 19.347656 18.199219 19.425781 18.234375 C 19.507812 18.269531 19.628906 18.265625 19.703125 18.226562 C 19.78125 18.191406 19.839844 18.070312 19.839844 17.96875 C 19.835938 17.824219 19.71875 17.625 19.589844 17.558594 C 19.507812 17.515625 19.351562 17.519531 19.28125 17.566406 Z M 19.28125 17.566406 "
    />
    </g>
</svg>