<svg xmlns="http://www.w3.org/2000/svg"
     width="25px"
     height="25px"
     viewBox="0 0 25 25"
     version="1.1">
    <g id="surface1">
        <path
            stroke="none"
            fillRule="nonzero"
            fill="black"
            fillOpacity="1"
            d="M 12.496094 1.011719 C 12.492188 1.015625 12.347656 1.023438 12.175781 1.03125 C 11.714844 1.054688 10.984375 1.148438 10.53125 1.246094 C 10.339844 1.289062 10.046875 1.355469 9.941406 1.382812 C 9.492188 1.492188 8.632812 1.78125 8.273438 1.941406 C 7.976562 2.074219 7.65625 2.234375 7.445312 2.347656 C 7.320312 2.421875 7.199219 2.488281 7.171875 2.5 C 7.148438 2.511719 7.101562 2.542969 7.0625 2.566406 C 7.027344 2.589844 6.960938 2.632812 6.917969 2.65625 C 6.875 2.683594 6.734375 2.777344 6.605469 2.859375 C 6.375 3.007812 6.320312 3.050781 5.800781 3.433594 C 5.136719 3.921875 4.222656 4.824219 3.699219 5.507812 C 3.097656 6.289062 2.675781 6.953125 2.398438 7.535156 C 1.882812 8.628906 1.53125 9.71875 1.34375 10.808594 C 1.230469 11.460938 1.195312 11.832031 1.183594 12.539062 C 1.171875 13.410156 1.207031 13.921875 1.335938 14.679688 C 1.558594 15.960938 2.078125 17.40625 2.714844 18.496094 C 3.53125 19.890625 4.5625 21.066406 5.78125 21.996094 C 6.664062 22.667969 7.652344 23.222656 8.597656 23.585938 C 9.132812 23.789062 10.003906 24.03125 10.597656 24.144531 C 10.621094 24.148438 10.667969 24.160156 10.699219 24.164062 C 10.730469 24.171875 10.789062 24.179688 10.832031 24.1875 C 10.875 24.195312 10.925781 24.207031 10.941406 24.210938 C 10.960938 24.214844 11.019531 24.226562 11.078125 24.234375 C 11.132812 24.238281 11.191406 24.25 11.210938 24.253906 C 11.226562 24.257812 11.300781 24.269531 11.367188 24.277344 C 11.4375 24.285156 11.515625 24.296875 11.546875 24.300781 C 11.574219 24.304688 11.660156 24.316406 11.734375 24.320312 C 11.804688 24.328125 11.925781 24.335938 12 24.347656 C 12.589844 24.402344 13.464844 24.402344 14.03125 24.339844 C 14.320312 24.3125 14.46875 24.296875 14.570312 24.277344 C 14.601562 24.273438 14.667969 24.261719 14.722656 24.253906 C 14.960938 24.222656 15.558594 24.097656 15.871094 24.011719 C 15.980469 23.980469 16.09375 23.949219 16.117188 23.945312 C 16.183594 23.929688 16.824219 23.710938 17.015625 23.632812 C 17.707031 23.375 18.644531 22.878906 19.394531 22.386719 C 20.476562 21.675781 21.480469 20.730469 22.230469 19.71875 C 23.113281 18.523438 23.820312 17.058594 24.152344 15.734375 C 24.46875 14.464844 24.59375 12.886719 24.476562 11.699219 C 24.316406 10.121094 23.996094 8.925781 23.398438 7.683594 C 22.34375 5.484375 20.746094 3.730469 18.738281 2.578125 C 18.410156 2.390625 17.714844 2.054688 17.363281 1.914062 C 16.429688 1.542969 15.238281 1.226562 14.347656 1.113281 C 14.015625 1.070312 14.011719 1.070312 13.578125 1.035156 C 13.410156 1.019531 12.507812 1 12.496094 1.011719 Z M 13.804688 1.679688 C 14.128906 1.710938 14.304688 1.734375 14.679688 1.792969 C 14.722656 1.800781 14.792969 1.8125 14.835938 1.824219 C 14.878906 1.835938 14.949219 1.851562 14.996094 1.855469 C 15.0625 1.867188 15.515625 1.980469 15.703125 2.035156 C 15.871094 2.082031 16.160156 2.167969 16.257812 2.203125 C 16.746094 2.367188 16.910156 2.429688 17.089844 2.511719 C 17.140625 2.535156 17.222656 2.570312 17.269531 2.589844 C 17.488281 2.679688 17.558594 2.714844 17.914062 2.890625 C 19.113281 3.496094 20.210938 4.332031 21.089844 5.3125 C 21.226562 5.460938 21.328125 5.589844 21.324219 5.597656 C 21.316406 5.605469 21.234375 5.644531 21.144531 5.683594 C 20.921875 5.777344 20.726562 5.921875 20.546875 6.117188 C 20.40625 6.269531 20.164062 6.609375 20.03125 6.832031 L 19.972656 6.933594 L 19.773438 6.960938 C 19.316406 7.015625 18.851562 7.261719 18.515625 7.609375 C 18.304688 7.832031 18.195312 8 18.117188 8.242188 C 17.960938 8.699219 18.089844 8.996094 18.59375 9.332031 C 18.890625 9.527344 19.429688 9.785156 19.796875 9.90625 C 20.40625 10.105469 20.910156 10.179688 21.59375 10.15625 C 22.175781 10.140625 22.496094 10.074219 23.175781 9.820312 C 23.351562 9.753906 23.5 9.703125 23.5 9.703125 C 23.503906 9.707031 23.546875 9.867188 23.597656 10.066406 C 23.757812 10.699219 23.875 11.441406 23.90625 12.054688 L 23.921875 12.34375 L 20.390625 12.34375 C 16.910156 12.34375 16.859375 12.34375 16.859375 12.300781 C 16.859375 12.277344 16.882812 12.109375 16.914062 11.929688 C 17.039062 11.21875 17.316406 10.25 17.550781 9.738281 C 17.6875 9.441406 17.714844 9.332031 17.695312 9.21875 C 17.671875 9.109375 17.566406 9 17.441406 8.964844 C 17.363281 8.9375 17.28125 8.945312 16.855469 8.996094 C 16.582031 9.027344 16.207031 9.078125 16.019531 9.109375 C 15.832031 9.140625 15.664062 9.160156 15.644531 9.15625 C 15.59375 9.136719 15.605469 9.089844 15.761719 8.777344 C 16.054688 8.195312 16.304688 7.816406 16.730469 7.335938 C 16.964844 7.070312 16.984375 6.980469 16.882812 6.753906 C 16.824219 6.613281 16.71875 6.546875 16.402344 6.4375 C 15.667969 6.179688 14.386719 5.9375 13.765625 5.9375 C 13.5625 5.9375 13.554688 5.929688 13.578125 5.632812 C 13.59375 5.324219 13.601562 5.316406 13.851562 5.316406 C 14.152344 5.316406 14.28125 5.230469 14.28125 5.027344 C 14.28125 4.832031 14.148438 4.738281 13.882812 4.738281 C 13.699219 4.738281 13.65625 4.722656 13.65625 4.671875 C 13.65625 4.609375 13.695312 4.589844 14.042969 4.46875 C 14.6875 4.253906 15.152344 4.046875 15.300781 3.921875 C 15.476562 3.773438 15.480469 3.5625 15.308594 3.398438 C 15.15625 3.253906 14.015625 2.882812 13.644531 2.855469 C 13.480469 2.84375 13.457031 2.847656 13.351562 2.898438 C 13.175781 2.988281 13.144531 3.066406 13.121094 3.472656 C 13.105469 3.757812 13.082031 4.050781 13.046875 4.5 C 13.03125 4.695312 13.003906 4.714844 12.761719 4.714844 C 12.546875 4.714844 12.46875 4.742188 12.390625 4.839844 C 12.335938 4.910156 12.328125 5.042969 12.378906 5.136719 C 12.425781 5.230469 12.527344 5.277344 12.742188 5.296875 C 12.84375 5.308594 12.945312 5.328125 12.960938 5.34375 C 13.007812 5.382812 12.988281 5.835938 12.9375 5.890625 C 12.90625 5.921875 12.832031 5.9375 12.558594 5.957031 C 11.289062 6.0625 10.128906 6.382812 8.988281 6.949219 C 8.410156 7.238281 7.84375 7.613281 7.613281 7.855469 C 7.550781 7.921875 7.300781 8.417969 7.183594 8.71875 C 6.953125 9.292969 6.777344 10.054688 6.726562 10.675781 C 6.71875 10.78125 6.703125 10.878906 6.691406 10.902344 C 6.679688 10.921875 6.488281 11.183594 6.269531 11.480469 C 6.042969 11.78125 5.8125 12.09375 5.75 12.183594 L 5.636719 12.34375 L 1.800781 12.34375 L 1.800781 12.214844 C 1.800781 11.820312 1.960938 10.835938 2.167969 9.953125 C 2.414062 8.910156 3.035156 7.523438 3.710938 6.515625 C 3.835938 6.335938 4.203125 5.828125 4.25 5.777344 C 4.257812 5.765625 4.363281 5.804688 4.480469 5.859375 C 4.773438 5.996094 5.039062 6.082031 5.378906 6.15625 C 5.628906 6.207031 5.710938 6.214844 6.105469 6.214844 C 6.484375 6.214844 6.589844 6.207031 6.800781 6.164062 C 7.492188 6.023438 8.074219 5.742188 8.582031 5.292969 L 8.785156 5.117188 L 8.957031 5.164062 C 9.078125 5.195312 9.226562 5.214844 9.445312 5.21875 C 9.800781 5.234375 10.011719 5.203125 10.300781 5.089844 C 11.183594 4.75 11.660156 3.707031 11.167969 3.203125 C 11.113281 3.144531 11.050781 3.089844 11.03125 3.078125 C 11.011719 3.066406 10.957031 2.988281 10.910156 2.898438 C 10.753906 2.597656 10.4375 2.253906 10.171875 2.097656 C 10.117188 2.066406 10.074219 2.039062 10.078125 2.035156 C 10.085938 2.03125 10.230469 1.992188 10.410156 1.949219 C 11.484375 1.6875 12.777344 1.585938 13.804688 1.679688 Z M 9.488281 2.445312 C 9.894531 2.550781 10.222656 2.832031 10.429688 3.25 C 10.476562 3.34375 10.550781 3.4375 10.648438 3.53125 C 10.789062 3.660156 10.792969 3.667969 10.78125 3.757812 C 10.761719 3.890625 10.648438 4.121094 10.539062 4.238281 C 10.40625 4.382812 10.214844 4.503906 10 4.574219 C 9.84375 4.625 9.785156 4.636719 9.53125 4.636719 C 9.234375 4.636719 9.046875 4.601562 8.929688 4.523438 C 8.855469 4.476562 8.746094 4.449219 8.671875 4.464844 C 8.628906 4.472656 8.527344 4.546875 8.402344 4.667969 C 7.75 5.265625 7.230469 5.523438 6.460938 5.621094 C 6.117188 5.664062 5.773438 5.644531 5.378906 5.550781 C 5.132812 5.496094 4.671875 5.324219 4.671875 5.292969 C 4.671875 5.269531 5.234375 4.699219 5.460938 4.492188 C 6.050781 3.953125 6.648438 3.53125 7.550781 3.019531 C 7.859375 2.847656 8.472656 2.566406 8.871094 2.410156 C 8.972656 2.375 9.265625 2.390625 9.488281 2.445312 Z M 14.046875 3.539062 C 14.179688 3.574219 14.316406 3.621094 14.34375 3.640625 C 14.394531 3.675781 14.394531 3.675781 14.355469 3.714844 C 14.304688 3.761719 13.832031 3.9375 13.757812 3.9375 C 13.6875 3.9375 13.679688 3.902344 13.695312 3.703125 C 13.707031 3.546875 13.738281 3.46875 13.789062 3.46875 C 13.796875 3.46875 13.914062 3.5 14.046875 3.539062 Z M 21.933594 6.394531 C 22.492188 7.1875 22.886719 7.953125 23.273438 8.988281 L 23.328125 9.136719 L 23.023438 9.25 C 22.347656 9.496094 22.0625 9.5625 21.609375 9.578125 C 20.851562 9.609375 20.101562 9.453125 19.417969 9.121094 C 18.933594 8.882812 18.640625 8.671875 18.640625 8.5625 C 18.640625 8.476562 18.710938 8.304688 18.808594 8.167969 C 19.058594 7.816406 19.441406 7.597656 19.925781 7.53125 C 20.285156 7.480469 20.359375 7.433594 20.511719 7.171875 C 20.761719 6.738281 21.039062 6.40625 21.246094 6.285156 C 21.363281 6.214844 21.710938 6.09375 21.734375 6.113281 C 21.738281 6.121094 21.832031 6.246094 21.933594 6.394531 Z M 14.367188 6.570312 C 14.769531 6.625 15.1875 6.710938 15.660156 6.832031 C 16.066406 6.933594 16.191406 6.980469 16.191406 7.027344 C 16.191406 7.039062 16.132812 7.125 16.058594 7.214844 C 15.519531 7.894531 15.074219 8.730469 14.761719 9.640625 C 14.496094 10.417969 14.355469 11.394531 14.410156 12.105469 C 14.46875 12.894531 14.621094 13.441406 14.964844 14.109375 C 15.050781 14.28125 15.121094 14.425781 15.117188 14.425781 C 15.101562 14.4375 13.980469 14.617188 13.734375 14.644531 C 12.320312 14.8125 10.027344 14.613281 8.777344 14.210938 C 8.550781 14.140625 8.472656 14.089844 8.472656 14.011719 C 8.472656 13.945312 8.621094 13.183594 8.722656 12.734375 C 8.960938 11.648438 9.339844 10.296875 9.773438 8.980469 C 9.941406 8.476562 10.105469 7.992188 10.136719 7.910156 C 10.191406 7.765625 10.195312 7.753906 10.164062 7.667969 C 10.105469 7.5 9.921875 7.425781 9.757812 7.507812 C 9.578125 7.601562 8.769531 8.449219 7.863281 9.492188 C 7.671875 9.71875 7.503906 9.894531 7.488281 9.890625 C 7.394531 9.859375 7.625 9.121094 7.925781 8.492188 L 8.050781 8.230469 L 8.28125 8.058594 C 8.847656 7.636719 9.652344 7.238281 10.53125 6.953125 C 11.222656 6.730469 11.863281 6.605469 12.699219 6.53125 C 12.945312 6.507812 14.125 6.535156 14.367188 6.570312 Z M 9.105469 9.070312 C 9.109375 9.078125 9.046875 9.3125 8.960938 9.585938 C 8.425781 11.308594 8.089844 12.710938 7.796875 14.457031 C 7.699219 15.023438 7.671875 15.125 7.628906 15.125 C 7.621094 15.125 7.527344 15.058594 7.425781 14.976562 C 6.703125 14.402344 6.054688 14.183594 5.40625 14.289062 C 5.097656 14.339844 5.039062 14.34375 5.03125 14.300781 C 5.019531 14.226562 5.96875 12.855469 6.921875 11.578125 C 7.347656 11.007812 8.113281 10.085938 8.792969 9.324219 C 9.019531 9.074219 9.078125 9.023438 9.105469 9.070312 Z M 16.902344 9.621094 C 16.925781 9.644531 16.902344 9.746094 16.765625 10.15625 C 16.582031 10.710938 16.449219 11.226562 16.359375 11.703125 C 16.167969 12.757812 16.199219 13.429688 16.464844 13.964844 C 16.515625 14.074219 16.5625 14.164062 16.566406 14.171875 C 16.566406 14.175781 16.40625 14.210938 16.210938 14.242188 C 16.011719 14.277344 15.832031 14.308594 15.8125 14.316406 C 15.734375 14.335938 15.378906 13.695312 15.230469 13.261719 C 14.957031 12.484375 14.917969 11.5625 15.113281 10.597656 C 15.199219 10.183594 15.269531 9.941406 15.328125 9.886719 C 15.390625 9.828125 15.742188 9.746094 16.277344 9.664062 C 16.855469 9.574219 16.867188 9.574219 16.902344 9.621094 Z M 5.089844 13.117188 C 4.792969 13.539062 4.488281 14.019531 4.300781 14.355469 C 4.1875 14.554688 4.078125 14.75 4.050781 14.789062 C 3.992188 14.890625 3.988281 14.96875 4.046875 15.078125 C 4.082031 15.148438 4.164062 15.214844 4.453125 15.40625 C 4.652344 15.539062 4.964844 15.746094 5.148438 15.859375 C 5.738281 16.226562 5.710938 16.195312 6.019531 16.769531 C 6.339844 17.367188 6.546875 17.683594 6.859375 18.054688 C 7.082031 18.324219 7.476562 18.722656 7.601562 18.8125 C 7.695312 18.875 7.695312 18.882812 7.648438 18.894531 C 7.558594 18.914062 5.441406 19.285156 5.410156 19.285156 C 5.390625 19.285156 5.382812 19.21875 5.382812 19.011719 C 5.382812 18.859375 5.371094 18.699219 5.359375 18.65625 C 5.292969 18.410156 4.957031 18.390625 4.859375 18.628906 C 4.839844 18.675781 4.820312 18.839844 4.8125 19.046875 L 4.796875 19.394531 L 4.683594 19.414062 C 4.621094 19.429688 4.476562 19.453125 4.363281 19.476562 L 4.152344 19.511719 L 4.113281 19.460938 C 3.183594 18.257812 2.398438 16.535156 2.058594 14.941406 C 1.925781 14.328125 1.824219 13.539062 1.824219 13.132812 L 1.824219 12.921875 L 5.226562 12.921875 Z M 23.921875 13.171875 C 23.882812 13.871094 23.777344 14.601562 23.628906 15.214844 C 23.566406 15.488281 23.496094 15.742188 23.476562 15.765625 C 23.46875 15.773438 22.765625 15.660156 22.695312 15.632812 C 22.554688 15.589844 22.554688 15.589844 22.570312 14.828125 L 22.578125 14.136719 L 22.527344 14.058594 C 22.429688 13.917969 22.402344 13.910156 21.671875 13.847656 C 21.300781 13.816406 20.929688 13.789062 20.84375 13.789062 C 20.546875 13.789062 18.664062 13.964844 18.601562 14 C 18.53125 14.035156 18.457031 14.109375 18.421875 14.179688 C 18.410156 14.203125 18.394531 14.492188 18.386719 14.824219 L 18.371094 15.425781 L 18.3125 15.472656 C 18.28125 15.503906 18.234375 15.523438 18.207031 15.523438 C 18.160156 15.523438 18.15625 15.515625 18.140625 15.320312 C 18.132812 15.210938 18.128906 14.925781 18.128906 14.6875 C 18.128906 14.21875 18.113281 14.144531 18.003906 14.0625 C 17.972656 14.035156 17.910156 14.007812 17.867188 14 C 17.800781 13.988281 17.371094 14.035156 17.261719 14.066406 C 17.214844 14.082031 17.003906 13.769531 16.9375 13.585938 C 16.882812 13.441406 16.851562 13.289062 16.824219 13.050781 L 16.8125 12.921875 L 23.9375 12.921875 Z M 21.960938 14.558594 C 21.992188 14.589844 21.996094 14.660156 21.996094 14.988281 C 21.996094 15.363281 21.996094 15.386719 21.949219 15.425781 C 21.914062 15.457031 21.78125 15.488281 21.390625 15.550781 C 20.917969 15.625 20.871094 15.628906 20.835938 15.597656 C 20.800781 15.566406 20.796875 15.515625 20.796875 15.148438 C 20.796875 14.761719 20.796875 14.730469 20.839844 14.691406 C 20.875 14.660156 20.996094 14.636719 21.355469 14.589844 C 21.9375 14.515625 21.917969 14.515625 21.960938 14.558594 Z M 19.640625 14.636719 C 20.023438 14.671875 20.171875 14.691406 20.203125 14.71875 C 20.234375 14.75 20.238281 14.800781 20.238281 15.171875 C 20.238281 15.519531 20.234375 15.59375 20.203125 15.621094 C 20.1875 15.644531 20.160156 15.660156 20.148438 15.660156 C 20.136719 15.660156 19.878906 15.613281 19.578125 15.558594 C 19.214844 15.492188 19.019531 15.445312 18.988281 15.421875 C 18.953125 15.390625 18.949219 15.34375 18.949219 15.023438 C 18.949219 14.722656 18.957031 14.65625 18.984375 14.625 C 19.03125 14.582031 19.015625 14.582031 19.640625 14.636719 Z M 17.53125 14.652344 C 17.566406 14.683594 17.570312 14.730469 17.570312 15.160156 C 17.570312 15.589844 17.566406 15.632812 17.535156 15.644531 C 17.511719 15.648438 17.246094 15.703125 16.9375 15.757812 C 16.628906 15.816406 16.351562 15.878906 16.316406 15.902344 C 16.210938 15.960938 16.164062 16.0625 16.152344 16.261719 C 16.144531 16.40625 16.136719 16.4375 16.105469 16.4375 C 16.0625 16.4375 14.265625 16.742188 14.207031 16.761719 C 14.128906 16.785156 14.136719 16.703125 14.234375 16.503906 C 14.351562 16.257812 14.367188 16.160156 14.367188 15.632812 C 14.367188 15.277344 14.375 15.1875 14.402344 15.164062 C 14.417969 15.144531 14.527344 15.109375 14.640625 15.089844 C 15.011719 15.027344 17.425781 14.617188 17.457031 14.613281 C 17.476562 14.613281 17.507812 14.628906 17.53125 14.652344 Z M 8.632812 14.78125 C 8.996094 14.90625 9.738281 15.066406 10.242188 15.125 C 10.5625 15.167969 10.566406 15.167969 10.566406 15.523438 L 10.566406 15.804688 L 10.394531 15.964844 C 10.285156 16.066406 10.203125 16.125 10.167969 16.125 C 9.960938 16.125 8.289062 15.980469 8.199219 15.953125 C 8.164062 15.945312 8.160156 15.925781 8.171875 15.816406 C 8.210938 15.492188 8.328125 14.820312 8.355469 14.773438 C 8.394531 14.710938 8.429688 14.710938 8.632812 14.78125 Z M 6.125 14.914062 C 6.375 14.988281 6.589844 15.09375 6.851562 15.28125 C 7.113281 15.46875 7.285156 15.621094 7.378906 15.757812 L 7.457031 15.859375 L 7.359375 15.84375 C 7.125 15.8125 6.238281 15.628906 6.015625 15.570312 C 5.878906 15.53125 5.75 15.503906 5.726562 15.503906 C 5.6875 15.503906 4.960938 15.058594 4.960938 15.035156 C 4.960938 15.019531 5.265625 14.910156 5.394531 14.882812 C 5.441406 14.871094 5.585938 14.863281 5.707031 14.859375 C 5.886719 14.859375 5.972656 14.867188 6.125 14.914062 Z M 13.789062 15.515625 L 13.789062 15.820312 L 13.453125 15.804688 C 13.035156 15.785156 12.273438 15.734375 11.722656 15.691406 C 11.496094 15.675781 11.292969 15.660156 11.273438 15.660156 C 11.199219 15.660156 11.164062 15.59375 11.164062 15.449219 C 11.164062 15.230469 11.171875 15.226562 11.589844 15.261719 C 12.066406 15.300781 13.160156 15.292969 13.445312 15.25 C 13.566406 15.234375 13.695312 15.21875 13.730469 15.214844 L 13.789062 15.214844 Z M 11.742188 16.28125 C 12.042969 16.304688 12.585938 16.339844 12.945312 16.359375 C 13.304688 16.382812 13.601562 16.402344 13.609375 16.40625 C 13.613281 16.40625 13.570312 16.5 13.515625 16.609375 L 13.410156 16.8125 L 13.207031 16.878906 C 12.910156 16.972656 12.773438 17.007812 12.410156 17.070312 C 11.878906 17.164062 11.414062 17.140625 11.109375 17.003906 C 10.96875 16.941406 10.734375 16.730469 10.675781 16.613281 L 10.632812 16.53125 L 10.800781 16.382812 C 11 16.207031 10.933594 16.214844 11.742188 16.28125 Z M 6.816406 16.34375 C 7.625 16.496094 8.480469 16.59375 9.832031 16.691406 C 9.9375 16.703125 10.035156 16.714844 10.042969 16.722656 C 10.054688 16.730469 10.109375 16.808594 10.164062 16.902344 C 10.332031 17.1875 10.648438 17.460938 10.941406 17.574219 C 11.085938 17.625 11.398438 17.695312 11.613281 17.714844 L 11.765625 17.730469 L 11.769531 17.945312 C 11.773438 18.0625 11.777344 18.164062 11.777344 18.164062 C 11.777344 18.167969 11.171875 18.273438 10.429688 18.40625 C 9.691406 18.535156 9.0625 18.648438 9.039062 18.652344 C 8.992188 18.664062 8.988281 18.65625 8.980469 18.378906 C 8.96875 18.070312 8.945312 17.988281 8.84375 17.917969 C 8.761719 17.867188 8.605469 17.871094 8.53125 17.929688 C 8.433594 18.007812 8.40625 18.097656 8.40625 18.359375 C 8.40625 18.597656 8.40625 18.597656 8.359375 18.582031 C 8.203125 18.535156 7.925781 18.335938 7.703125 18.109375 C 7.222656 17.625 6.914062 17.203125 6.574219 16.5625 C 6.480469 16.386719 6.457031 16.328125 6.476562 16.308594 C 6.492188 16.292969 6.519531 16.285156 6.539062 16.289062 C 6.558594 16.296875 6.683594 16.320312 6.816406 16.34375 Z M 17.625 16.683594 C 18.082031 16.769531 18.375 16.832031 18.402344 16.855469 C 18.433594 16.882812 18.4375 16.929688 18.4375 17.175781 C 18.4375 17.398438 18.433594 17.464844 18.40625 17.472656 C 18.363281 17.492188 16.796875 17.203125 16.757812 17.171875 C 16.71875 17.136719 16.710938 16.617188 16.753906 16.574219 C 16.796875 16.53125 16.847656 16.539062 17.625 16.683594 Z M 22.046875 16.859375 C 22.527344 16.957031 22.9375 17.046875 22.960938 17.054688 C 22.992188 17.070312 22.984375 17.105469 22.855469 17.378906 C 22.777344 17.550781 22.703125 17.695312 22.699219 17.699219 C 22.683594 17.714844 21.054688 17.347656 21.023438 17.320312 C 21.003906 17.304688 20.996094 17.214844 20.996094 17.011719 C 20.996094 16.703125 21.015625 16.644531 21.121094 16.667969 C 21.148438 16.675781 21.566406 16.761719 22.046875 16.859375 Z M 20.382812 16.738281 C 20.410156 16.765625 20.417969 16.824219 20.417969 17.003906 C 20.417969 17.222656 20.414062 17.238281 20.371094 17.265625 C 20.292969 17.316406 19.066406 17.46875 19.027344 17.433594 C 19.003906 17.417969 18.996094 17.347656 18.996094 17.183594 C 18.996094 16.984375 19 16.949219 19.039062 16.914062 C 19.070312 16.886719 19.222656 16.855469 19.644531 16.792969 C 20.300781 16.695312 20.339844 16.691406 20.382812 16.738281 Z M 16.144531 17.207031 L 16.136719 17.402344 L 15.914062 17.441406 C 15.792969 17.460938 15.660156 17.488281 15.621094 17.492188 L 15.546875 17.507812 L 15.546875 17.109375 L 15.765625 17.070312 C 15.882812 17.050781 15.992188 17.03125 16.003906 17.027344 C 16.015625 17.023438 16.054688 17.015625 16.085938 17.015625 L 16.148438 17.015625 Z M 14.96875 17.410156 L 14.96875 17.605469 L 13.675781 17.832031 C 12.960938 17.960938 12.371094 18.058594 12.363281 18.058594 C 12.351562 18.058594 12.34375 17.976562 12.34375 17.875 L 12.34375 17.6875 L 12.441406 17.671875 C 12.492188 17.664062 12.648438 17.632812 12.789062 17.601562 C 13.054688 17.542969 14.832031 17.222656 14.921875 17.21875 C 14.964844 17.214844 14.96875 17.222656 14.96875 17.410156 Z M 17.617188 17.929688 C 18.039062 18.003906 18.394531 18.074219 18.410156 18.089844 C 18.429688 18.105469 18.4375 18.203125 18.4375 18.441406 C 18.4375 18.710938 18.433594 18.773438 18.402344 18.804688 C 18.386719 18.824219 18.363281 18.839844 18.355469 18.839844 C 18.28125 18.835938 16.800781 18.410156 16.769531 18.378906 C 16.734375 18.347656 16.726562 18.308594 16.726562 18.082031 C 16.726562 17.816406 16.742188 17.761719 16.816406 17.78125 C 16.832031 17.785156 17.191406 17.855469 17.617188 17.929688 Z M 20.390625 17.886719 C 20.429688 17.925781 20.425781 18.460938 20.390625 18.515625 C 20.367188 18.546875 20.199219 18.589844 19.714844 18.695312 C 19.363281 18.773438 19.070312 18.839844 19.066406 18.839844 C 19.066406 18.839844 19.046875 18.824219 19.03125 18.804688 C 19 18.773438 18.996094 18.707031 18.996094 18.429688 C 18.996094 18.179688 19 18.082031 19.023438 18.066406 C 19.039062 18.050781 19.339844 18 19.695312 17.953125 C 20.050781 17.90625 20.34375 17.863281 20.355469 17.863281 C 20.359375 17.859375 20.375 17.871094 20.390625 17.886719 Z M 21.730469 18.082031 C 22.078125 18.160156 22.375 18.230469 22.382812 18.238281 C 22.394531 18.25 22.375 18.304688 22.339844 18.363281 C 22.253906 18.507812 22 18.90625 21.988281 18.90625 C 21.945312 18.90625 21.066406 18.582031 21.035156 18.554688 C 21.003906 18.523438 20.996094 18.480469 20.996094 18.25 C 20.996094 17.984375 21.015625 17.914062 21.074219 17.933594 C 21.085938 17.9375 21.382812 18.003906 21.730469 18.082031 Z M 16.152344 18.335938 C 16.160156 18.738281 16.171875 18.769531 16.371094 18.867188 C 16.496094 18.929688 18.558594 19.507812 18.652344 19.507812 C 18.679688 19.507812 18.746094 19.496094 18.800781 19.480469 C 18.851562 19.46875 19.265625 19.378906 19.71875 19.28125 C 20.171875 19.183594 20.574219 19.09375 20.617188 19.082031 C 20.683594 19.066406 20.75 19.082031 21.140625 19.21875 C 21.386719 19.304688 21.597656 19.378906 21.613281 19.382812 C 21.65625 19.398438 21.632812 19.433594 21.429688 19.683594 C 20.796875 20.472656 20.050781 21.179688 19.316406 21.691406 C 19.027344 21.890625 18.101562 22.4375 17.714844 22.636719 C 16.851562 23.078125 15.507812 23.488281 14.402344 23.640625 C 13.621094 23.753906 12.734375 23.78125 12.019531 23.722656 C 11.773438 23.703125 11.550781 23.683594 11.523438 23.675781 C 11.496094 23.671875 11.414062 23.660156 11.34375 23.65625 C 11.277344 23.644531 11.207031 23.636719 11.1875 23.632812 C 11.171875 23.628906 11.113281 23.617188 11.058594 23.609375 C 10.695312 23.558594 9.828125 23.332031 9.269531 23.140625 C 8.226562 22.785156 7.363281 22.34375 6.417969 21.6875 C 6.113281 21.476562 5.648438 21.089844 5.265625 20.734375 C 4.976562 20.46875 4.570312 20.042969 4.589844 20.023438 C 4.605469 20.011719 16 18 16.085938 17.996094 L 16.144531 17.992188 Z M 16.152344 18.335938 "
        />
        <path
            stroke="none"
            fillRule="nonzero"
            fill="rgb(0%,0%,0%)"
            fillOpacity="1"
            d="M 16.9375 14.890625 C 16.898438 14.90625 16.835938 14.953125 16.800781 14.996094 C 16.671875 15.140625 16.675781 15.332031 16.804688 15.480469 C 16.902344 15.585938 17.007812 15.621094 17.140625 15.601562 C 17.265625 15.585938 17.375 15.492188 17.425781 15.363281 C 17.542969 15.066406 17.230469 14.761719 16.9375 14.890625 Z M 16.9375 14.890625 "
        />
        <path
            stroke="none"
            fillRule="nonzero"
            fill="rgb(0%,0%,0%)"
            fillOpacity="1"
            d="M 15.898438 15.058594 C 15.78125 15.121094 15.71875 15.234375 15.71875 15.378906 C 15.71875 15.703125 16.078125 15.875 16.324219 15.667969 C 16.421875 15.585938 16.460938 15.5 16.460938 15.375 C 16.460938 15.09375 16.15625 14.925781 15.898438 15.058594 Z M 15.898438 15.058594 "
        />
        <path
            stroke="none"
            fillRule="nonzero"
            fill="rgb(0%,0%,0%)"
            fillOpacity="1"
            d="M 14.914062 15.226562 C 14.738281 15.285156 14.632812 15.464844 14.667969 15.640625 C 14.714844 15.890625 14.984375 16.019531 15.210938 15.902344 C 15.503906 15.753906 15.453125 15.304688 15.128906 15.214844 C 15.027344 15.1875 15.023438 15.1875 14.914062 15.226562 Z M 14.914062 15.226562 "
        />
    </g>
</svg>