 <svg
    xmlns="http://www.w3.org/2000/svg"
    width="25px"
    height="25px"
    viewBox="0 0 25 25"
    version="1.1"
>
    <g id="surface1">
        <path
            stroke="none"
            fillRule="nonzero"
            fill="black"
            fillOpacity="1"
            d="M 12.496094 1.011719 C 12.492188 1.015625 12.347656 1.023438 12.175781 1.03125 C 11.714844 1.054688 10.984375 1.148438 10.53125 1.246094 C 10.339844 1.289062 10.046875 1.355469 9.941406 1.382812 C 9.492188 1.492188 8.632812 1.78125 8.273438 1.941406 C 7.976562 2.074219 7.65625 2.234375 7.445312 2.347656 C 7.320312 2.421875 7.199219 2.488281 7.171875 2.5 C 7.148438 2.511719 7.101562 2.542969 7.0625 2.566406 C 7.027344 2.589844 6.960938 2.632812 6.917969 2.65625 C 6.875 2.683594 6.734375 2.777344 6.605469 2.859375 C 6.375 3.007812 6.320312 3.050781 5.800781 3.433594 C 5.136719 3.921875 4.222656 4.824219 3.699219 5.507812 C 3.097656 6.289062 2.675781 6.953125 2.398438 7.535156 C 1.882812 8.628906 1.53125 9.71875 1.34375 10.808594 C 1.230469 11.460938 1.195312 11.832031 1.183594 12.539062 C 1.171875 13.410156 1.207031 13.921875 1.335938 14.679688 C 1.558594 15.960938 2.078125 17.40625 2.714844 18.496094 C 3.53125 19.890625 4.5625 21.066406 5.78125 21.996094 C 6.664062 22.667969 7.652344 23.222656 8.597656 23.585938 C 9.132812 23.789062 10.003906 24.03125 10.597656 24.144531 C 10.621094 24.148438 10.667969 24.160156 10.699219 24.164062 C 10.730469 24.171875 10.789062 24.179688 10.832031 24.1875 C 10.875 24.195312 10.925781 24.207031 10.941406 24.210938 C 10.960938 24.214844 11.019531 24.226562 11.078125 24.234375 C 11.132812 24.238281 11.191406 24.25 11.210938 24.253906 C 11.226562 24.257812 11.300781 24.269531 11.367188 24.277344 C 11.4375 24.285156 11.515625 24.296875 11.546875 24.300781 C 11.574219 24.304688 11.660156 24.316406 11.734375 24.320312 C 11.804688 24.328125 11.925781 24.335938 12 24.347656 C 12.589844 24.402344 13.464844 24.402344 14.03125 24.339844 C 14.320312 24.3125 14.46875 24.296875 14.570312 24.277344 C 14.601562 24.273438 14.667969 24.261719 14.722656 24.253906 C 14.960938 24.222656 15.558594 24.097656 15.871094 24.011719 C 15.980469 23.980469 16.09375 23.949219 16.117188 23.945312 C 16.183594 23.929688 16.824219 23.710938 17.015625 23.632812 C 17.707031 23.375 18.644531 22.878906 19.394531 22.386719 C 20.476562 21.675781 21.480469 20.730469 22.230469 19.71875 C 23.113281 18.523438 23.820312 17.058594 24.152344 15.734375 C 24.46875 14.464844 24.59375 12.886719 24.476562 11.699219 C 24.316406 10.121094 23.996094 8.925781 23.398438 7.683594 C 22.34375 5.484375 20.746094 3.730469 18.738281 2.578125 C 18.410156 2.390625 17.714844 2.054688 17.363281 1.914062 C 16.429688 1.542969 15.238281 1.226562 14.347656 1.113281 C 14.015625 1.070312 14.011719 1.070312 13.578125 1.035156 C 13.410156 1.019531 12.507812 1 12.496094 1.011719 Z M 13.804688 1.679688 C 14.128906 1.710938 14.304688 1.734375 14.679688 1.792969 C 14.722656 1.800781 14.792969 1.8125 14.835938 1.824219 C 14.878906 1.835938 14.949219 1.851562 14.996094 1.855469 C 15.0625 1.867188 15.515625 1.980469 15.703125 2.035156 C 15.871094 2.082031 16.160156 2.167969 16.257812 2.203125 C 16.746094 2.367188 16.910156 2.429688 17.089844 2.511719 C 17.140625 2.535156 17.222656 2.570312 17.269531 2.589844 C 17.488281 2.679688 17.558594 2.714844 17.914062 2.890625 C 19.296875 3.585938 20.609375 4.652344 21.488281 5.78125 C 21.695312 6.050781 22.097656 6.621094 22.269531 6.894531 C 22.953125 7.988281 23.492188 9.386719 23.742188 10.71875 C 23.785156 10.941406 23.886719 11.664062 23.886719 11.738281 C 23.886719 11.742188 21.757812 11.742188 19.152344 11.742188 L 14.417969 11.742188 L 14.246094 11.425781 C 13.695312 10.414062 12.878906 9.371094 12.253906 8.882812 L 12.085938 8.75 L 12.285156 8.636719 C 12.398438 8.574219 12.628906 8.421875 12.800781 8.296875 C 12.972656 8.167969 13.15625 8.046875 13.210938 8.023438 C 13.375 7.949219 13.652344 7.921875 14.390625 7.894531 C 15.296875 7.867188 15.363281 7.855469 15.539062 7.667969 C 15.65625 7.550781 15.679688 7.496094 15.679688 7.390625 C 15.679688 7.222656 15.554688 7.089844 14.933594 6.597656 C 14.371094 6.15625 13.867188 5.859375 13.53125 5.773438 C 13.152344 5.675781 12.671875 5.679688 12.09375 5.789062 C 11.84375 5.835938 11.832031 5.835938 11.792969 5.796875 C 11.757812 5.761719 11.761719 5.746094 11.867188 5.546875 C 11.929688 5.425781 12.015625 5.292969 12.058594 5.242188 C 12.140625 5.15625 12.144531 5.15625 12.257812 5.164062 C 12.410156 5.179688 12.46875 5.128906 12.511719 4.949219 C 12.613281 4.515625 12.472656 4.164062 12.144531 4.015625 C 11.9375 3.921875 11.566406 3.847656 11.316406 3.847656 C 10.949219 3.847656 10.257812 3.988281 9.664062 4.191406 C 9.054688 4.398438 8.734375 4.570312 8.476562 4.828125 C 8.292969 5.007812 8.207031 5.152344 8.074219 5.484375 C 8.019531 5.613281 7.980469 5.683594 7.953125 5.691406 C 7.929688 5.695312 7.84375 5.621094 7.710938 5.488281 C 7.3125 5.085938 6.960938 4.992188 6.464844 5.15625 C 6.046875 5.296875 5.574219 5.617188 5.136719 6.050781 C 4.675781 6.503906 4.382812 6.929688 4.246094 7.339844 C 4.175781 7.546875 4.175781 7.554688 4.195312 7.777344 C 4.226562 8.082031 4.289062 8.210938 4.519531 8.433594 C 4.613281 8.523438 4.691406 8.621094 4.691406 8.640625 C 4.691406 8.664062 4.632812 8.742188 4.558594 8.824219 C 4.261719 9.140625 4.007812 9.59375 3.898438 10 C 3.851562 10.1875 3.839844 10.265625 3.839844 10.566406 C 3.835938 10.9375 3.859375 11.089844 3.984375 11.503906 C 4.019531 11.625 4.046875 11.726562 4.046875 11.734375 C 4.046875 11.738281 3.550781 11.742188 2.945312 11.742188 L 1.839844 11.742188 L 1.855469 11.605469 C 1.886719 11.292969 2.039062 10.507812 2.167969 9.953125 C 2.414062 8.90625 3.035156 7.523438 3.710938 6.515625 C 4.207031 5.78125 4.789062 5.105469 5.460938 4.492188 C 6.144531 3.863281 7.09375 3.226562 7.984375 2.796875 C 9.0625 2.277344 10.316406 1.902344 11.574219 1.734375 C 12.222656 1.644531 13.179688 1.625 13.804688 1.679688 Z M 11.535156 4.449219 C 11.683594 4.476562 11.765625 4.523438 11.765625 4.574219 C 11.765625 4.59375 11.707031 4.703125 11.636719 4.816406 C 11.429688 5.132812 11.265625 5.457031 11.167969 5.746094 C 11.117188 5.894531 11.066406 6.023438 11.050781 6.039062 C 11.035156 6.054688 10.882812 6.125 10.714844 6.191406 C 10.105469 6.433594 9.410156 6.804688 9.054688 7.074219 C 8.953125 7.152344 8.851562 7.230469 8.828125 7.246094 C 8.738281 7.316406 8.691406 7.230469 8.59375 6.816406 C 8.511719 6.449219 8.503906 6.054688 8.582031 5.804688 C 8.75 5.265625 9.023438 5.035156 9.773438 4.773438 C 10.136719 4.652344 10.40625 4.578125 10.765625 4.507812 C 11.199219 4.417969 11.3125 4.410156 11.535156 4.449219 Z M 7.0625 5.714844 C 7.261719 5.804688 7.566406 6.207031 7.832031 6.726562 C 7.910156 6.875 8 7.039062 8.039062 7.09375 C 8.121094 7.21875 8.242188 7.558594 8.222656 7.617188 C 8.207031 7.652344 8.183594 7.65625 7.96875 7.640625 C 7.457031 7.609375 6.578125 7.714844 6.078125 7.863281 C 5.941406 7.90625 5.726562 7.988281 5.605469 8.046875 L 5.382812 8.148438 L 5.234375 8.121094 C 5.027344 8.089844 4.894531 8.015625 4.832031 7.90625 C 4.785156 7.828125 4.78125 7.796875 4.789062 7.621094 L 4.800781 7.425781 L 4.988281 7.140625 C 5.300781 6.675781 5.613281 6.351562 6.003906 6.066406 C 6.492188 5.71875 6.832031 5.605469 7.0625 5.714844 Z M 13.351562 6.335938 C 13.535156 6.386719 13.765625 6.492188 14 6.644531 C 14.175781 6.757812 14.570312 7.046875 14.664062 7.136719 C 14.734375 7.203125 14.742188 7.265625 14.683594 7.28125 C 14.660156 7.289062 14.410156 7.304688 14.121094 7.316406 C 13.417969 7.347656 13.15625 7.390625 12.917969 7.507812 C 12.855469 7.539062 12.671875 7.664062 12.511719 7.78125 C 12.183594 8.023438 11.960938 8.160156 11.757812 8.242188 C 11.53125 8.339844 11.25 8.429688 11.128906 8.441406 L 11.015625 8.457031 L 10.851562 8.308594 C 10.460938 7.953125 10.082031 7.753906 9.558594 7.640625 C 9.476562 7.625 9.425781 7.570312 9.449219 7.523438 C 9.496094 7.433594 10.265625 7.023438 10.8125 6.789062 C 11.292969 6.582031 11.894531 6.40625 12.410156 6.328125 C 12.710938 6.28125 13.148438 6.285156 13.351562 6.335938 Z M 9.347656 8.160156 C 9.769531 8.269531 10.144531 8.460938 10.386719 8.6875 C 10.714844 9 10.839844 9.449219 10.84375 10.355469 C 10.84375 10.796875 10.839844 10.835938 10.777344 11.066406 C 10.714844 11.3125 10.582031 11.6875 10.445312 11.980469 L 10.375 12.140625 L 10.242188 12.152344 C 10.167969 12.15625 9.953125 12.175781 9.765625 12.1875 C 9.574219 12.203125 9.300781 12.230469 9.152344 12.25 C 8.714844 12.304688 8.746094 12.3125 8.683594 12.144531 C 8.65625 12.070312 8.554688 11.839844 8.464844 11.644531 C 8.152344 10.972656 8.054688 10.597656 8.035156 10.054688 C 8.023438 9.652344 8.054688 9.425781 8.175781 9.0625 C 8.289062 8.722656 8.582031 8.1875 8.691406 8.117188 C 8.746094 8.082031 9.140625 8.105469 9.347656 8.160156 Z M 7.808594 8.261719 C 7.84375 8.304688 7.832031 8.34375 7.707031 8.644531 C 7.574219 8.96875 7.480469 9.347656 7.449219 9.683594 C 7.417969 10.007812 7.347656 10.21875 7.113281 10.6875 C 6.816406 11.277344 6.519531 11.671875 5.90625 12.289062 C 5.421875 12.777344 5.023438 13.085938 4.929688 13.050781 C 4.898438 13.039062 4.894531 12.996094 4.894531 12.785156 C 4.894531 12.476562 4.851562 12.296875 4.675781 11.742188 C 4.511719 11.242188 4.457031 11.035156 4.425781 10.78125 C 4.367188 10.296875 4.527344 9.789062 4.882812 9.347656 C 5.070312 9.109375 5.253906 8.945312 5.523438 8.769531 C 5.910156 8.511719 6.339844 8.363281 6.90625 8.289062 C 7.261719 8.242188 7.292969 8.234375 7.554688 8.234375 C 7.730469 8.230469 7.785156 8.234375 7.808594 8.261719 Z M 11.5625 9.109375 C 11.710938 9.203125 11.9375 9.378906 12.128906 9.546875 L 12.214844 9.621094 L 12.179688 9.824219 C 12.125 10.140625 12.046875 10.335938 11.878906 10.585938 C 11.789062 10.714844 11.414062 11.089844 11.394531 11.070312 C 11.390625 11.0625 11.394531 10.988281 11.40625 10.902344 C 11.464844 10.539062 11.421875 9.683594 11.332031 9.265625 C 11.296875 9.105469 11.296875 9.09375 11.332031 9.050781 C 11.355469 9.027344 11.382812 9.007812 11.390625 9.007812 C 11.402344 9.007812 11.480469 9.050781 11.5625 9.109375 Z M 12.960938 10.515625 C 13.191406 10.8125 13.480469 11.253906 13.628906 11.519531 L 13.699219 11.644531 L 13.589844 11.871094 C 13.511719 12.027344 13.4375 12.140625 13.351562 12.234375 L 13.21875 12.375 L 13.148438 12.335938 C 13.007812 12.265625 12.226562 12.179688 11.429688 12.152344 C 11.183594 12.144531 10.988281 12.132812 10.988281 12.128906 C 10.988281 12.121094 11.007812 12.089844 11.03125 12.054688 C 11.058594 12.019531 11.085938 11.960938 11.101562 11.925781 C 11.117188 11.871094 11.148438 11.851562 11.238281 11.820312 C 11.59375 11.707031 12.136719 11.242188 12.367188 10.851562 C 12.464844 10.6875 12.570312 10.417969 12.609375 10.222656 L 12.636719 10.089844 L 12.683594 10.144531 C 12.703125 10.171875 12.832031 10.339844 12.960938 10.515625 Z M 7.632812 11.199219 C 7.648438 11.222656 7.695312 11.332031 7.742188 11.449219 C 7.785156 11.570312 7.832031 11.683594 7.839844 11.703125 C 7.855469 11.742188 7.832031 11.742188 7.519531 11.742188 C 7.335938 11.742188 7.183594 11.738281 7.183594 11.734375 C 7.183594 11.726562 7.238281 11.644531 7.300781 11.546875 C 7.363281 11.449219 7.445312 11.324219 7.476562 11.269531 C 7.542969 11.160156 7.582031 11.144531 7.632812 11.199219 Z M 4.28125 12.472656 C 4.34375 12.769531 4.359375 12.894531 4.355469 13.113281 C 4.351562 13.359375 4.378906 13.566406 4.429688 13.625 C 4.445312 13.644531 4.5 13.679688 4.546875 13.703125 C 4.910156 13.867188 5.550781 13.5 6.386719 12.652344 L 6.710938 12.320312 L 7.421875 12.328125 L 8.128906 12.332031 L 8.136719 12.382812 C 8.144531 12.421875 8.132812 12.433594 8.101562 12.433594 C 8.082031 12.433594 7.863281 12.480469 7.621094 12.542969 C 7.015625 12.691406 6.796875 12.800781 6.503906 13.085938 C 6.199219 13.386719 5.953125 13.808594 5.847656 14.203125 C 5.789062 14.429688 5.765625 15.03125 5.804688 15.300781 C 5.820312 15.402344 5.824219 15.492188 5.816406 15.5 C 5.796875 15.519531 5.34375 15.464844 5.082031 15.410156 C 4.960938 15.386719 4.699219 15.3125 4.5 15.246094 C 3.996094 15.070312 4 15.070312 3.550781 15.222656 C 3.085938 15.375 2.863281 15.421875 2.535156 15.421875 C 2.152344 15.425781 2.171875 15.4375 2.105469 15.148438 C 2.058594 14.945312 1.984375 14.582031 1.925781 14.21875 L 1.910156 14.148438 L 2.152344 14.160156 C 2.695312 14.191406 3.421875 14.023438 3.648438 13.820312 C 3.855469 13.628906 3.785156 13.355469 3.519531 13.328125 C 3.4375 13.320312 3.378906 13.332031 3.277344 13.375 C 2.898438 13.535156 2.472656 13.601562 2.085938 13.570312 C 1.964844 13.5625 1.863281 13.546875 1.851562 13.539062 C 1.835938 13.519531 1.804688 12.878906 1.804688 12.539062 L 1.800781 12.320312 L 4.242188 12.320312 Z M 14.101562 12.515625 C 14.261719 12.957031 14.457031 13.800781 14.457031 14.050781 C 14.457031 14.390625 14.019531 14.835938 13.582031 14.949219 C 13.457031 14.980469 13.4375 14.964844 13.410156 14.832031 C 13.375 14.675781 13.359375 13.929688 13.378906 13.40625 L 13.394531 12.925781 L 13.511719 12.859375 C 13.660156 12.773438 13.84375 12.589844 13.925781 12.441406 C 13.964844 12.375 14.003906 12.320312 14.011719 12.320312 C 14.019531 12.320312 14.0625 12.410156 14.101562 12.515625 Z M 23.925781 12.882812 C 23.910156 13.503906 23.875 13.875 23.785156 14.441406 L 23.726562 14.8125 L 23.613281 14.800781 C 23.1875 14.75 22.835938 14.671875 22.480469 14.554688 C 22.15625 14.445312 22.066406 14.425781 21.898438 14.417969 C 21.710938 14.410156 21.675781 14.414062 21.367188 14.511719 C 20.957031 14.636719 20.617188 14.714844 20.261719 14.761719 C 19.894531 14.804688 18.898438 14.828125 18.617188 14.789062 C 18.183594 14.738281 18.101562 14.738281 17.992188 14.796875 C 17.855469 14.867188 17.8125 14.972656 17.875 15.09375 C 17.929688 15.210938 18.0625 15.296875 18.25 15.335938 C 18.492188 15.386719 19.082031 15.417969 19.449219 15.402344 C 20.363281 15.363281 20.871094 15.285156 21.546875 15.070312 C 21.6875 15.027344 21.832031 14.992188 21.867188 14.992188 C 21.902344 14.992188 22.09375 15.042969 22.292969 15.109375 C 22.652344 15.230469 23.089844 15.328125 23.394531 15.359375 C 23.503906 15.371094 23.5625 15.386719 23.570312 15.40625 C 23.578125 15.421875 23.535156 15.589844 23.480469 15.777344 C 23.164062 16.804688 22.664062 17.878906 22.09375 18.753906 C 21.902344 19.050781 21.496094 19.613281 21.371094 19.757812 L 21.296875 19.839844 L 20.90625 19.703125 C 20.273438 19.484375 19.257812 19.1875 18.742188 19.074219 L 18.679688 19.058594 L 18.730469 18.976562 C 18.816406 18.835938 18.976562 18.632812 19.109375 18.5 L 19.234375 18.375 L 19.449219 18.464844 C 19.683594 18.554688 19.8125 18.570312 19.9375 18.519531 C 20.023438 18.484375 20.105469 18.386719 20.105469 18.320312 C 20.105469 18.296875 20.023438 18.191406 19.910156 18.074219 C 19.660156 17.816406 19.550781 17.6875 19.550781 17.660156 C 19.550781 17.605469 20.167969 17.183594 20.683594 16.886719 C 20.957031 16.730469 21.015625 16.707031 21.078125 16.71875 C 21.226562 16.746094 21.414062 16.632812 21.488281 16.46875 C 21.640625 16.140625 21.382812 15.800781 21.0625 15.910156 C 20.972656 15.941406 20.964844 15.941406 20.941406 15.90625 C 20.894531 15.820312 20.679688 15.636719 20.523438 15.566406 C 20.320312 15.464844 20.164062 15.425781 19.949219 15.425781 C 19.613281 15.425781 19.335938 15.539062 19.105469 15.773438 C 18.90625 15.96875 18.773438 16.226562 18.753906 16.460938 L 18.738281 16.625 L 18.699219 16.554688 C 18.65625 16.476562 18.601562 16.4375 18.53125 16.4375 C 18.472656 16.4375 18.378906 16.550781 18.351562 16.65625 C 18.320312 16.769531 18.324219 17.042969 18.359375 17.214844 C 18.394531 17.382812 18.40625 17.359375 18.105469 17.59375 C 17.757812 17.863281 17.285156 18.363281 17.023438 18.746094 C 17.023438 18.75 16.855469 18.730469 16.65625 18.707031 C 16.457031 18.679688 16.148438 18.648438 15.96875 18.632812 L 15.648438 18.605469 L 15.652344 18.539062 C 15.664062 18.375 15.820312 17.199219 15.859375 16.9375 C 15.90625 16.664062 15.910156 16.429688 15.871094 16.316406 C 15.859375 16.273438 15.871094 16.261719 15.984375 16.226562 C 16.054688 16.207031 16.167969 16.164062 16.234375 16.132812 C 16.386719 16.066406 16.410156 16.066406 16.566406 16.144531 C 16.820312 16.273438 17.15625 16.363281 17.632812 16.4375 C 17.976562 16.488281 18.128906 16.492188 18.230469 16.445312 C 18.371094 16.375 18.425781 16.230469 18.359375 16.09375 C 18.296875 15.964844 18.21875 15.933594 17.800781 15.867188 C 17.300781 15.789062 17.046875 15.722656 16.792969 15.601562 C 16.484375 15.449219 16.367188 15.445312 16.0625 15.566406 C 15.773438 15.683594 15.503906 15.761719 15.328125 15.78125 L 15.191406 15.796875 L 15.191406 15.449219 C 15.191406 15.257812 15.175781 14.949219 15.15625 14.765625 C 15.136719 14.582031 15.121094 14.40625 15.117188 14.375 C 15.113281 14.320312 15.125 14.316406 15.347656 14.257812 C 15.691406 14.164062 15.941406 14.050781 16.25 13.84375 L 16.527344 13.660156 L 16.753906 13.769531 C 17.011719 13.890625 17.265625 13.96875 17.636719 14.042969 C 17.855469 14.082031 17.972656 14.089844 18.425781 14.089844 C 19.007812 14.089844 19.15625 14.070312 19.324219 13.976562 C 19.484375 13.882812 19.542969 13.746094 19.472656 13.613281 C 19.402344 13.476562 19.253906 13.445312 18.90625 13.496094 C 18.722656 13.519531 18.554688 13.523438 18.316406 13.515625 C 17.75 13.496094 17.359375 13.40625 16.902344 13.191406 C 16.476562 12.984375 16.429688 12.992188 15.960938 13.328125 C 15.863281 13.402344 15.714844 13.488281 15.628906 13.53125 C 15.46875 13.609375 15.121094 13.722656 15.054688 13.722656 C 15.027344 13.722656 15.007812 13.6875 14.992188 13.59375 C 14.894531 13.117188 14.734375 12.488281 14.675781 12.386719 C 14.667969 12.363281 14.65625 12.34375 14.65625 12.335938 C 14.65625 12.328125 16.746094 12.320312 19.300781 12.320312 L 23.9375 12.320312 Z M 11.554688 12.746094 C 12.121094 12.769531 12.746094 12.828125 12.777344 12.859375 C 12.808594 12.890625 12.792969 14.664062 12.761719 14.683594 C 12.710938 14.714844 12.398438 14.578125 12.167969 14.425781 C 12.039062 14.335938 11.886719 14.242188 11.832031 14.210938 C 11.4375 14.011719 11.046875 14.085938 10.488281 14.46875 C 10.375 14.542969 10.261719 14.613281 10.238281 14.621094 C 10.214844 14.628906 10.050781 14.664062 9.867188 14.699219 C 9.367188 14.796875 9.136719 14.9375 8.839844 15.3125 C 8.660156 15.546875 8.625 15.574219 8.402344 15.660156 C 8.136719 15.761719 8.039062 15.816406 7.855469 15.957031 C 7.753906 16.039062 7.683594 16.078125 7.671875 16.066406 C 7.597656 15.992188 7.648438 13.207031 7.726562 13.132812 C 7.75 13.105469 8.359375 12.96875 8.761719 12.902344 C 9.691406 12.746094 10.519531 12.699219 11.554688 12.746094 Z M 7.074219 13.804688 C 7.066406 14.019531 7.0625 14.675781 7.0625 15.25 C 7.0625 16.164062 7.058594 16.304688 7.03125 16.304688 C 7.011719 16.304688 6.914062 16.214844 6.804688 16.109375 C 6.589844 15.890625 6.503906 15.738281 6.425781 15.445312 C 6.359375 15.207031 6.351562 14.589844 6.414062 14.367188 C 6.464844 14.171875 6.621094 13.851562 6.75 13.683594 C 6.863281 13.53125 7.023438 13.386719 7.058594 13.394531 C 7.078125 13.402344 7.078125 13.535156 7.074219 13.804688 Z M 11.578125 14.738281 C 11.613281 14.761719 11.726562 14.832031 11.828125 14.90625 C 12.066406 15.078125 12.253906 15.164062 12.675781 15.292969 C 13.039062 15.398438 13.085938 15.417969 13.15625 15.484375 C 13.179688 15.503906 13.238281 15.539062 13.28125 15.554688 C 13.328125 15.574219 13.453125 15.660156 13.558594 15.746094 C 13.675781 15.84375 13.835938 15.941406 13.964844 16.003906 C 14.171875 16.101562 14.347656 16.238281 14.347656 16.296875 C 14.347656 16.339844 14.285156 16.355469 13.902344 16.421875 C 13.710938 16.457031 13.097656 16.566406 12.535156 16.671875 C 11.96875 16.773438 11.378906 16.878906 11.222656 16.902344 C 10.726562 16.980469 9.738281 17.105469 9.628906 17.105469 C 9.3125 17.105469 7.945312 16.757812 7.910156 16.671875 C 7.878906 16.585938 8.242188 16.355469 8.722656 16.160156 C 8.953125 16.066406 9.058594 15.984375 9.230469 15.769531 C 9.433594 15.515625 9.585938 15.378906 9.714844 15.339844 C 9.773438 15.316406 9.933594 15.28125 10.070312 15.257812 C 10.398438 15.199219 10.53125 15.148438 10.78125 14.976562 C 11.203125 14.691406 11.375 14.640625 11.578125 14.738281 Z M 14.609375 15.453125 L 14.613281 15.703125 L 14.507812 15.628906 C 14.449219 15.585938 14.335938 15.523438 14.257812 15.492188 C 14.175781 15.457031 14.105469 15.425781 14.09375 15.414062 C 14.085938 15.40625 14.148438 15.355469 14.238281 15.296875 C 14.328125 15.238281 14.441406 15.152344 14.492188 15.101562 L 14.578125 15.011719 L 14.59375 15.105469 C 14.601562 15.160156 14.609375 15.316406 14.609375 15.453125 Z M 4.273438 15.789062 C 4.75 15.964844 5.214844 16.054688 5.707031 16.074219 L 6.042969 16.085938 L 6.140625 16.230469 C 6.242188 16.386719 6.484375 16.640625 6.667969 16.777344 C 6.734375 16.824219 6.789062 16.886719 6.792969 16.914062 C 6.800781 16.9375 6.8125 17.109375 6.824219 17.292969 C 6.839844 17.476562 6.855469 17.648438 6.863281 17.671875 C 6.875 17.714844 6.863281 17.726562 6.722656 17.75 C 6.632812 17.769531 6.445312 17.78125 6.25 17.78125 C 5.828125 17.777344 5.566406 17.722656 5.273438 17.582031 C 4.925781 17.414062 4.828125 17.414062 4.4375 17.570312 C 4.339844 17.609375 4.070312 17.710938 3.835938 17.796875 C 3.378906 17.960938 3.3125 18.003906 3.3125 18.136719 C 3.3125 18.28125 3.484375 18.371094 3.757812 18.371094 C 3.957031 18.371094 4.082031 18.339844 4.546875 18.15625 L 4.859375 18.035156 L 5.070312 18.132812 C 5.316406 18.246094 5.457031 18.289062 5.792969 18.339844 C 6.082031 18.386719 6.65625 18.375 6.847656 18.324219 C 6.960938 18.289062 6.960938 18.289062 6.972656 18.335938 C 7.027344 18.589844 7.109375 18.914062 7.164062 19.09375 C 7.203125 19.210938 7.222656 19.320312 7.214844 19.328125 C 7.203125 19.335938 7.058594 19.378906 6.894531 19.414062 C 6.359375 19.539062 5.785156 19.703125 5.199219 19.898438 C 4.882812 20.003906 4.621094 20.085938 4.617188 20.082031 C 4.613281 20.078125 4.53125 19.976562 4.433594 19.863281 C 3.617188 18.890625 2.953125 17.71875 2.484375 16.414062 C 2.429688 16.261719 2.378906 16.109375 2.367188 16.078125 L 2.355469 16.019531 L 2.652344 16.007812 C 3.003906 15.988281 3.261719 15.9375 3.644531 15.808594 C 3.800781 15.753906 3.953125 15.707031 3.984375 15.707031 C 4.015625 15.703125 4.144531 15.742188 4.273438 15.789062 Z M 20.246094 16.078125 C 20.332031 16.121094 20.507812 16.269531 20.507812 16.300781 C 20.507812 16.308594 20.410156 16.371094 20.292969 16.4375 C 20.027344 16.589844 19.585938 16.875 19.410156 17.007812 C 19.335938 17.066406 19.273438 17.101562 19.261719 17.089844 C 19.226562 17.054688 19.203125 16.820312 19.222656 16.679688 C 19.261719 16.375 19.433594 16.15625 19.726562 16.046875 C 19.84375 16 20.117188 16.015625 20.246094 16.078125 Z M 15.269531 16.800781 C 15.277344 16.820312 15.261719 16.976562 15.238281 17.152344 C 15.214844 17.328125 15.167969 17.675781 15.136719 17.925781 C 15.105469 18.179688 15.054688 18.539062 15.023438 18.726562 C 14.996094 18.917969 14.960938 19.1875 14.945312 19.328125 C 14.929688 19.46875 14.914062 19.597656 14.90625 19.613281 C 14.886719 19.652344 14.394531 19.789062 14.046875 19.863281 C 13.792969 19.910156 12.746094 20.074219 12.523438 20.097656 C 12.394531 20.109375 12.351562 20.101562 12.15625 20.035156 C 11.671875 19.867188 10.964844 19.714844 10.386719 19.652344 C 10.214844 19.632812 10.058594 19.609375 10.042969 19.59375 C 10.027344 19.582031 10.003906 19.5 9.992188 19.410156 C 9.925781 18.984375 9.839844 17.808594 9.863281 17.726562 C 9.882812 17.671875 9.84375 17.679688 10.652344 17.574219 C 11.027344 17.523438 11.523438 17.449219 11.753906 17.40625 C 13.3125 17.128906 14.03125 16.996094 14.546875 16.894531 C 15.195312 16.765625 15.253906 16.753906 15.269531 16.800781 Z M 7.847656 17.296875 C 8.277344 17.429688 8.820312 17.574219 9.0625 17.617188 C 9.148438 17.632812 9.230469 17.652344 9.242188 17.664062 C 9.257812 17.671875 9.273438 17.824219 9.285156 18.03125 C 9.300781 18.4375 9.355469 19.089844 9.394531 19.390625 C 9.414062 19.539062 9.414062 19.601562 9.398438 19.613281 C 9.386719 19.621094 9.257812 19.644531 9.121094 19.664062 C 8.875 19.699219 8.859375 19.699219 8.785156 19.660156 C 8.738281 19.636719 8.597656 19.578125 8.472656 19.53125 C 8.199219 19.429688 7.925781 19.296875 7.855469 19.234375 C 7.738281 19.125 7.519531 18.199219 7.425781 17.457031 C 7.402344 17.25 7.40625 17.171875 7.441406 17.171875 C 7.449219 17.171875 7.632812 17.226562 7.847656 17.296875 Z M 18.714844 17.972656 C 18.757812 18.015625 18.753906 18.019531 18.632812 18.144531 C 18.148438 18.65625 17.730469 19.523438 17.605469 20.285156 L 17.59375 20.363281 L 17.34375 20.363281 C 17.207031 20.359375 17.078125 20.351562 17.0625 20.34375 C 17.039062 20.328125 17.035156 20.292969 17.046875 20.191406 C 17.101562 19.703125 17.480469 19.027344 17.992188 18.5 C 18.261719 18.21875 18.597656 17.925781 18.652344 17.925781 C 18.664062 17.925781 18.695312 17.945312 18.714844 17.972656 Z M 16.34375 19.261719 C 16.53125 19.28125 16.6875 19.304688 16.691406 19.308594 C 16.699219 19.316406 16.671875 19.394531 16.636719 19.484375 C 16.53125 19.734375 16.484375 19.933594 16.460938 20.207031 C 16.445312 20.339844 16.421875 20.460938 16.40625 20.476562 C 16.390625 20.492188 16.300781 20.53125 16.195312 20.5625 C 15.878906 20.667969 15.703125 20.824219 15.703125 21 C 15.703125 21.066406 15.71875 21.101562 15.765625 21.15625 C 15.871094 21.257812 15.933594 21.25 16.480469 21.089844 C 16.976562 20.945312 17.371094 20.917969 17.898438 20.988281 C 18.214844 21.03125 18.3125 21.015625 18.433594 20.894531 C 18.515625 20.8125 18.519531 20.78125 18.46875 20.679688 C 18.417969 20.574219 18.371094 20.53125 18.273438 20.480469 C 18.222656 20.457031 18.179688 20.429688 18.175781 20.429688 C 18.152344 20.40625 18.375 19.628906 18.410156 19.609375 C 18.457031 19.578125 19.796875 19.953125 20.535156 20.199219 L 20.886719 20.316406 L 20.679688 20.53125 C 20.277344 20.941406 19.761719 21.382812 19.316406 21.691406 C 19.027344 21.890625 18.101562 22.4375 17.714844 22.636719 C 16.851562 23.078125 15.507812 23.488281 14.402344 23.640625 C 13.621094 23.753906 12.734375 23.78125 12.019531 23.722656 C 11.773438 23.703125 11.550781 23.683594 11.523438 23.675781 C 11.496094 23.671875 11.414062 23.660156 11.34375 23.65625 C 11.277344 23.644531 11.207031 23.636719 11.1875 23.632812 C 11.171875 23.628906 11.113281 23.617188 11.058594 23.609375 C 10.878906 23.585938 10.363281 23.464844 9.996094 23.363281 C 8.8125 23.039062 7.703125 22.542969 6.785156 21.933594 C 6.394531 21.671875 6.410156 21.679688 6.195312 21.519531 C 5.882812 21.289062 5.652344 21.09375 5.242188 20.714844 L 5.070312 20.554688 L 5.488281 20.417969 C 6.007812 20.25 6.636719 20.074219 7.234375 19.9375 L 7.699219 19.832031 L 7.820312 19.890625 C 7.886719 19.925781 7.941406 19.960938 7.941406 19.972656 C 7.941406 19.984375 7.914062 20.007812 7.878906 20.027344 C 7.765625 20.085938 7.105469 20.300781 6.921875 20.339844 C 6.710938 20.386719 6.605469 20.445312 6.574219 20.535156 C 6.492188 20.765625 6.929688 20.886719 7.457031 20.773438 C 7.578125 20.746094 7.820312 20.675781 7.984375 20.613281 C 8.824219 20.300781 8.96875 20.265625 9.441406 20.21875 C 10.132812 20.148438 11.316406 20.339844 12.144531 20.652344 C 12.636719 20.839844 12.992188 20.957031 13.246094 21.019531 C 13.742188 21.140625 14.332031 21.203125 14.484375 21.15625 C 14.601562 21.117188 14.679688 21.015625 14.679688 20.90625 C 14.679688 20.703125 14.558594 20.613281 14.269531 20.585938 C 13.949219 20.558594 13.878906 20.546875 13.878906 20.515625 C 13.878906 20.5 13.894531 20.484375 13.914062 20.484375 C 14.035156 20.484375 15.054688 20.222656 15.179688 20.15625 C 15.300781 20.09375 15.453125 19.949219 15.476562 19.878906 C 15.488281 19.835938 15.503906 19.699219 15.511719 19.566406 C 15.519531 19.433594 15.53125 19.296875 15.539062 19.257812 L 15.554688 19.191406 L 15.777344 19.207031 C 15.902344 19.214844 16.15625 19.238281 16.34375 19.261719 Z M 16.34375 19.261719 "
        />
        <path
            stroke="none"
            fillRule="nonzero"
            fill="black"
            fillOpacity="1"
            d="M 10.804688 15.113281 C 10.503906 15.210938 10.441406 15.242188 10.398438 15.324219 C 10.296875 15.523438 10.4375 15.746094 10.660156 15.746094 C 10.746094 15.746094 11.179688 15.617188 11.292969 15.558594 C 11.34375 15.535156 11.382812 15.488281 11.414062 15.421875 C 11.457031 15.324219 11.457031 15.316406 11.421875 15.21875 C 11.34375 15.019531 11.191406 14.992188 10.804688 15.113281 Z M 10.804688 15.113281 "
        />
        <path
            stroke="none"
            fillRule="nonzero"
            fill="black"
            fillOpacity="1"
            d="M 12.085938 15.660156 C 11.992188 15.714844 11.964844 15.765625 11.964844 15.890625 C 11.964844 16.03125 12.046875 16.109375 12.355469 16.28125 C 12.554688 16.390625 12.617188 16.414062 12.703125 16.414062 C 12.882812 16.414062 13.011719 16.261719 12.976562 16.085938 C 12.957031 15.972656 12.84375 15.871094 12.574219 15.730469 C 12.320312 15.597656 12.207031 15.582031 12.085938 15.660156 Z M 12.085938 15.660156 "
        />
        <path
            stroke="none"
            fillRule="nonzero"
            fill="black"
            fillOpacity="1"
            d="M 11.207031 15.976562 C 11.164062 16.003906 11.113281 16.0625 11.09375 16.109375 C 11.054688 16.179688 11.054688 16.203125 11.078125 16.269531 C 11.105469 16.359375 11.207031 16.449219 11.296875 16.46875 C 11.386719 16.488281 11.511719 16.433594 11.566406 16.34375 C 11.652344 16.199219 11.605469 16.035156 11.453125 15.957031 C 11.367188 15.910156 11.292969 15.917969 11.207031 15.976562 Z M 11.207031 15.976562 "
        />
        <path
            stroke="none"
            fillRule="nonzero"
            fill="black"
            fillOpacity="1"
            d="M 9.371094 16.167969 C 9.273438 16.226562 9.230469 16.300781 9.230469 16.398438 C 9.230469 16.59375 9.335938 16.675781 9.664062 16.734375 C 10.144531 16.820312 10.296875 16.804688 10.386719 16.65625 C 10.476562 16.503906 10.421875 16.320312 10.261719 16.253906 C 10.179688 16.214844 9.804688 16.152344 9.5625 16.132812 C 9.46875 16.125 9.425781 16.132812 9.371094 16.167969 Z M 9.371094 16.167969 "
        />
        <path
            stroke="none"
            fillRule="nonzero"
            fill="black"
            fillOpacity="1"
            d="M 12.601562 17.484375 C 12.515625 17.554688 12.476562 17.640625 12.476562 17.785156 C 12.476562 17.941406 12.527344 18.050781 12.632812 18.121094 C 12.820312 18.246094 13.054688 18.101562 13.054688 17.859375 C 13.054688 17.710938 13.015625 17.59375 12.933594 17.511719 C 12.875 17.449219 12.84375 17.4375 12.761719 17.4375 C 12.695312 17.4375 12.640625 17.453125 12.601562 17.484375 Z M 12.601562 17.484375 "
        />
    </g>
</svg>