<svg
    xmlns="http://www.w3.org/2000/svg"
    width="25px"
    height="25px"
    viewBox="0 0 25 25"
    version="1.1"
>
    <g id="surface1">
        <path
            stroke="none"
            fillRule="nonzero"
            fill="black"
            fillOpacity="1"
            d="M 12.496094 1.011719 C 12.492188 1.015625 12.347656 1.023438 12.175781 1.03125 C 11.714844 1.054688 10.984375 1.148438 10.53125 1.246094 C 10.339844 1.289062 10.046875 1.355469 9.941406 1.382812 C 9.492188 1.492188 8.632812 1.78125 8.273438 1.941406 C 7.976562 2.074219 7.65625 2.234375 7.445312 2.347656 C 7.320312 2.421875 7.199219 2.488281 7.171875 2.5 C 7.148438 2.511719 7.101562 2.542969 7.0625 2.566406 C 7.027344 2.589844 6.960938 2.632812 6.917969 2.65625 C 6.875 2.683594 6.734375 2.777344 6.605469 2.859375 C 6.375 3.007812 6.320312 3.050781 5.800781 3.433594 C 5.136719 3.921875 4.222656 4.824219 3.699219 5.507812 C 3.097656 6.289062 2.675781 6.953125 2.398438 7.535156 C 1.882812 8.628906 1.53125 9.71875 1.34375 10.808594 C 1.230469 11.460938 1.195312 11.832031 1.183594 12.539062 C 1.171875 13.410156 1.207031 13.921875 1.335938 14.679688 C 1.558594 15.960938 2.078125 17.40625 2.714844 18.496094 C 3.53125 19.890625 4.5625 21.066406 5.78125 21.996094 C 6.664062 22.667969 7.652344 23.222656 8.597656 23.585938 C 9.132812 23.789062 10.003906 24.03125 10.597656 24.144531 C 10.621094 24.148438 10.667969 24.160156 10.699219 24.164062 C 10.730469 24.171875 10.789062 24.179688 10.832031 24.1875 C 10.875 24.195312 10.925781 24.207031 10.941406 24.210938 C 10.960938 24.214844 11.019531 24.226562 11.078125 24.234375 C 11.132812 24.238281 11.191406 24.25 11.210938 24.253906 C 11.226562 24.257812 11.300781 24.269531 11.367188 24.277344 C 11.4375 24.285156 11.515625 24.296875 11.546875 24.300781 C 11.574219 24.304688 11.660156 24.316406 11.734375 24.320312 C 11.804688 24.328125 11.925781 24.335938 12 24.347656 C 12.589844 24.402344 13.464844 24.402344 14.03125 24.339844 C 14.320312 24.3125 14.46875 24.296875 14.570312 24.277344 C 14.601562 24.273438 14.667969 24.261719 14.722656 24.253906 C 14.960938 24.222656 15.558594 24.097656 15.871094 24.011719 C 15.980469 23.980469 16.09375 23.949219 16.117188 23.945312 C 16.183594 23.929688 16.824219 23.710938 17.015625 23.632812 C 17.707031 23.375 18.644531 22.878906 19.394531 22.386719 C 20.476562 21.675781 21.480469 20.730469 22.230469 19.71875 C 23.113281 18.523438 23.820312 17.058594 24.152344 15.734375 C 24.46875 14.464844 24.59375 12.886719 24.476562 11.699219 C 24.316406 10.121094 23.996094 8.925781 23.398438 7.683594 C 22.34375 5.484375 20.746094 3.730469 18.738281 2.578125 C 18.410156 2.390625 17.714844 2.054688 17.363281 1.914062 C 16.429688 1.542969 15.238281 1.226562 14.347656 1.113281 C 14.015625 1.070312 14.011719 1.070312 13.578125 1.035156 C 13.410156 1.019531 12.507812 1 12.496094 1.011719 Z M 13.804688 1.679688 C 14.128906 1.710938 14.304688 1.734375 14.679688 1.792969 C 14.722656 1.800781 14.792969 1.8125 14.835938 1.824219 C 14.878906 1.835938 14.949219 1.851562 14.996094 1.855469 C 15.0625 1.867188 15.515625 1.980469 15.703125 2.035156 C 15.871094 2.082031 16.160156 2.167969 16.257812 2.203125 C 16.746094 2.367188 16.910156 2.429688 17.089844 2.511719 C 17.140625 2.535156 17.222656 2.570312 17.269531 2.589844 C 17.488281 2.679688 17.558594 2.714844 17.914062 2.890625 C 19.296875 3.585938 20.609375 4.652344 21.488281 5.78125 C 21.695312 6.050781 22.097656 6.621094 22.269531 6.894531 C 22.847656 7.820312 23.339844 9 23.617188 10.140625 C 24.074219 12.003906 24.019531 14.015625 23.464844 15.8125 C 22.945312 17.496094 22.015625 19.109375 20.851562 20.351562 C 20.601562 20.617188 20.558594 20.660156 20.164062 21.015625 C 19.605469 21.519531 19.078125 21.878906 18.070312 22.445312 C 17.28125 22.890625 16.429688 23.207031 15.300781 23.472656 C 14.304688 23.710938 13.046875 23.804688 12.019531 23.722656 C 11.773438 23.703125 11.550781 23.683594 11.523438 23.675781 C 11.496094 23.671875 11.414062 23.660156 11.34375 23.65625 C 11.277344 23.644531 11.207031 23.636719 11.1875 23.632812 C 11.171875 23.628906 11.113281 23.617188 11.058594 23.609375 C 10.695312 23.558594 9.828125 23.332031 9.269531 23.140625 C 8.226562 22.785156 7.363281 22.34375 6.417969 21.6875 C 5.765625 21.230469 4.96875 20.5 4.425781 19.851562 C 3.03125 18.191406 2.082031 15.910156 1.855469 13.679688 C 1.839844 13.5 1.820312 13.074219 1.808594 12.734375 C 1.792969 11.925781 1.832031 11.546875 2.046875 10.507812 C 2.261719 9.453125 2.496094 8.777344 2.96875 7.816406 C 3.613281 6.511719 4.398438 5.460938 5.460938 4.492188 C 6.144531 3.863281 7.09375 3.226562 7.984375 2.796875 C 9.0625 2.277344 10.316406 1.902344 11.574219 1.734375 C 12.222656 1.644531 13.179688 1.625 13.804688 1.679688 Z M 13.804688 1.679688 "
        />
        <path
            stroke="none"
            fillRule="nonzero"
            fill="black"
            fillOpacity="1"
            d="M 13.742188 3.355469 C 13.375 3.472656 13.109375 3.746094 13.007812 4.113281 C 12.792969 4.894531 13.484375 5.636719 14.285156 5.46875 C 14.675781 5.386719 15.011719 5.070312 15.113281 4.683594 C 15.179688 4.425781 15.148438 4.132812 15.023438 3.886719 C 14.898438 3.644531 14.613281 3.417969 14.335938 3.34375 C 14.179688 3.304688 13.894531 3.308594 13.742188 3.355469 Z M 14.441406 3.65625 C 14.753906 3.769531 14.789062 4.199219 14.5 4.351562 C 14.203125 4.511719 13.867188 4.253906 13.945312 3.933594 C 13.984375 3.792969 14.058594 3.710938 14.207031 3.65625 C 14.308594 3.621094 14.335938 3.621094 14.441406 3.65625 Z M 14.441406 3.65625 "
        />
        <path
            stroke="none"
            fillRule="nonzero"
            fill="black"
            fillOpacity="1"
            d="M 14.480469 7.007812 C 14.070312 7.0625 13.523438 7.320312 13.148438 7.636719 C 13.097656 7.683594 13.03125 7.71875 13.007812 7.71875 C 12.984375 7.71875 12.925781 7.679688 12.871094 7.632812 C 12.585938 7.375 12.347656 7.238281 11.980469 7.121094 C 11.734375 7.039062 11.710938 7.039062 11.589844 7.085938 C 11.371094 7.171875 11.363281 7.300781 11.53125 7.886719 C 11.765625 8.679688 11.816406 8.929688 11.855469 9.441406 C 11.871094 9.695312 11.886719 9.773438 11.933594 9.863281 C 12.007812 10.019531 12.101562 10.082031 12.257812 10.09375 C 12.457031 10.109375 12.648438 10.007812 12.949219 9.726562 C 13.019531 9.660156 13.085938 9.609375 13.097656 9.609375 C 13.113281 9.609375 13.179688 9.632812 13.246094 9.664062 C 13.746094 9.882812 14.484375 10.007812 15.058594 9.964844 C 15.816406 9.90625 16.472656 9.546875 16.707031 9.054688 C 16.804688 8.855469 16.800781 8.738281 16.695312 8.425781 C 16.476562 7.773438 16.148438 7.398438 15.59375 7.160156 C 15.269531 7.023438 14.8125 6.960938 14.480469 7.007812 Z M 15.148438 7.632812 C 15.523438 7.734375 15.839844 7.964844 15.988281 8.246094 C 16.085938 8.433594 16.171875 8.660156 16.171875 8.746094 C 16.171875 8.847656 16.09375 8.953125 15.941406 9.0625 C 15.753906 9.191406 15.652344 9.242188 15.421875 9.308594 C 14.921875 9.457031 14.058594 9.378906 13.5 9.128906 C 13.242188 9.015625 13.015625 8.941406 12.941406 8.941406 C 12.835938 8.941406 12.753906 9 12.648438 9.152344 C 12.488281 9.375 12.449219 9.351562 12.398438 9 C 12.363281 8.734375 12.277344 8.339844 12.210938 8.117188 C 12.1875 8.039062 12.167969 7.957031 12.167969 7.9375 C 12.167969 7.777344 12.460938 8.015625 12.667969 8.339844 C 12.785156 8.523438 12.894531 8.578125 13.039062 8.519531 C 13.070312 8.511719 13.183594 8.410156 13.296875 8.296875 C 13.628906 7.972656 14.035156 7.71875 14.378906 7.628906 C 14.601562 7.570312 14.929688 7.570312 15.148438 7.632812 Z M 15.148438 7.632812 "
        />
        <path
            stroke="none"
            fillRule="nonzero"
            fill="black"
            fillOpacity="1"
            d="M 15.1875 8.195312 C 15.125 8.230469 15.058594 8.351562 15.058594 8.4375 C 15.058594 8.523438 15.148438 8.636719 15.246094 8.671875 C 15.324219 8.699219 15.347656 8.695312 15.417969 8.667969 C 15.507812 8.628906 15.589844 8.515625 15.589844 8.433594 C 15.589844 8.351562 15.523438 8.230469 15.457031 8.195312 C 15.378906 8.152344 15.265625 8.152344 15.1875 8.195312 Z M 15.1875 8.195312 "
        />
        <path
            stroke="none"
            fillRule="nonzero"
            fill="black"
            fillOpacity="1"
            d="M 10.929688 7.648438 C 10.835938 7.707031 10.78125 7.832031 10.769531 8.019531 C 10.761719 8.148438 10.777344 8.25 10.863281 8.597656 C 10.984375 9.105469 11.03125 9.386719 11.03125 9.609375 C 11.03125 9.894531 10.964844 10.066406 10.632812 10.609375 C 10.132812 11.429688 10.007812 11.957031 10.164062 12.605469 C 10.234375 12.898438 10.359375 13.148438 10.675781 13.65625 C 11.003906 14.175781 11.101562 14.628906 11.035156 15.347656 C 11.003906 15.675781 10.964844 15.832031 10.863281 16.058594 L 10.785156 16.226562 L 10.554688 16.113281 C 10.289062 15.980469 9.882812 15.832031 9.667969 15.789062 C 9.546875 15.765625 9.523438 15.753906 9.53125 15.726562 C 9.625 15.515625 9.65625 15.125 9.597656 14.890625 C 9.5625 14.75 9.453125 14.523438 9.289062 14.226562 C 9.238281 14.136719 9.160156 13.960938 9.121094 13.847656 C 9.082031 13.730469 9.03125 13.625 9.011719 13.601562 C 8.890625 13.496094 8.730469 13.523438 8.65625 13.671875 C 8.546875 13.882812 8.582031 14.160156 8.757812 14.476562 C 8.980469 14.890625 9.027344 14.992188 9.042969 15.109375 C 9.058594 15.253906 9.027344 15.417969 8.949219 15.59375 C 8.886719 15.734375 8.859375 15.746094 8.628906 15.746094 L 8.503906 15.746094 L 8.535156 15.628906 C 8.550781 15.566406 8.566406 15.410156 8.566406 15.28125 C 8.566406 14.910156 8.496094 14.660156 8.226562 14.097656 C 8.015625 13.65625 7.996094 13.570312 8.070312 13.277344 C 8.097656 13.175781 8.171875 12.980469 8.234375 12.847656 C 8.402344 12.488281 8.40625 12.300781 8.246094 12.21875 C 8.003906 12.09375 7.753906 12.363281 7.546875 12.984375 C 7.476562 13.183594 7.464844 13.261719 7.457031 13.472656 C 7.441406 13.777344 7.480469 13.914062 7.6875 14.332031 C 7.875 14.703125 7.964844 14.972656 7.980469 15.207031 C 7.992188 15.429688 7.960938 15.558594 7.855469 15.738281 C 7.785156 15.855469 7.761719 15.878906 7.65625 15.921875 L 7.535156 15.96875 L 7.550781 15.828125 C 7.589844 15.410156 7.589844 15.105469 7.554688 14.894531 C 7.519531 14.714844 7.488281 14.625 7.335938 14.324219 C 7.117188 13.871094 7.0625 13.703125 7.0625 13.46875 C 7.066406 13.238281 7.109375 13.109375 7.363281 12.601562 C 7.761719 11.785156 7.832031 11.328125 7.636719 10.875 C 7.472656 10.5 7.128906 10.285156 6.945312 10.441406 C 6.851562 10.519531 6.863281 10.617188 7 10.898438 C 7.0625 11.027344 7.125 11.175781 7.140625 11.230469 C 7.199219 11.453125 7.101562 11.808594 6.816406 12.378906 C 6.546875 12.933594 6.472656 13.164062 6.472656 13.484375 C 6.476562 13.792969 6.539062 14.015625 6.785156 14.523438 C 7.003906 14.980469 7.03125 15.109375 6.984375 15.535156 C 6.949219 15.863281 6.941406 16.316406 6.964844 16.476562 C 6.976562 16.5625 6.972656 16.632812 6.949219 16.722656 C 6.898438 16.917969 6.910156 17.425781 6.976562 17.730469 C 6.984375 17.785156 6.980469 17.789062 6.855469 17.800781 C 6.664062 17.824219 6.4375 17.890625 6.269531 17.980469 L 6.125 18.054688 L 6 17.957031 C 5.835938 17.828125 5.773438 17.726562 5.789062 17.625 C 5.796875 17.582031 5.859375 17.425781 5.925781 17.277344 C 6.097656 16.910156 6.171875 16.621094 6.171875 16.269531 C 6.171875 16.039062 6.160156 15.980469 6.109375 15.824219 C 5.996094 15.472656 5.769531 15.210938 5.457031 15.054688 C 5.304688 14.976562 5.242188 14.960938 5.109375 14.949219 C 4.957031 14.941406 4.941406 14.945312 4.875 15.003906 C 4.820312 15.046875 4.804688 15.078125 4.804688 15.132812 C 4.804688 15.226562 4.863281 15.292969 5.035156 15.390625 C 5.242188 15.507812 5.394531 15.664062 5.488281 15.851562 C 5.558594 15.996094 5.570312 16.042969 5.578125 16.214844 C 5.589844 16.476562 5.527344 16.761719 5.394531 17.03125 C 5.238281 17.355469 5.199219 17.503906 5.210938 17.714844 C 5.214844 17.847656 5.234375 17.921875 5.277344 18.003906 C 5.347656 18.144531 5.503906 18.320312 5.648438 18.425781 L 5.761719 18.507812 L 5.746094 18.632812 C 5.710938 18.976562 5.933594 19.496094 6.421875 20.238281 C 6.683594 20.632812 6.992188 20.933594 7.265625 21.054688 C 7.445312 21.132812 7.71875 21.183594 7.894531 21.164062 C 8.046875 21.148438 8.199219 21.09375 8.246094 21.035156 C 8.269531 21.007812 8.289062 21.011719 8.40625 21.066406 C 8.480469 21.101562 8.613281 21.148438 8.710938 21.175781 C 8.894531 21.222656 9.316406 21.269531 9.46875 21.257812 C 9.554688 21.253906 9.558594 21.257812 9.699219 21.429688 C 9.882812 21.660156 9.957031 21.695312 10.210938 21.695312 C 10.421875 21.695312 10.585938 21.648438 10.8125 21.515625 C 10.996094 21.410156 11.105469 21.304688 11.152344 21.199219 L 11.191406 21.113281 L 11.371094 21.101562 C 11.769531 21.078125 12.304688 20.878906 12.535156 20.679688 L 12.640625 20.582031 L 12.769531 20.683594 C 13.082031 20.933594 13.535156 21.082031 14.304688 21.175781 L 14.515625 21.199219 L 14.546875 21.316406 C 14.625 21.632812 14.722656 21.78125 14.910156 21.882812 C 15.019531 21.941406 15.035156 21.941406 15.359375 21.941406 C 15.820312 21.9375 16.144531 21.851562 16.316406 21.683594 C 16.378906 21.625 16.390625 21.621094 16.449219 21.644531 C 16.484375 21.65625 16.605469 21.671875 16.714844 21.671875 C 16.871094 21.671875 16.957031 21.660156 17.109375 21.609375 C 17.34375 21.535156 17.394531 21.488281 17.570312 21.203125 L 17.695312 21.003906 L 17.828125 20.988281 C 18.015625 20.972656 18.179688 20.90625 18.433594 20.734375 C 18.789062 20.496094 19.074219 20.246094 19.414062 19.878906 C 19.78125 19.472656 20.171875 18.859375 20.25 18.5625 C 20.328125 18.261719 20.277344 17.910156 20.121094 17.660156 C 19.980469 17.4375 19.980469 17.460938 20.035156 17.207031 C 20.0625 17.085938 20.113281 16.867188 20.152344 16.726562 C 20.304688 16.148438 20.25 15.707031 19.992188 15.425781 C 19.859375 15.28125 19.785156 15.234375 19.675781 15.234375 C 19.621094 15.234375 19.585938 15.25 19.554688 15.292969 C 19.488281 15.375 19.492188 15.421875 19.582031 15.589844 C 19.738281 15.890625 19.738281 16.097656 19.585938 16.605469 C 19.539062 16.75 19.496094 16.914062 19.480469 16.96875 C 19.445312 17.132812 19.453125 17.128906 19.351562 17.09375 C 19.300781 17.074219 19.210938 17.054688 19.152344 17.046875 L 19.046875 17.03125 L 19.019531 16.882812 C 18.957031 16.535156 18.675781 16.148438 18.375 15.992188 C 18.328125 15.96875 18.324219 15.953125 18.335938 15.875 C 18.339844 15.828125 18.390625 15.714844 18.441406 15.628906 C 18.617188 15.332031 18.746094 15.058594 18.773438 14.910156 C 18.824219 14.625 18.769531 14.285156 18.570312 13.699219 C 18.433594 13.292969 18.421875 13.21875 18.46875 13.003906 C 18.515625 12.796875 18.597656 12.636719 18.785156 12.378906 C 18.898438 12.21875 18.929688 12.160156 18.929688 12.09375 C 18.929688 11.984375 18.839844 11.914062 18.730469 11.929688 C 18.5625 11.957031 18.214844 12.269531 18.050781 12.539062 C 17.902344 12.785156 17.871094 12.898438 17.875 13.199219 C 17.875 13.46875 17.875 13.46875 18.007812 13.878906 C 18.085938 14.105469 18.164062 14.378906 18.183594 14.484375 C 18.238281 14.78125 18.21875 14.839844 17.921875 15.355469 C 17.863281 15.453125 17.808594 15.578125 17.792969 15.636719 L 17.761719 15.746094 L 17.664062 15.730469 C 17.605469 15.726562 17.527344 15.714844 17.488281 15.703125 L 17.414062 15.691406 L 17.601562 15.3125 C 17.832031 14.851562 17.871094 14.726562 17.855469 14.425781 C 17.839844 14.160156 17.796875 14.023438 17.671875 13.882812 C 17.527344 13.722656 17.335938 13.671875 17.242188 13.773438 C 17.175781 13.84375 17.179688 13.90625 17.261719 14.050781 C 17.398438 14.285156 17.375 14.519531 17.183594 14.859375 C 16.925781 15.3125 16.855469 15.476562 16.839844 15.710938 C 16.824219 15.882812 16.824219 15.886719 16.734375 15.964844 L 16.640625 16.039062 L 16.605469 15.910156 C 16.546875 15.707031 16.382812 15.390625 16.28125 15.285156 C 16.179688 15.179688 16.042969 15.101562 15.859375 15.050781 C 15.710938 15.003906 15.367188 14.945312 15.25 14.945312 L 15.167969 14.945312 L 15.179688 14.863281 C 15.222656 14.609375 15.230469 14.59375 15.457031 14.242188 C 15.660156 13.933594 15.796875 13.648438 15.863281 13.410156 C 15.933594 13.15625 15.9375 12.523438 15.875 12.3125 C 15.796875 12.070312 15.632812 11.96875 15.492188 12.082031 C 15.386719 12.164062 15.367188 12.25 15.347656 12.710938 C 15.320312 13.308594 15.28125 13.421875 14.957031 13.933594 C 14.851562 14.097656 14.742188 14.285156 14.710938 14.351562 C 14.644531 14.5 14.589844 14.738281 14.589844 14.894531 C 14.589844 14.996094 14.585938 15.011719 14.546875 15.011719 C 14.527344 15.011719 14.425781 15.039062 14.324219 15.066406 L 14.144531 15.117188 L 14.125 15.039062 C 14.078125 14.871094 14.074219 14.710938 14.109375 14.492188 C 14.175781 14.09375 14.261719 13.890625 14.59375 13.339844 C 14.703125 13.160156 14.828125 12.9375 14.867188 12.847656 C 15.167969 12.199219 15.117188 11.191406 14.75 10.554688 C 14.574219 10.25 14.414062 10.164062 14.277344 10.296875 C 14.222656 10.355469 14.210938 10.378906 14.210938 10.492188 C 14.210938 10.574219 14.238281 10.699219 14.28125 10.832031 C 14.433594 11.324219 14.460938 11.457031 14.472656 11.753906 C 14.496094 12.261719 14.433594 12.464844 14.101562 13.019531 C 13.980469 13.21875 13.84375 13.453125 13.800781 13.542969 C 13.628906 13.886719 13.5 14.394531 13.5 14.738281 C 13.5 14.898438 13.542969 15.171875 13.585938 15.285156 C 13.609375 15.339844 13.601562 15.347656 13.496094 15.410156 C 13.296875 15.519531 13.007812 15.746094 12.832031 15.925781 C 12.703125 16.050781 12.636719 16.144531 12.574219 16.273438 L 12.488281 16.449219 L 12.492188 16.738281 C 12.492188 17 12.5 17.058594 12.585938 17.394531 C 12.636719 17.59375 12.710938 17.855469 12.746094 17.976562 L 12.816406 18.191406 L 12.734375 18.292969 C 12.6875 18.347656 12.640625 18.386719 12.632812 18.382812 C 12.621094 18.375 12.609375 18.339844 12.601562 18.296875 C 12.59375 18.25 12.546875 18.136719 12.5 18.039062 C 12.40625 17.851562 12.210938 17.648438 12.035156 17.546875 C 11.984375 17.519531 11.945312 17.480469 11.945312 17.464844 C 11.945312 17.445312 11.964844 17.34375 11.992188 17.234375 C 12.023438 17.097656 12.089844 16.933594 12.214844 16.679688 C 12.433594 16.234375 12.507812 16.046875 12.578125 15.773438 C 12.671875 15.386719 12.6875 15.261719 12.6875 14.847656 C 12.683594 14.152344 12.578125 13.808594 12.175781 13.167969 C 11.878906 12.691406 11.765625 12.417969 11.734375 12.09375 C 11.722656 11.976562 11.730469 11.910156 11.789062 11.6875 C 11.914062 11.21875 11.910156 11.246094 11.875 11.175781 C 11.71875 10.855469 11.324219 11.132812 11.1875 11.667969 C 11.054688 12.175781 11.203125 12.71875 11.671875 13.464844 C 11.960938 13.929688 12.046875 14.148438 12.101562 14.605469 C 12.128906 14.855469 12.113281 15.09375 12.054688 15.429688 C 11.996094 15.734375 11.90625 15.980469 11.710938 16.371094 C 11.535156 16.722656 11.449219 16.949219 11.402344 17.171875 L 11.371094 17.316406 L 11.164062 17.316406 L 11.148438 16.832031 L 11.289062 16.53125 C 11.5625 15.957031 11.609375 15.761719 11.625 15.101562 C 11.648438 14.3125 11.546875 13.941406 11.132812 13.28125 C 10.769531 12.699219 10.6875 12.464844 10.703125 12.054688 C 10.71875 11.675781 10.804688 11.460938 11.203125 10.796875 C 11.542969 10.238281 11.617188 10.019531 11.617188 9.609375 C 11.617188 9.289062 11.578125 9.058594 11.40625 8.355469 C 11.277344 7.808594 11.242188 7.707031 11.179688 7.652344 C 11.121094 7.605469 11.003906 7.601562 10.929688 7.648438 Z M 15.378906 15.550781 C 15.476562 15.5625 15.617188 15.589844 15.695312 15.617188 C 15.824219 15.65625 15.84375 15.671875 15.902344 15.761719 C 15.976562 15.878906 16.054688 16.101562 16.132812 16.429688 L 16.1875 16.65625 L 16.050781 16.929688 C 15.972656 17.082031 15.871094 17.320312 15.824219 17.464844 L 15.734375 17.726562 L 15.613281 17.738281 C 15.421875 17.757812 15.304688 17.792969 15.140625 17.863281 L 14.992188 17.933594 L 14.894531 17.867188 C 14.648438 17.695312 14.378906 17.585938 14.125 17.558594 C 13.933594 17.539062 13.675781 17.59375 13.460938 17.695312 C 13.347656 17.746094 13.296875 17.761719 13.289062 17.742188 C 13.265625 17.671875 13.164062 17.289062 13.113281 17.070312 C 13.019531 16.664062 13.042969 16.542969 13.25 16.332031 C 13.65625 15.929688 14.167969 15.675781 14.800781 15.558594 C 15.023438 15.519531 15.164062 15.519531 15.378906 15.550781 Z M 17.695312 16.335938 C 18.019531 16.421875 18.296875 16.625 18.394531 16.847656 C 18.523438 17.136719 18.441406 17.597656 18.175781 18.105469 C 18.109375 18.234375 18.050781 18.34375 18.046875 18.34375 C 18.046875 18.351562 17.972656 18.339844 17.886719 18.320312 C 17.574219 18.246094 17.21875 18.292969 16.933594 18.433594 L 16.800781 18.5 L 16.730469 18.363281 C 16.65625 18.21875 16.550781 18.097656 16.394531 17.96875 L 16.296875 17.886719 L 16.367188 17.679688 C 16.5625 17.113281 16.996094 16.4375 17.226562 16.335938 C 17.316406 16.292969 17.535156 16.296875 17.695312 16.335938 Z M 9.511719 16.359375 C 9.734375 16.398438 10.226562 16.582031 10.382812 16.6875 C 10.53125 16.789062 10.566406 16.867188 10.566406 17.125 C 10.566406 17.242188 10.558594 17.359375 10.550781 17.382812 C 10.546875 17.410156 10.460938 17.464844 10.300781 17.542969 C 10.011719 17.679688 9.839844 17.828125 9.75 18.011719 C 9.699219 18.117188 9.6875 18.164062 9.6875 18.304688 C 9.691406 18.496094 9.78125 18.953125 9.890625 19.335938 C 9.929688 19.480469 9.960938 19.605469 9.960938 19.609375 C 9.957031 19.609375 9.882812 19.640625 9.800781 19.671875 C 9.445312 19.804688 9.214844 20.066406 9.191406 20.363281 C 9.1875 20.4375 9.191406 20.535156 9.203125 20.582031 L 9.226562 20.667969 L 9.089844 20.652344 C 8.925781 20.632812 8.679688 20.554688 8.488281 20.460938 C 8.414062 20.421875 8.351562 20.390625 8.347656 20.386719 C 8.347656 20.386719 8.308594 20.167969 8.265625 19.90625 C 8.21875 19.644531 8.160156 19.351562 8.128906 19.253906 C 8.03125 18.945312 7.78125 18.398438 7.652344 18.203125 C 7.59375 18.121094 7.585938 18.078125 7.539062 17.632812 C 7.464844 16.929688 7.488281 16.769531 7.695312 16.582031 C 7.796875 16.488281 7.878906 16.449219 8.046875 16.414062 C 8.421875 16.324219 9.164062 16.300781 9.511719 16.359375 Z M 19.296875 17.703125 C 19.472656 17.785156 19.578125 17.882812 19.652344 18.03125 C 19.769531 18.269531 19.703125 18.480469 19.347656 19.011719 C 19.179688 19.257812 19.078125 19.382812 18.804688 19.652344 C 18.519531 19.941406 18.195312 20.21875 18.144531 20.21875 C 18.136719 20.21875 18.160156 20.15625 18.195312 20.078125 C 18.375 19.671875 18.488281 19.25 18.480469 18.984375 L 18.476562 18.804688 L 18.667969 18.433594 C 18.773438 18.226562 18.886719 17.972656 18.917969 17.863281 C 18.949219 17.757812 18.980469 17.65625 18.984375 17.640625 C 19 17.601562 19.121094 17.625 19.296875 17.703125 Z M 11.46875 17.941406 C 11.640625 17.984375 11.863281 18.125 11.941406 18.234375 C 12.066406 18.425781 12.191406 19.070312 12.195312 19.5625 C 12.199219 19.851562 12.207031 19.910156 12.25 20 L 12.296875 20.105469 L 12.199219 20.191406 C 12.148438 20.238281 12.054688 20.300781 11.996094 20.335938 C 11.875 20.398438 11.546875 20.496094 11.359375 20.519531 L 11.242188 20.535156 L 11.203125 20.371094 C 11.183594 20.28125 11.140625 20.15625 11.109375 20.089844 C 11.027344 19.925781 10.832031 19.71875 10.691406 19.652344 L 10.570312 19.59375 L 10.476562 19.261719 C 10.371094 18.886719 10.277344 18.445312 10.277344 18.324219 C 10.277344 18.222656 10.339844 18.164062 10.59375 18.050781 C 10.90625 17.90625 11.1875 17.871094 11.46875 17.941406 Z M 14.347656 18.222656 C 14.414062 18.257812 14.492188 18.300781 14.523438 18.324219 L 14.574219 18.363281 L 14.503906 18.515625 C 14.414062 18.710938 14.332031 18.988281 14.300781 19.234375 C 14.269531 19.46875 14.285156 19.9375 14.339844 20.324219 L 14.382812 20.597656 L 14.292969 20.582031 C 13.449219 20.457031 13.164062 20.335938 12.878906 19.964844 C 12.746094 19.789062 12.726562 19.648438 12.800781 19.394531 C 12.90625 19.058594 13.089844 18.746094 13.328125 18.507812 C 13.488281 18.34375 13.582031 18.277344 13.761719 18.203125 C 13.9375 18.128906 14.164062 18.136719 14.347656 18.222656 Z M 15.941406 18.386719 C 16.183594 18.503906 16.28125 18.699219 16.324219 19.144531 C 16.371094 19.601562 16.210938 20.464844 15.964844 21.085938 L 15.890625 21.273438 L 15.769531 21.308594 C 15.632812 21.351562 15.28125 21.386719 15.214844 21.363281 C 15.1875 21.355469 15.160156 21.3125 15.136719 21.246094 C 15.035156 20.933594 14.898438 20.175781 14.867188 19.738281 C 14.832031 19.277344 14.96875 18.769531 15.1875 18.542969 C 15.390625 18.332031 15.703125 18.265625 15.941406 18.386719 Z M 7.113281 18.472656 C 7.195312 18.566406 7.28125 18.730469 7.429688 19.074219 C 7.578125 19.425781 7.597656 19.492188 7.683594 20.007812 C 7.726562 20.261719 7.765625 20.496094 7.773438 20.523438 C 7.78125 20.566406 7.777344 20.574219 7.734375 20.574219 C 7.527344 20.574219 7.246094 20.378906 7.023438 20.074219 C 6.84375 19.832031 6.53125 19.300781 6.433594 19.078125 C 6.386719 18.964844 6.351562 18.84375 6.34375 18.761719 L 6.335938 18.628906 L 6.460938 18.550781 C 6.628906 18.449219 6.792969 18.394531 6.929688 18.394531 C 7.035156 18.394531 7.054688 18.402344 7.113281 18.472656 Z M 17.828125 18.910156 C 17.910156 18.949219 17.914062 19.019531 17.863281 19.242188 C 17.761719 19.652344 17.585938 20.03125 17.210938 20.664062 C 16.980469 21.050781 16.960938 21.066406 16.726562 21.082031 C 16.597656 21.089844 16.585938 21.085938 16.601562 21.050781 C 16.761719 20.632812 16.941406 19.65625 16.925781 19.289062 L 16.914062 19.113281 L 17.085938 19.019531 C 17.3125 18.898438 17.457031 18.859375 17.632812 18.871094 C 17.710938 18.878906 17.796875 18.898438 17.828125 18.910156 Z M 10.511719 20.25 C 10.601562 20.351562 10.65625 20.53125 10.660156 20.726562 C 10.664062 20.910156 10.644531 20.945312 10.449219 21.042969 C 10.316406 21.109375 10.191406 21.125 10.09375 21.085938 C 10.035156 21.0625 9.8125 20.707031 9.75 20.535156 L 9.710938 20.421875 L 9.773438 20.355469 C 9.890625 20.230469 10.136719 20.148438 10.332031 20.160156 C 10.425781 20.167969 10.453125 20.179688 10.511719 20.25 Z M 10.511719 20.25 "
        />
        <path
            stroke="none"
            fillRule="nonzero"
            fill="black"
            fillOpacity="1"
            d="M 14.625 15.652344 C 14.410156 15.699219 13.902344 15.90625 13.671875 16.039062 C 13.480469 16.152344 13.265625 16.328125 13.222656 16.414062 C 13.175781 16.511719 13.179688 16.621094 13.242188 16.675781 C 13.355469 16.78125 13.472656 16.753906 13.992188 16.519531 C 14.191406 16.429688 14.425781 16.324219 14.5 16.292969 C 14.878906 16.132812 15.054688 16.007812 15.101562 15.867188 C 15.125 15.804688 15.121094 15.78125 15.089844 15.734375 C 15.070312 15.703125 15.03125 15.667969 15 15.660156 C 14.945312 15.636719 14.707031 15.632812 14.625 15.652344 Z M 14.625 15.652344 "
        />
        <path
            stroke="none"
            fillRule="nonzero"
            fill="black"
            fillOpacity="1"
            d="M 17.316406 16.46875 C 17.214844 16.519531 17.171875 16.589844 17.171875 16.679688 C 17.171875 16.792969 17.222656 16.855469 17.378906 16.925781 C 17.453125 16.960938 17.613281 17.054688 17.730469 17.132812 C 17.992188 17.3125 18.101562 17.347656 18.21875 17.296875 C 18.378906 17.230469 18.414062 17.039062 18.296875 16.859375 C 18.226562 16.753906 17.964844 16.566406 17.796875 16.5 C 17.628906 16.4375 17.40625 16.421875 17.316406 16.46875 Z M 17.316406 16.46875 "
        />
        <path
            stroke="none"
            fillRule="nonzero"
            fill="black"
            fillOpacity="1"
            d="M 8.511719 16.527344 C 8.144531 16.546875 8.066406 16.558594 7.957031 16.621094 C 7.738281 16.742188 7.765625 17.039062 8.003906 17.105469 C 8.054688 17.117188 8.296875 17.121094 8.675781 17.113281 C 9.285156 17.101562 9.277344 17.097656 9.816406 17.199219 C 9.941406 17.21875 9.980469 17.21875 10.058594 17.191406 C 10.300781 17.105469 10.308594 16.785156 10.066406 16.671875 C 9.957031 16.621094 9.609375 16.554688 9.304688 16.527344 C 9.019531 16.5 8.972656 16.5 8.511719 16.527344 Z M 8.511719 16.527344 "
        />
        <path
            stroke="none"
            fillRule="nonzero"
            fill="black"
            fillOpacity="1"
            d="M 19.09375 17.777344 C 19.019531 17.8125 18.996094 17.863281 18.996094 17.957031 C 18.996094 18.027344 19.011719 18.058594 19.109375 18.160156 C 19.242188 18.304688 19.347656 18.359375 19.453125 18.339844 C 19.648438 18.304688 19.675781 18.03125 19.5 17.867188 C 19.394531 17.765625 19.195312 17.71875 19.09375 17.777344 Z M 19.09375 17.777344 "
        />
        <path
            stroke="none"
            fillRule="nonzero"
            fill="black"
            fillOpacity="1"
            d="M 11.015625 18.082031 C 10.777344 18.117188 10.585938 18.234375 10.585938 18.355469 C 10.585938 18.375 10.613281 18.421875 10.644531 18.449219 C 10.691406 18.5 10.714844 18.503906 10.863281 18.503906 C 10.957031 18.503906 11.15625 18.515625 11.308594 18.53125 C 11.527344 18.550781 11.605469 18.550781 11.65625 18.527344 C 11.730469 18.496094 11.789062 18.40625 11.789062 18.320312 C 11.789062 18.246094 11.691406 18.136719 11.605469 18.105469 C 11.5 18.074219 11.175781 18.058594 11.015625 18.082031 Z M 11.015625 18.082031 "
        />
        <path
            stroke="none"
            fillRule="nonzero"
            fill="black"
            fillOpacity="1"
            d="M 13.566406 18.355469 C 13.324219 18.476562 12.898438 19.269531 12.898438 19.613281 C 12.898438 19.8125 13.027344 19.933594 13.179688 19.882812 C 13.273438 19.851562 13.328125 19.78125 13.378906 19.644531 C 13.488281 19.335938 13.542969 19.199219 13.679688 18.902344 C 13.789062 18.671875 13.835938 18.550781 13.835938 18.488281 C 13.835938 18.339844 13.71875 18.28125 13.566406 18.355469 Z M 13.566406 18.355469 "
        />
        <path
            stroke="none"
            fillRule="nonzero"
            fill="black"
            fillOpacity="1"
            d="M 15.433594 18.449219 C 15.183594 18.535156 15.070312 18.691406 15.136719 18.851562 C 15.171875 18.9375 15.265625 18.972656 15.402344 18.949219 C 15.453125 18.9375 15.566406 18.929688 15.652344 18.929688 C 15.898438 18.929688 16.015625 18.847656 16.015625 18.679688 C 16.015625 18.582031 15.949219 18.488281 15.84375 18.449219 C 15.753906 18.410156 15.539062 18.410156 15.433594 18.449219 Z M 15.433594 18.449219 "
        />
        <path
            stroke="none"
            fillRule="nonzero"
            fill="black"
            fillOpacity="1"
            d="M 6.640625 18.515625 C 6.457031 18.582031 6.390625 18.757812 6.503906 18.871094 C 6.597656 18.96875 6.878906 18.9375 6.992188 18.824219 C 7.070312 18.746094 7.074219 18.625 6.996094 18.550781 C 6.925781 18.484375 6.765625 18.46875 6.640625 18.515625 Z M 6.640625 18.515625 "
        />
        <path
            stroke="none"
            fillRule="nonzero"
            fill="black"
            fillOpacity="1"
            d="M 17.28125 19.019531 C 17.164062 19.050781 17.078125 19.148438 17.074219 19.25 C 17.074219 19.316406 17.085938 19.347656 17.144531 19.398438 C 17.207031 19.453125 17.230469 19.460938 17.378906 19.460938 C 17.601562 19.460938 17.703125 19.390625 17.703125 19.234375 C 17.703125 19.101562 17.554688 18.984375 17.394531 18.996094 C 17.375 19 17.324219 19.007812 17.28125 19.019531 Z M 17.28125 19.019531 "
        />
        <path
            stroke="none"
            fillRule="nonzero"
            fill="black"
            fillOpacity="1"
            d="M 10.171875 20.242188 C 10.054688 20.265625 9.949219 20.316406 9.921875 20.371094 C 9.835938 20.527344 9.980469 20.621094 10.222656 20.574219 C 10.371094 20.542969 10.453125 20.472656 10.453125 20.378906 C 10.453125 20.261719 10.347656 20.214844 10.171875 20.242188 Z M 10.171875 20.242188 "
        />
        <path
            stroke="none"
            fillRule="nonzero"
            fill="black"
            fillOpacity="1"
            d="M 8.574219 9.21875 C 8.085938 9.449219 8.070312 10.140625 8.550781 10.375 C 8.804688 10.5 9.074219 10.464844 9.273438 10.285156 C 9.425781 10.148438 9.480469 10.019531 9.484375 9.804688 C 9.484375 9.660156 9.476562 9.621094 9.417969 9.507812 C 9.34375 9.363281 9.195312 9.230469 9.050781 9.1875 C 8.90625 9.144531 8.699219 9.15625 8.574219 9.21875 Z M 9.171875 9.480469 C 9.226562 9.539062 9.234375 9.558594 9.222656 9.640625 C 9.203125 9.796875 9.058594 9.875 8.910156 9.804688 C 8.859375 9.78125 8.785156 9.667969 8.785156 9.609375 C 8.785156 9.546875 8.859375 9.445312 8.925781 9.417969 C 9.019531 9.378906 9.09375 9.398438 9.171875 9.480469 Z M 9.171875 9.480469 "
        />
        <path
            stroke="none"
            fillRule="nonzero"
            fill="black"
            fillOpacity="1"
            d="M 17.285156 9.488281 C 17.105469 9.535156 16.960938 9.621094 16.824219 9.765625 C 16.542969 10.0625 16.476562 10.492188 16.644531 10.863281 C 16.714844 11.015625 16.910156 11.226562 17.054688 11.304688 C 17.566406 11.582031 18.183594 11.382812 18.433594 10.863281 C 18.609375 10.488281 18.53125 10.039062 18.238281 9.746094 C 17.992188 9.496094 17.621094 9.398438 17.285156 9.488281 Z M 17.988281 9.839844 C 18.105469 9.898438 18.15625 9.976562 18.167969 10.105469 C 18.183594 10.320312 18.058594 10.453125 17.84375 10.453125 C 17.65625 10.453125 17.527344 10.324219 17.527344 10.140625 C 17.527344 9.898438 17.78125 9.734375 17.988281 9.839844 Z M 17.988281 9.839844 "
        />
    </g>
</svg>