<svg width="31" height="10" viewBox="0 0 31 10" fill="none" xmlns="http://www.w3.org/2000/svg">
<path d="M22.2712 7.70938V0H23.8208V7.70938H22.2712Z" fill="#F7A600"/>
<path d="M4.21099 9.99941H0.888885V2.29004H4.0774C5.62704 2.29004 6.52998 3.13459 6.52998 4.45566C6.52998 5.31079 5.95008 5.86341 5.5487 6.04741C6.0278 6.26386 6.64108 6.751 6.64108 7.78014C6.64108 9.21976 5.62704 9.99941 4.21099 9.99941ZM3.95475 3.63293H2.43851V5.40869H3.95475C4.61238 5.40869 4.98035 5.05131 4.98035 4.52052C4.98035 3.99031 4.61238 3.63293 3.95475 3.63293ZM4.05494 6.76221H2.43851V8.6571H4.05494C4.75749 8.6571 5.09145 8.22424 5.09145 7.70407C5.09145 7.18448 4.75687 6.76221 4.05494 6.76221Z" fill="#fff"/>
<path d="M11.3676 6.83769V9.99941H9.82893V6.83769L7.44316 2.29004H9.12638L10.6092 5.39748L12.0696 2.29004H13.7528L11.3676 6.83769Z" fill="#fff"/>
<path d="M18.1461 9.99941H14.824V2.29004H18.0125C19.5621 2.29004 20.4651 3.13459 20.4651 4.45566C20.4651 5.31079 19.8852 5.86341 19.4838 6.04741C19.9629 6.26386 20.5762 6.751 20.5762 7.78014C20.5762 9.21976 19.5621 9.99941 18.1461 9.99941ZM17.8899 3.63293H16.3736V5.40869H17.8899C18.5475 5.40869 18.9155 5.05131 18.9155 4.52052C18.9155 3.99031 18.5475 3.63293 17.8899 3.63293ZM17.99 6.76221H16.3736V8.6571H17.99C18.6926 8.6571 19.0266 8.22424 19.0266 7.70407C19.0266 7.18448 18.6926 6.76221 17.99 6.76221Z" fill="#fff"/>
<path d="M28.8152 3.63293V10H27.2656V3.63293H25.1919V2.29004H30.8889V3.63293H28.8152Z" fill="#fff"/>
</svg>
