<svg width="25" height="20" viewBox="0 0 25 20" fill="none" xmlns="http://www.w3.org/2000/svg">
<g clip-path="url(#clip0_186_1422)">
<path d="M7.7 10.4C10.0213 10.4 11.9 8.52125 11.9 6.2C11.9 3.87875 10.0213 2 7.7 2C5.37875 2 3.5 3.87875 3.5 6.2C3.5 8.52125 5.37875 10.4 7.7 10.4ZM10.58 11.6H10.2688C9.48875 11.975 8.6225 12.2 7.7 12.2C6.7775 12.2 5.915 11.975 5.13125 11.6H4.82C2.435 11.6 0.5 13.535 0.5 15.92V17C0.5 17.9938 1.30625 18.8 2.3 18.8H13.1C14.0938 18.8 14.9 17.9938 14.9 17V15.92C14.9 13.535 12.965 11.6 10.58 11.6ZM18.5 10.4C20.4875 10.4 22.1 8.7875 22.1 6.8C22.1 4.8125 20.4875 3.2 18.5 3.2C16.5125 3.2 14.9 4.8125 14.9 6.8C14.9 8.7875 16.5125 10.4 18.5 10.4ZM20.3 11.6H20.1575C19.6363 11.78 19.085 11.9 18.5 11.9C17.915 11.9 17.3638 11.78 16.8425 11.6H16.7C15.935 11.6 15.23 11.8212 14.6112 12.1775C15.5262 13.1638 16.1 14.4725 16.1 15.92V17.36C16.1 17.4425 16.0813 17.5213 16.0775 17.6H22.7C23.6938 17.6 24.5 16.7938 24.5 15.8C24.5 13.4788 22.6213 11.6 20.3 11.6Z" fill="#FFEBCD"/>
</g>
<defs>
<clipPath id="clip0_186_1422">
<rect width="24" height="19.2" fill="white" transform="translate(0.5 0.799988)"/>
</clipPath>
</defs>
</svg>
