<svg width="36" height="36" viewBox="0 0 36 36" fill="none" xmlns="http://www.w3.org/2000/svg">
<path d="M14.4 3.60001C13.4452 3.60001 12.5296 3.97929 11.8544 4.65442C11.1793 5.32955 10.8 6.24523 10.8 7.20001V25.2C10.8 26.1548 11.1793 27.0705 11.8544 27.7456C12.5296 28.4207 13.4452 28.8 14.4 28.8H25.2C26.1548 28.8 27.0705 28.4207 27.7456 27.7456C28.4207 27.0705 28.8 26.1548 28.8 25.2V7.20001C28.8 6.24523 28.4207 5.32955 27.7456 4.65442C27.0705 3.97929 26.1548 3.60001 25.2 3.60001H14.4ZM12.6 7.20001C12.6 6.72262 12.7897 6.26478 13.1272 5.92721C13.4648 5.58965 13.9226 5.40001 14.4 5.40001H25.2C25.6774 5.40001 26.1352 5.58965 26.4728 5.92721C26.8104 6.26478 27 6.72262 27 7.20001V25.2C27 25.6774 26.8104 26.1352 26.4728 26.4728C26.1352 26.8104 25.6774 27 25.2 27H14.4C13.9226 27 13.4648 26.8104 13.1272 26.4728C12.7897 26.1352 12.6 25.6774 12.6 25.2V7.20001ZM7.20001 10.8C7.20003 10.1681 7.36638 9.54731 7.68234 9.00006C7.99831 8.45281 8.45276 7.99836 9.00001 7.68241V26.1C9.00001 27.2935 9.47412 28.4381 10.318 29.282C11.1619 30.1259 12.3065 30.6 13.5 30.6H24.7176C24.4017 31.1473 23.9472 31.6017 23.4 31.9177C22.8527 32.2336 22.2319 32.4 21.6 32.4H13.5C11.8291 32.4 10.2267 31.7363 9.04524 30.5548C7.86376 29.3733 7.20001 27.7709 7.20001 26.1V10.8Z" fill="black"/>
</svg>
