<svg width="24" height="24" viewBox="0 0 24 24" fill="none" xmlns="http://www.w3.org/2000/svg">
<path d="M20.5 8C19.108 4.821 15.677 3 11.978 3C7.299 3 3.453 6.552 3 11.1" stroke="white" stroke-width="1.5" stroke-linecap="round" stroke-linejoin="round"/>
<path d="M16.489 8.40002H20.459C20.6022 8.40002 20.7396 8.34313 20.8408 8.24186C20.9421 8.14059 20.999 8.00324 20.999 7.86002V3.90002M3.5 16C4.892 19.179 8.323 21 12.022 21C16.701 21 20.547 17.448 21 12.9" stroke="white" stroke-width="1.5" stroke-linecap="round" stroke-linejoin="round"/>
<path d="M7.511 15.6H3.541C3.47 15.5998 3.39968 15.6137 3.33404 15.6408C3.26841 15.6679 3.20877 15.7076 3.15852 15.7578C3.10827 15.8079 3.0684 15.8675 3.0412 15.9331C3.014 15.9987 3 16.069 3 16.14V20.1" stroke="white" stroke-width="1.5" stroke-linecap="round" stroke-linejoin="round"/>
</svg>
