<svg width="18" height="17" viewBox="0 0 18 17" fill="none" xmlns="http://www.w3.org/2000/svg">
<path d="M9 17C13.6944 17 17.5 13.3582 17.5 8.86587C17.5 4.37351 13.6944 0.731732 9 0.731732C4.30558 0.731732 0.5 4.37351 0.5 8.86587C0.5 13.3582 4.30558 17 9 17Z" fill="#D68F30"/>
<path d="M1.07793 10.9788V11.8098C1.16684 12.0296 1.26613 12.2466 1.3743 12.4565V10.9788H1.07793ZM2.04707 12.543V13.5413C2.16562 13.7015 2.28862 13.8589 2.41754 14.0107V12.543H2.04707ZM3.33037 13.8476V14.9239C3.47411 15.0473 3.6223 15.165 3.77493 15.2784V13.8476H3.33037ZM4.91004 14.8388V15.996C5.05527 16.0726 5.20345 16.1449 5.3546 16.2144V14.8388H4.91004ZM6.70162 15.4699V16.6951C6.84833 16.7348 6.99651 16.7703 7.14618 16.8029V15.4699H6.70162ZM8.79847 15.6883V16.9943C8.86515 16.9957 8.93183 16.9986 9 16.9986C9.0815 16.9986 9.16301 16.9943 9.24303 16.9929V15.6883H8.79847ZM10.8953 15.46V16.793C11.045 16.7603 11.1932 16.7235 11.3399 16.6838V15.46H10.8953ZM12.6824 14.8204V16.1974C12.8336 16.1279 12.9818 16.0527 13.127 15.9747V14.8204H12.6824ZM14.2577 13.8207V15.2529C14.4102 15.1388 14.5585 15.0196 14.7022 14.8956V13.8207H14.2577ZM15.9781 12.5118H15.6077V13.9795C15.7366 13.8263 15.8611 13.6689 15.9781 13.5073V12.5118ZM16.9413 10.9419H16.645V12.4224C16.7531 12.2083 16.8524 11.9885 16.9413 11.7658V10.9419Z" fill="#FF0000"/>
<path d="M9 16.2683C13.6944 16.2683 17.5 12.6265 17.5 8.13413C17.5 3.64178 13.6944 0 9 0C4.30558 0 0.5 3.64178 0.5 8.13413C0.5 12.6265 4.30558 16.2683 9 16.2683Z" fill="#FFF176"/>
<path d="M9 15.5436C13.2762 15.5436 16.7428 12.2263 16.7428 8.13413C16.7428 4.04198 13.2762 0.724641 9 0.724641C4.72379 0.724641 1.25724 4.04198 1.25724 8.13413C1.25724 12.2263 4.72379 15.5436 9 15.5436Z" fill="#F2BC1A"/>
<path d="M1.24242 8.41775C1.18759 7.44211 1.36393 6.45229 1.71958 5.52486C2.09005 4.60027 2.6576 3.74516 3.37334 3.0191C4.81076 1.56415 6.89723 0.720387 9 0.71046C11.1028 0.721805 13.1907 1.56415 14.6252 3.02052C15.3424 3.74516 15.9085 4.60169 16.2789 5.52486C16.6361 6.4537 16.8124 7.44211 16.7561 8.41775H16.7265C16.7236 7.44446 16.5222 6.48107 16.1337 5.58158C15.7446 4.6831 15.1763 3.86573 14.4607 3.17509C13.7446 2.48513 12.8937 1.93678 11.9563 1.56131C11.0193 1.18691 10.014 0.994134 8.99852 0.994134C7.98309 0.994134 6.97774 1.18691 6.04071 1.56131C5.10336 1.93678 4.2524 2.48513 3.53635 3.17509C2.82025 3.86536 2.25194 4.68283 1.86332 5.58158C1.47483 6.48107 1.27349 7.44446 1.27057 8.41775H1.24242Z" fill="#E08F00"/>
<path d="M9 0.00141813C4.30544 0.00141813 0.5 3.64306 0.5 8.13555C0.5 12.628 4.30544 16.2697 9 16.2697C13.6946 16.2697 17.5 12.628 17.5 8.13555C17.5 3.64306 13.6946 0.00141813 9 0.00141813ZM9 15.545C4.72333 15.545 1.25724 12.2281 1.25724 8.13555C1.25724 4.04154 4.72333 0.724641 9 0.724641C13.2767 0.724641 16.7428 4.04154 16.7428 8.13413C16.7428 12.2267 13.2767 15.545 9 15.545Z" fill="#FFF176"/>
<path d="M5.14566 2.45187L5.33386 3.00918L5.94735 2.78512V3.00918L5.45092 3.35377L5.6406 3.6856V3.91108L5.14566 3.56648L4.64923 3.91108V3.6856L4.83891 3.35377L4.34397 3.00918V2.78512L4.95598 3.00918L5.14566 2.45187ZM2.77763 5.65107L2.96731 6.20838L3.57932 5.98432V6.20838L3.08438 6.55297L3.27406 6.88622V7.11028L2.77763 6.76568L2.28269 7.11028V6.88622L2.47237 6.55297L1.97594 6.20838V5.98432L2.58944 6.20838L2.77763 5.65107ZM2.70799 9.59476L2.89766 10.1521L3.50968 9.92801V10.1521L3.01473 10.4967L3.20441 10.8299V11.054L2.70799 10.7094L2.21304 11.054V10.8299L2.40272 10.4967L1.90629 10.1521V9.92801L2.51979 10.1521L2.70799 9.59476ZM5.23605 12.7259L5.42573 13.2832L6.03774 13.0591V13.2832L5.5428 13.6278L5.73248 13.9596V14.1851L5.23605 13.8405L4.74111 14.1851V13.9596L4.93079 13.6278L4.43436 13.2832V13.0591L5.04786 13.2832L5.23605 12.7259ZM12.8543 2.45187L12.6661 3.00918L12.0527 2.78512V3.00918L12.5491 3.35377L12.3594 3.6856V3.91108L12.8543 3.56648L13.3508 3.91108V3.6856L13.1611 3.35377L13.656 3.00918V2.78512L13.044 3.00918L12.8543 2.45187ZM15.2224 5.65107L15.0327 6.20838L14.4207 5.98432V6.20838L14.9156 6.55297L14.7259 6.88622V7.11028L15.2224 6.76568L15.7173 7.11028V6.88622L15.5276 6.55297L16.0241 6.20838V5.98432L15.4106 6.20838L15.2224 5.65107ZM15.292 9.59476L15.1023 10.1521L14.4903 9.92801V10.1521L14.9853 10.4967L14.7956 10.8299V11.054L15.292 10.7094L15.787 11.054V10.8299L15.5973 10.4967L16.0937 10.1521V9.92801L15.4802 10.1521L15.292 9.59476ZM12.7639 12.7259L12.5743 13.2832L11.9623 13.0591V13.2832L12.4572 13.6278L12.2675 13.9596V14.1851L12.7639 13.8405L13.2589 14.1851V13.9596L13.0692 13.6278L13.5656 13.2832V13.0591L12.9521 13.2832L12.7639 12.7259Z" fill="#D38200"/>
<path d="M12.7639 12.5004L12.9521 13.0577H13.5656L13.0692 13.4023L13.2589 13.9596L12.7639 13.615L12.2675 13.9596L12.4572 13.4023L11.9623 13.0577H12.5743L12.7639 12.5004ZM15.292 9.3707L15.4802 9.92801L16.0937 9.92801L15.5973 10.2726L15.787 10.8299L15.292 10.4853L14.7956 10.8299L14.9853 10.2726L14.4903 9.92801L15.1023 9.92801L15.292 9.3707ZM15.2224 5.42701L15.4106 5.98432L16.0241 5.98432L15.5276 6.32891L15.7173 6.88622L15.2224 6.54163L14.7259 6.88622L14.9156 6.32891L14.4207 5.98432L15.0327 5.98432L15.2224 5.42701ZM12.8543 2.22639L13.044 2.7837H13.656L13.1611 3.12829L13.3508 3.6856L12.8543 3.34101L12.3594 3.6856L12.5491 3.12829L12.0527 2.7837H12.6661L12.8543 2.22639Z" fill="#FFF176"/>
<path d="M9.00741 13.9596L9.19709 14.5169L9.8091 14.2929V14.5169L9.31416 14.8615L9.50384 15.1948V15.4188L9.00741 15.0742L8.51247 15.4188V15.1948L8.70215 14.8615L8.20572 14.5169V14.2929L8.81921 14.5169L9.00741 13.9596Z" fill="#D38200"/>
<path d="M9.00741 13.6618L9.19709 14.2191H9.8091L9.31416 14.5637L9.50384 15.121L9.00741 14.7764L8.51247 15.121L8.70215 14.5637L8.20572 14.2191H8.81921L9.00741 13.6618Z" fill="#FFF176"/>
<path d="M9.00741 1.25217L9.19709 1.80948L9.8091 1.58542V1.80948L9.31416 2.15407L9.50384 2.48732V2.71138L9.00741 2.36678L8.51247 2.71138V2.48732L8.70215 2.15407L8.20572 1.80948V1.58542L8.81921 1.80948L9.00741 1.25217Z" fill="#D38200"/>
<path d="M9.00741 1.02811L9.19709 1.58542L9.8091 1.58542L9.31416 1.93001L9.50384 2.48732L9.00741 2.14273L8.51247 2.48732L8.70214 1.93001L8.20572 1.58542L8.81921 1.58542L9.00741 1.02811ZM5.23605 12.5004L5.04786 13.0577H4.43436L4.93079 13.4023L4.74111 13.9596L5.23605 13.615L5.73248 13.9596L5.5428 13.4023L6.03774 13.0577H5.42573L5.23605 12.5004ZM2.70799 9.3707L2.51979 9.92801L1.90629 9.92801L2.40272 10.2726L2.21304 10.8299L2.70799 10.4853L3.20441 10.8299L3.01473 10.2726L3.50968 9.92801L2.89766 9.92801L2.70799 9.3707ZM2.77763 5.42701L2.58944 5.98432L1.97594 5.98432L2.47237 6.32891L2.28269 6.88622L2.77763 6.54163L3.27406 6.88622L3.08438 6.32891L3.57932 5.98432L2.96731 5.98432L2.77763 5.42701ZM5.14566 2.22639L4.95598 2.7837H4.34397L4.83891 3.12829L4.64923 3.6856L5.14566 3.34101L5.6406 3.6856L5.45092 3.12829L5.94735 2.7837H5.33386L5.14566 2.22639Z" fill="#FFF176"/>
<path d="M13.6264 6.25943C13.6264 6.20979 4.3825 6.25943 4.3825 6.25943L4.29951 6.49766V6.90465C4.29951 6.97839 4.36175 7.03795 4.43881 7.03795H13.5612C13.6382 7.03795 13.7005 6.97839 13.7005 6.90465V6.50901L13.6264 6.25943ZM13.6397 11.5489H4.42103L3.80457 11.8453L3.81198 12.2267C3.81346 12.2679 3.84902 12.3019 3.89348 12.3019H14.108C14.151 12.3019 14.188 12.2693 14.1895 12.2267L14.1969 11.8524L13.6397 11.5489Z" fill="#D38200"/>
<path d="M5.90734 10.3889H5.37683C5.2894 10.3889 5.21827 10.1251 5.21827 10.0415L6.06442 10.0159C6.06442 10.0996 5.99329 10.3889 5.90734 10.3889ZM6.08813 7.65057H5.19456C5.12788 7.65057 5.07008 7.60802 5.05082 7.54705L4.98117 6.98974H6.28966L6.23039 7.54705C6.2126 7.60802 6.15481 7.65057 6.08813 7.65057ZM5.19456 10.5576H6.08813C6.15481 10.5576 6.2867 10.5973 6.30448 10.6583C6.30448 10.6583 6.30003 10.9235 6.30003 11.0284C6.30003 11.1334 6.25558 11.21 6.15629 11.21H5.12639C5.02711 11.21 4.98265 11.1249 4.98265 11.0284C4.98265 10.932 4.97821 10.6612 4.97821 10.6612C4.99747 10.6002 5.12788 10.5576 5.19456 10.5576ZM12.798 10.3889H12.2675C12.1801 10.3889 12.109 10.1251 12.109 10.0415L12.9551 10.0159C12.9551 10.0996 12.8855 10.3889 12.798 10.3889ZM12.9788 7.65057H12.0853C12.0186 7.65057 11.9608 7.60802 11.9415 7.54705L11.8719 6.98974H13.1804L13.1211 7.54705C13.1033 7.60802 13.0455 7.65057 12.9788 7.65057ZM12.0853 10.5576H12.9788C13.0455 10.5576 13.1774 10.5973 13.1952 10.6583C13.1952 10.6583 13.1907 10.9235 13.1907 11.0284C13.1907 11.1334 13.1463 11.21 13.047 11.21H12.0171C11.9178 11.21 11.8733 11.1249 11.8733 11.0284C11.8733 10.932 11.8689 10.6612 11.8689 10.6612C11.8882 10.6002 12.0186 10.5576 12.0853 10.5576ZM10.5011 10.3889H9.97062C9.88319 10.3889 9.81207 10.1251 9.81207 10.0415L10.6582 10.0159C10.6582 10.0996 10.5886 10.3889 10.5011 10.3889ZM10.6819 7.65057H9.78835C9.72167 7.65057 9.66388 7.60802 9.64461 7.54705L9.57496 6.98974H10.8835L10.8242 7.54705C10.8064 7.60802 10.7486 7.65057 10.6819 7.65057ZM9.78835 10.5576H10.6819C10.7486 10.5576 10.8805 10.5973 10.8983 10.6583C10.8983 10.6583 10.8938 10.9235 10.8938 11.0284C10.8938 11.1334 10.8494 11.21 10.7501 11.21H9.72019C9.6209 11.21 9.57645 11.1249 9.57645 11.0284C9.57645 10.932 9.572 10.6612 9.572 10.6612C9.59127 10.6002 9.72167 10.5576 9.78835 10.5576ZM8.20424 10.3889H7.67373C7.5863 10.3889 7.51517 10.1251 7.51517 10.0415L8.36131 10.0159C8.36131 10.0996 8.29167 10.3889 8.20424 10.3889ZM8.38502 7.65057H7.49146C7.42477 7.65057 7.36698 7.60802 7.34772 7.54705L7.27807 6.98974H8.58656L8.52728 7.54705C8.5095 7.60802 8.45171 7.65057 8.38502 7.65057ZM7.49146 10.5576H8.38502C8.45171 10.5576 8.5836 10.5973 8.60138 10.6583C8.60138 10.6583 8.59693 10.9235 8.59693 11.0284C8.59693 11.1334 8.55248 11.21 8.45319 11.21H7.42329C7.32401 11.21 7.27955 11.1249 7.27955 11.0284C7.27955 10.932 7.2751 10.6612 7.2751 10.6612C7.29437 10.6002 7.42477 10.5576 7.49146 10.5576Z" fill="#D38200"/>
<path d="M13.6931 5.87938C13.6931 5.82975 13.6664 5.78295 13.6264 5.76026L9.00593 3.25025L4.37953 5.75742C4.33508 5.78295 4.30692 5.82975 4.30692 5.87938L4.29951 6.49908C4.29951 6.57708 4.3662 6.64089 4.4477 6.64089H13.5508C13.6323 6.64089 13.699 6.57708 13.699 6.49908L13.6931 5.87938Z" fill="#FFF176"/>
<path d="M12.5328 5.71063L9 3.79196L5.46722 5.71063H12.5328Z" fill="#F2BC1A"/>
<path d="M11.2332 5.47664L9 4.26276L6.76682 5.47664H11.2332ZM13.3552 11.0554H4.64479C4.55884 11.0554 4.47734 11.0908 4.41954 11.1518L3.82087 11.7914C3.77938 11.8353 3.81198 11.9048 3.87422 11.9048H14.1258C14.1865 11.9048 14.2191 11.8353 14.1791 11.7914L13.579 11.1518C13.5227 11.0908 13.4397 11.0554 13.3552 11.0554ZM12.798 10.1322H12.2675C12.1801 10.1322 12.109 10.0641 12.109 9.98048V7.71438C12.109 7.63071 12.1801 7.56265 12.2675 7.56265H12.798C12.8855 7.56265 12.9566 7.63071 12.9566 7.71438V9.9819C12.9566 10.0656 12.8855 10.1322 12.798 10.1322ZM12.9803 7.39389H12.0867C12.0201 7.39389 11.9623 7.35135 11.943 7.29037L11.8748 7.0649C11.8467 6.97414 11.9193 6.88338 12.0186 6.88338H13.0485C13.1478 6.88338 13.2189 6.97414 13.1922 7.0649L13.124 7.29037C13.1048 7.35135 13.0455 7.39389 12.9803 7.39389ZM12.0853 10.3024H12.9788C13.0455 10.3024 13.1033 10.3449 13.1226 10.4059L13.1907 10.6314C13.2189 10.7221 13.1463 10.8129 13.047 10.8129H12.0171C11.9178 10.8129 11.8467 10.7221 11.8733 10.6314L11.9415 10.4059C11.9608 10.3435 12.0201 10.3024 12.0853 10.3024ZM5.90734 10.1322H5.37683C5.2894 10.1322 5.21827 10.0641 5.21827 9.98048V7.71438C5.21827 7.63071 5.2894 7.56265 5.37683 7.56265H5.90734C5.99477 7.56265 6.0659 7.63071 6.0659 7.71438V9.9819C6.06442 10.0656 5.99329 10.1322 5.90734 10.1322ZM6.08813 7.39389H5.19456C5.12788 7.39389 5.07008 7.35135 5.05082 7.29037L4.98265 7.0649C4.9545 6.97414 5.02711 6.88338 5.1264 6.88338H6.15629C6.25558 6.88338 6.32671 6.97414 6.30003 7.0649L6.23187 7.29037C6.2126 7.35135 6.15481 7.39389 6.08813 7.39389ZM5.19456 10.3024H6.08813C6.15481 10.3024 6.2126 10.3449 6.23187 10.4059L6.30003 10.6314C6.32819 10.7221 6.25558 10.8129 6.15629 10.8129H5.1264C5.02711 10.8129 4.95598 10.7221 4.98265 10.6314L5.05082 10.4059C5.07008 10.3435 5.12788 10.3024 5.19456 10.3024ZM8.20424 10.1322H7.67373C7.5863 10.1322 7.51517 10.0641 7.51517 9.98048V7.71438C7.51517 7.63071 7.5863 7.56265 7.67373 7.56265H8.20424C8.29167 7.56265 8.3628 7.63071 8.3628 7.71438V9.9819C8.36241 10.0219 8.34553 10.0601 8.31583 10.0883C8.28614 10.1164 8.24603 10.1322 8.20424 10.1322ZM8.38502 7.39389H7.49146C7.42477 7.39389 7.36698 7.35135 7.34772 7.29037L7.27955 7.0649C7.2514 6.97414 7.32401 6.88338 7.42329 6.88338H8.45319C8.55248 6.88338 8.62361 6.97414 8.59693 7.0649L8.52877 7.29037C8.5095 7.35135 8.45171 7.39389 8.38502 7.39389ZM7.49146 10.3024H8.38502C8.45171 10.3024 8.5095 10.3449 8.52877 10.4059L8.59693 10.6314C8.62509 10.7221 8.55248 10.8129 8.45319 10.8129H7.42329C7.32401 10.8129 7.25288 10.7221 7.27955 10.6314L7.34772 10.4059C7.36698 10.3435 7.42477 10.3024 7.49146 10.3024ZM10.5011 10.1322H9.97062C9.88319 10.1322 9.81207 10.0641 9.81207 9.98048V7.71438C9.81207 7.63071 9.88319 7.56265 9.97062 7.56265H10.5011C10.5886 7.56265 10.6597 7.63071 10.6597 7.71438V9.9819C10.6593 10.0219 10.6424 10.0601 10.6127 10.0883C10.583 10.1164 10.5429 10.1322 10.5011 10.1322ZM10.6819 7.39389H9.78835C9.72167 7.39389 9.66388 7.35135 9.64461 7.29037L9.57645 7.0649C9.54829 6.97414 9.6209 6.88338 9.72019 6.88338H10.7501C10.8494 6.88338 10.9205 6.97414 10.8938 7.0649L10.8257 7.29037C10.8064 7.35135 10.7486 7.39389 10.6819 7.39389ZM9.78835 10.3024H10.6819C10.7486 10.3024 10.8064 10.3449 10.8257 10.4059L10.8938 10.6314C10.922 10.7221 10.8494 10.8129 10.7501 10.8129H9.72019C9.6209 10.8129 9.54977 10.7221 9.57645 10.6314L9.64461 10.4059C9.66388 10.3435 9.72315 10.3024 9.78835 10.3024Z" fill="#FFF176"/>
</svg>
